%TF.GenerationSoftware,KiCad,Pcbnew,7.0.7*%
%TF.CreationDate,2023-09-18T18:06:58+02:00*%
%TF.ProjectId,attiny-usb_panel,61747469-6e79-42d7-9573-625f70616e65,rev?*%
%TF.SameCoordinates,Original*%
%TF.FileFunction,Soldermask,Bot*%
%TF.FilePolarity,Negative*%
%FSLAX46Y46*%
G04 Gerber Fmt 4.6, Leading zero omitted, Abs format (unit mm)*
G04 Created by KiCad (PCBNEW 7.0.7) date 2023-09-18 18:06:58*
%MOMM*%
%LPD*%
G01*
G04 APERTURE LIST*
%ADD10R,1.600000X1.600000*%
%ADD11O,1.600000X1.600000*%
%ADD12C,1.700000*%
%ADD13O,1.700000X1.700000*%
%ADD14R,1.700000X1.700000*%
G04 APERTURE END LIST*
D10*
%TO.C,U1*%
X74292000Y-53028000D03*
D11*
X74292000Y-50488000D03*
X74292000Y-47948000D03*
X74292000Y-45408000D03*
X66672000Y-45408000D03*
X66672000Y-47948000D03*
X66672000Y-50488000D03*
X66672000Y-53028000D03*
%TD*%
D12*
%TO.C,J1*%
X139954000Y-44297000D03*
D13*
X139954000Y-46837000D03*
X139954000Y-49377000D03*
X139954000Y-51917000D03*
D14*
X139954000Y-54457000D03*
%TD*%
D10*
%TO.C,U1*%
X123708000Y-45572000D03*
D11*
X123708000Y-48112000D03*
X123708000Y-50652000D03*
X123708000Y-53192000D03*
X131328000Y-53192000D03*
X131328000Y-50652000D03*
X131328000Y-48112000D03*
X131328000Y-45572000D03*
%TD*%
D12*
%TO.C,J1*%
X58046000Y-54303000D03*
D13*
X58046000Y-51763000D03*
X58046000Y-49223000D03*
X58046000Y-46683000D03*
D14*
X58046000Y-44143000D03*
%TD*%
D10*
%TO.C,U1*%
X74292000Y-67228000D03*
D11*
X74292000Y-64688000D03*
X74292000Y-62148000D03*
X74292000Y-59608000D03*
X66672000Y-59608000D03*
X66672000Y-62148000D03*
X66672000Y-64688000D03*
X66672000Y-67228000D03*
%TD*%
D12*
%TO.C,J1*%
X139954000Y-58497000D03*
D13*
X139954000Y-61037000D03*
X139954000Y-63577000D03*
X139954000Y-66117000D03*
D14*
X139954000Y-68657000D03*
%TD*%
D10*
%TO.C,U1*%
X123708000Y-59772000D03*
D11*
X123708000Y-62312000D03*
X123708000Y-64852000D03*
X123708000Y-67392000D03*
X131328000Y-67392000D03*
X131328000Y-64852000D03*
X131328000Y-62312000D03*
X131328000Y-59772000D03*
%TD*%
D12*
%TO.C,J1*%
X58046000Y-68503000D03*
D13*
X58046000Y-65963000D03*
X58046000Y-63423000D03*
X58046000Y-60883000D03*
D14*
X58046000Y-58343000D03*
%TD*%
D10*
%TO.C,U1*%
X74292000Y-81428000D03*
D11*
X74292000Y-78888000D03*
X74292000Y-76348000D03*
X74292000Y-73808000D03*
X66672000Y-73808000D03*
X66672000Y-76348000D03*
X66672000Y-78888000D03*
X66672000Y-81428000D03*
%TD*%
D12*
%TO.C,J1*%
X139954000Y-72697000D03*
D13*
X139954000Y-75237000D03*
X139954000Y-77777000D03*
X139954000Y-80317000D03*
D14*
X139954000Y-82857000D03*
%TD*%
D10*
%TO.C,U1*%
X123708000Y-73972000D03*
D11*
X123708000Y-76512000D03*
X123708000Y-79052000D03*
X123708000Y-81592000D03*
X131328000Y-81592000D03*
X131328000Y-79052000D03*
X131328000Y-76512000D03*
X131328000Y-73972000D03*
%TD*%
D12*
%TO.C,J1*%
X58046000Y-82703000D03*
D13*
X58046000Y-80163000D03*
X58046000Y-77623000D03*
X58046000Y-75083000D03*
D14*
X58046000Y-72543000D03*
%TD*%
D10*
%TO.C,U1*%
X74292000Y-95628000D03*
D11*
X74292000Y-93088000D03*
X74292000Y-90548000D03*
X74292000Y-88008000D03*
X66672000Y-88008000D03*
X66672000Y-90548000D03*
X66672000Y-93088000D03*
X66672000Y-95628000D03*
%TD*%
D12*
%TO.C,J1*%
X139954000Y-86897000D03*
D13*
X139954000Y-89437000D03*
X139954000Y-91977000D03*
X139954000Y-94517000D03*
D14*
X139954000Y-97057000D03*
%TD*%
D10*
%TO.C,U1*%
X123708000Y-88172000D03*
D11*
X123708000Y-90712000D03*
X123708000Y-93252000D03*
X123708000Y-95792000D03*
X131328000Y-95792000D03*
X131328000Y-93252000D03*
X131328000Y-90712000D03*
X131328000Y-88172000D03*
%TD*%
D12*
%TO.C,J1*%
X58046000Y-96903000D03*
D13*
X58046000Y-94363000D03*
X58046000Y-91823000D03*
X58046000Y-89283000D03*
D14*
X58046000Y-86743000D03*
%TD*%
D12*
%TO.C,J1*%
X58046000Y-111103000D03*
D13*
X58046000Y-108563000D03*
X58046000Y-106023000D03*
X58046000Y-103483000D03*
D14*
X58046000Y-100943000D03*
%TD*%
D10*
%TO.C,U1*%
X74292000Y-109828000D03*
D11*
X74292000Y-107288000D03*
X74292000Y-104748000D03*
X74292000Y-102208000D03*
X66672000Y-102208000D03*
X66672000Y-104748000D03*
X66672000Y-107288000D03*
X66672000Y-109828000D03*
%TD*%
D10*
%TO.C,U1*%
X123708000Y-102372000D03*
D11*
X123708000Y-104912000D03*
X123708000Y-107452000D03*
X123708000Y-109992000D03*
X131328000Y-109992000D03*
X131328000Y-107452000D03*
X131328000Y-104912000D03*
X131328000Y-102372000D03*
%TD*%
D12*
%TO.C,J1*%
X139954000Y-101097000D03*
D13*
X139954000Y-103637000D03*
X139954000Y-106177000D03*
X139954000Y-108717000D03*
D14*
X139954000Y-111257000D03*
%TD*%
M02*
