M48
; DRILL file {KiCad 7.0.7} date Mo 18 Sep 2023 18:07:23 CEST
; FORMAT={-:-/ absolute / inch / decimal}
; #@! TF.CreationDate,2023-09-18T18:07:23+02:00
; #@! TF.GenerationSoftware,Kicad,Pcbnew,7.0.7
; #@! TF.FileFunction,Plated,1,2,PTH
FMAT,2
INCH
; #@! TA.AperFunction,Plated,PTH,ViaDrill
T1C0.0157
; #@! TA.AperFunction,Plated,PTH,ComponentDrill
T2C0.0315
; #@! TA.AperFunction,Plated,PTH,ComponentDrill
T3C0.0394
%
G90
G05
T1
X2.3858Y-2.1339
X2.3858Y-2.6929
X2.3858Y-3.252
X2.3858Y-3.811
X2.3858Y-4.3701
X3.0787Y-2.063
X3.0787Y-2.622
X3.0787Y-3.1811
X3.0787Y-3.7402
X3.0787Y-4.2992
X4.7165Y-1.8189
X4.7165Y-2.378
X4.7165Y-2.937
X4.7165Y-3.4961
X4.7165Y-4.0551
X5.4094Y-1.748
X5.4094Y-2.3071
X5.4094Y-2.8661
X5.4094Y-3.4252
X5.4094Y-3.9843
T2
X2.6249Y-1.7877
X2.6249Y-1.8877
X2.6249Y-1.9877
X2.6249Y-2.0877
X2.6249Y-2.3468
X2.6249Y-2.4468
X2.6249Y-2.5468
X2.6249Y-2.6468
X2.6249Y-2.9058
X2.6249Y-3.0058
X2.6249Y-3.1058
X2.6249Y-3.2058
X2.6249Y-3.4649
X2.6249Y-3.5649
X2.6249Y-3.6649
X2.6249Y-3.7649
X2.6249Y-4.0239
X2.6249Y-4.1239
X2.6249Y-4.2239
X2.6249Y-4.3239
X2.9249Y-1.7877
X2.9249Y-1.8877
X2.9249Y-1.9877
X2.9249Y-2.0877
X2.9249Y-2.3468
X2.9249Y-2.4468
X2.9249Y-2.5468
X2.9249Y-2.6468
X2.9249Y-2.9058
X2.9249Y-3.0058
X2.9249Y-3.1058
X2.9249Y-3.2058
X2.9249Y-3.4649
X2.9249Y-3.5649
X2.9249Y-3.6649
X2.9249Y-3.7649
X2.9249Y-4.0239
X2.9249Y-4.1239
X2.9249Y-4.2239
X2.9249Y-4.3239
X4.8704Y-1.7942
X4.8704Y-1.8942
X4.8704Y-1.9942
X4.8704Y-2.0942
X4.8704Y-2.3532
X4.8704Y-2.4532
X4.8704Y-2.5532
X4.8704Y-2.6532
X4.8704Y-2.9123
X4.8704Y-3.0123
X4.8704Y-3.1123
X4.8704Y-3.2123
X4.8704Y-3.4713
X4.8704Y-3.5713
X4.8704Y-3.6713
X4.8704Y-3.7713
X4.8704Y-4.0304
X4.8704Y-4.1304
X4.8704Y-4.2304
X4.8704Y-4.3304
X5.1704Y-1.7942
X5.1704Y-1.8942
X5.1704Y-1.9942
X5.1704Y-2.0942
X5.1704Y-2.3532
X5.1704Y-2.4532
X5.1704Y-2.5532
X5.1704Y-2.6532
X5.1704Y-2.9123
X5.1704Y-3.0123
X5.1704Y-3.1123
X5.1704Y-3.2123
X5.1704Y-3.4713
X5.1704Y-3.5713
X5.1704Y-3.6713
X5.1704Y-3.7713
X5.1704Y-4.0304
X5.1704Y-4.1304
X5.1704Y-4.2304
X5.1704Y-4.3304
T3
X2.2853Y-1.7379
X2.2853Y-1.8379
X2.2853Y-1.9379
X2.2853Y-2.0379
X2.2853Y-2.1379
X2.2853Y-2.297
X2.2853Y-2.397
X2.2853Y-2.497
X2.2853Y-2.597
X2.2853Y-2.697
X2.2853Y-2.856
X2.2853Y-2.956
X2.2853Y-3.056
X2.2853Y-3.156
X2.2853Y-3.256
X2.2853Y-3.4151
X2.2853Y-3.5151
X2.2853Y-3.6151
X2.2853Y-3.7151
X2.2853Y-3.8151
X2.2853Y-3.9741
X2.2853Y-4.0741
X2.2853Y-4.1741
X2.2853Y-4.2741
X2.2853Y-4.3741
X5.51Y-1.744
X5.51Y-1.844
X5.51Y-1.944
X5.51Y-2.044
X5.51Y-2.144
X5.51Y-2.303
X5.51Y-2.403
X5.51Y-2.503
X5.51Y-2.603
X5.51Y-2.703
X5.51Y-2.8621
X5.51Y-2.9621
X5.51Y-3.0621
X5.51Y-3.1621
X5.51Y-3.2621
X5.51Y-3.4211
X5.51Y-3.5211
X5.51Y-3.6211
X5.51Y-3.7211
X5.51Y-3.8211
X5.51Y-3.9802
X5.51Y-4.0802
X5.51Y-4.1802
X5.51Y-4.2802
X5.51Y-4.3802
T0
M30
