%TF.GenerationSoftware,KiCad,Pcbnew,7.0.7*%
%TF.CreationDate,2023-09-18T18:06:58+02:00*%
%TF.ProjectId,attiny-usb_panel,61747469-6e79-42d7-9573-625f70616e65,rev?*%
%TF.SameCoordinates,Original*%
%TF.FileFunction,Legend,Top*%
%TF.FilePolarity,Positive*%
%FSLAX46Y46*%
G04 Gerber Fmt 4.6, Leading zero omitted, Abs format (unit mm)*
G04 Created by KiCad (PCBNEW 7.0.7) date 2023-09-18 18:06:58*
%MOMM*%
%LPD*%
G01*
G04 APERTURE LIST*
%ADD10C,0.100000*%
%ADD11C,0.150000*%
%ADD12C,0.120000*%
G04 APERTURE END LIST*
D10*
X95085904Y-50286580D02*
X95085904Y-49477057D01*
X95085904Y-49477057D02*
X95038285Y-49381819D01*
X95038285Y-49381819D02*
X94990666Y-49334200D01*
X94990666Y-49334200D02*
X94895428Y-49286580D01*
X94895428Y-49286580D02*
X94704952Y-49286580D01*
X94704952Y-49286580D02*
X94609714Y-49334200D01*
X94609714Y-49334200D02*
X94562095Y-49381819D01*
X94562095Y-49381819D02*
X94514476Y-49477057D01*
X94514476Y-49477057D02*
X94514476Y-50286580D01*
X94085904Y-50191342D02*
X94038285Y-50238961D01*
X94038285Y-50238961D02*
X93943047Y-50286580D01*
X93943047Y-50286580D02*
X93704952Y-50286580D01*
X93704952Y-50286580D02*
X93609714Y-50238961D01*
X93609714Y-50238961D02*
X93562095Y-50191342D01*
X93562095Y-50191342D02*
X93514476Y-50096104D01*
X93514476Y-50096104D02*
X93514476Y-50000866D01*
X93514476Y-50000866D02*
X93562095Y-49858009D01*
X93562095Y-49858009D02*
X94133523Y-49286580D01*
X94133523Y-49286580D02*
X93514476Y-49286580D01*
X90020115Y-49871580D02*
X90020115Y-49062057D01*
X90020115Y-49062057D02*
X89972496Y-48966819D01*
X89972496Y-48966819D02*
X89924877Y-48919200D01*
X89924877Y-48919200D02*
X89829639Y-48871580D01*
X89829639Y-48871580D02*
X89639163Y-48871580D01*
X89639163Y-48871580D02*
X89543925Y-48919200D01*
X89543925Y-48919200D02*
X89496306Y-48966819D01*
X89496306Y-48966819D02*
X89448687Y-49062057D01*
X89448687Y-49062057D02*
X89448687Y-49871580D01*
X89020115Y-48919200D02*
X88877258Y-48871580D01*
X88877258Y-48871580D02*
X88639163Y-48871580D01*
X88639163Y-48871580D02*
X88543925Y-48919200D01*
X88543925Y-48919200D02*
X88496306Y-48966819D01*
X88496306Y-48966819D02*
X88448687Y-49062057D01*
X88448687Y-49062057D02*
X88448687Y-49157295D01*
X88448687Y-49157295D02*
X88496306Y-49252533D01*
X88496306Y-49252533D02*
X88543925Y-49300152D01*
X88543925Y-49300152D02*
X88639163Y-49347771D01*
X88639163Y-49347771D02*
X88829639Y-49395390D01*
X88829639Y-49395390D02*
X88924877Y-49443009D01*
X88924877Y-49443009D02*
X88972496Y-49490628D01*
X88972496Y-49490628D02*
X89020115Y-49585866D01*
X89020115Y-49585866D02*
X89020115Y-49681104D01*
X89020115Y-49681104D02*
X88972496Y-49776342D01*
X88972496Y-49776342D02*
X88924877Y-49823961D01*
X88924877Y-49823961D02*
X88829639Y-49871580D01*
X88829639Y-49871580D02*
X88591544Y-49871580D01*
X88591544Y-49871580D02*
X88448687Y-49823961D01*
X87686782Y-49395390D02*
X87543925Y-49347771D01*
X87543925Y-49347771D02*
X87496306Y-49300152D01*
X87496306Y-49300152D02*
X87448687Y-49204914D01*
X87448687Y-49204914D02*
X87448687Y-49062057D01*
X87448687Y-49062057D02*
X87496306Y-48966819D01*
X87496306Y-48966819D02*
X87543925Y-48919200D01*
X87543925Y-48919200D02*
X87639163Y-48871580D01*
X87639163Y-48871580D02*
X88020115Y-48871580D01*
X88020115Y-48871580D02*
X88020115Y-49871580D01*
X88020115Y-49871580D02*
X87686782Y-49871580D01*
X87686782Y-49871580D02*
X87591544Y-49823961D01*
X87591544Y-49823961D02*
X87543925Y-49776342D01*
X87543925Y-49776342D02*
X87496306Y-49681104D01*
X87496306Y-49681104D02*
X87496306Y-49585866D01*
X87496306Y-49585866D02*
X87543925Y-49490628D01*
X87543925Y-49490628D02*
X87591544Y-49443009D01*
X87591544Y-49443009D02*
X87686782Y-49395390D01*
X87686782Y-49395390D02*
X88020115Y-49395390D01*
D11*
X79405905Y-47364819D02*
X79405905Y-46364819D01*
X79405905Y-46364819D02*
X79644000Y-46364819D01*
X79644000Y-46364819D02*
X79786857Y-46412438D01*
X79786857Y-46412438D02*
X79882095Y-46507676D01*
X79882095Y-46507676D02*
X79929714Y-46602914D01*
X79929714Y-46602914D02*
X79977333Y-46793390D01*
X79977333Y-46793390D02*
X79977333Y-46936247D01*
X79977333Y-46936247D02*
X79929714Y-47126723D01*
X79929714Y-47126723D02*
X79882095Y-47221961D01*
X79882095Y-47221961D02*
X79786857Y-47317200D01*
X79786857Y-47317200D02*
X79644000Y-47364819D01*
X79644000Y-47364819D02*
X79405905Y-47364819D01*
X80358286Y-46460057D02*
X80405905Y-46412438D01*
X80405905Y-46412438D02*
X80501143Y-46364819D01*
X80501143Y-46364819D02*
X80739238Y-46364819D01*
X80739238Y-46364819D02*
X80834476Y-46412438D01*
X80834476Y-46412438D02*
X80882095Y-46460057D01*
X80882095Y-46460057D02*
X80929714Y-46555295D01*
X80929714Y-46555295D02*
X80929714Y-46650533D01*
X80929714Y-46650533D02*
X80882095Y-46793390D01*
X80882095Y-46793390D02*
X80310667Y-47364819D01*
X80310667Y-47364819D02*
X80929714Y-47364819D01*
X82758819Y-46108666D02*
X82282628Y-46441999D01*
X82758819Y-46680094D02*
X81758819Y-46680094D01*
X81758819Y-46680094D02*
X81758819Y-46299142D01*
X81758819Y-46299142D02*
X81806438Y-46203904D01*
X81806438Y-46203904D02*
X81854057Y-46156285D01*
X81854057Y-46156285D02*
X81949295Y-46108666D01*
X81949295Y-46108666D02*
X82092152Y-46108666D01*
X82092152Y-46108666D02*
X82187390Y-46156285D01*
X82187390Y-46156285D02*
X82235009Y-46203904D01*
X82235009Y-46203904D02*
X82282628Y-46299142D01*
X82282628Y-46299142D02*
X82282628Y-46680094D01*
X82758819Y-45156285D02*
X82758819Y-45727713D01*
X82758819Y-45441999D02*
X81758819Y-45441999D01*
X81758819Y-45441999D02*
X81901676Y-45537237D01*
X81901676Y-45537237D02*
X81996914Y-45632475D01*
X81996914Y-45632475D02*
X82044533Y-45727713D01*
X82755333Y-55142819D02*
X82422000Y-54666628D01*
X82183905Y-55142819D02*
X82183905Y-54142819D01*
X82183905Y-54142819D02*
X82564857Y-54142819D01*
X82564857Y-54142819D02*
X82660095Y-54190438D01*
X82660095Y-54190438D02*
X82707714Y-54238057D01*
X82707714Y-54238057D02*
X82755333Y-54333295D01*
X82755333Y-54333295D02*
X82755333Y-54476152D01*
X82755333Y-54476152D02*
X82707714Y-54571390D01*
X82707714Y-54571390D02*
X82660095Y-54619009D01*
X82660095Y-54619009D02*
X82564857Y-54666628D01*
X82564857Y-54666628D02*
X82183905Y-54666628D01*
X83612476Y-54476152D02*
X83612476Y-55142819D01*
X83374381Y-54095200D02*
X83136286Y-54809485D01*
X83136286Y-54809485D02*
X83755333Y-54809485D01*
X63213333Y-52858819D02*
X62880000Y-52382628D01*
X62641905Y-52858819D02*
X62641905Y-51858819D01*
X62641905Y-51858819D02*
X63022857Y-51858819D01*
X63022857Y-51858819D02*
X63118095Y-51906438D01*
X63118095Y-51906438D02*
X63165714Y-51954057D01*
X63165714Y-51954057D02*
X63213333Y-52049295D01*
X63213333Y-52049295D02*
X63213333Y-52192152D01*
X63213333Y-52192152D02*
X63165714Y-52287390D01*
X63165714Y-52287390D02*
X63118095Y-52335009D01*
X63118095Y-52335009D02*
X63022857Y-52382628D01*
X63022857Y-52382628D02*
X62641905Y-52382628D01*
X63546667Y-51858819D02*
X64165714Y-51858819D01*
X64165714Y-51858819D02*
X63832381Y-52239771D01*
X63832381Y-52239771D02*
X63975238Y-52239771D01*
X63975238Y-52239771D02*
X64070476Y-52287390D01*
X64070476Y-52287390D02*
X64118095Y-52335009D01*
X64118095Y-52335009D02*
X64165714Y-52430247D01*
X64165714Y-52430247D02*
X64165714Y-52668342D01*
X64165714Y-52668342D02*
X64118095Y-52763580D01*
X64118095Y-52763580D02*
X64070476Y-52811200D01*
X64070476Y-52811200D02*
X63975238Y-52858819D01*
X63975238Y-52858819D02*
X63689524Y-52858819D01*
X63689524Y-52858819D02*
X63594286Y-52811200D01*
X63594286Y-52811200D02*
X63546667Y-52763580D01*
X86058819Y-50172666D02*
X85582628Y-50505999D01*
X86058819Y-50744094D02*
X85058819Y-50744094D01*
X85058819Y-50744094D02*
X85058819Y-50363142D01*
X85058819Y-50363142D02*
X85106438Y-50267904D01*
X85106438Y-50267904D02*
X85154057Y-50220285D01*
X85154057Y-50220285D02*
X85249295Y-50172666D01*
X85249295Y-50172666D02*
X85392152Y-50172666D01*
X85392152Y-50172666D02*
X85487390Y-50220285D01*
X85487390Y-50220285D02*
X85535009Y-50267904D01*
X85535009Y-50267904D02*
X85582628Y-50363142D01*
X85582628Y-50363142D02*
X85582628Y-50744094D01*
X85154057Y-49791713D02*
X85106438Y-49744094D01*
X85106438Y-49744094D02*
X85058819Y-49648856D01*
X85058819Y-49648856D02*
X85058819Y-49410761D01*
X85058819Y-49410761D02*
X85106438Y-49315523D01*
X85106438Y-49315523D02*
X85154057Y-49267904D01*
X85154057Y-49267904D02*
X85249295Y-49220285D01*
X85249295Y-49220285D02*
X85344533Y-49220285D01*
X85344533Y-49220285D02*
X85487390Y-49267904D01*
X85487390Y-49267904D02*
X86058819Y-49839332D01*
X86058819Y-49839332D02*
X86058819Y-49220285D01*
X69720095Y-54812819D02*
X69720095Y-55622342D01*
X69720095Y-55622342D02*
X69767714Y-55717580D01*
X69767714Y-55717580D02*
X69815333Y-55765200D01*
X69815333Y-55765200D02*
X69910571Y-55812819D01*
X69910571Y-55812819D02*
X70101047Y-55812819D01*
X70101047Y-55812819D02*
X70196285Y-55765200D01*
X70196285Y-55765200D02*
X70243904Y-55717580D01*
X70243904Y-55717580D02*
X70291523Y-55622342D01*
X70291523Y-55622342D02*
X70291523Y-54812819D01*
X71291523Y-55812819D02*
X70720095Y-55812819D01*
X71005809Y-55812819D02*
X71005809Y-54812819D01*
X71005809Y-54812819D02*
X70910571Y-54955676D01*
X70910571Y-54955676D02*
X70815333Y-55050914D01*
X70815333Y-55050914D02*
X70720095Y-55098533D01*
X77373905Y-55746819D02*
X77373905Y-54746819D01*
X77373905Y-54746819D02*
X77612000Y-54746819D01*
X77612000Y-54746819D02*
X77754857Y-54794438D01*
X77754857Y-54794438D02*
X77850095Y-54889676D01*
X77850095Y-54889676D02*
X77897714Y-54984914D01*
X77897714Y-54984914D02*
X77945333Y-55175390D01*
X77945333Y-55175390D02*
X77945333Y-55318247D01*
X77945333Y-55318247D02*
X77897714Y-55508723D01*
X77897714Y-55508723D02*
X77850095Y-55603961D01*
X77850095Y-55603961D02*
X77754857Y-55699200D01*
X77754857Y-55699200D02*
X77612000Y-55746819D01*
X77612000Y-55746819D02*
X77373905Y-55746819D01*
X78897714Y-55746819D02*
X78326286Y-55746819D01*
X78612000Y-55746819D02*
X78612000Y-54746819D01*
X78612000Y-54746819D02*
X78516762Y-54889676D01*
X78516762Y-54889676D02*
X78421524Y-54984914D01*
X78421524Y-54984914D02*
X78326286Y-55032533D01*
X66064819Y-50130094D02*
X65064819Y-50130094D01*
X65064819Y-50130094D02*
X65064819Y-49891999D01*
X65064819Y-49891999D02*
X65112438Y-49749142D01*
X65112438Y-49749142D02*
X65207676Y-49653904D01*
X65207676Y-49653904D02*
X65302914Y-49606285D01*
X65302914Y-49606285D02*
X65493390Y-49558666D01*
X65493390Y-49558666D02*
X65636247Y-49558666D01*
X65636247Y-49558666D02*
X65826723Y-49606285D01*
X65826723Y-49606285D02*
X65921961Y-49653904D01*
X65921961Y-49653904D02*
X66017200Y-49749142D01*
X66017200Y-49749142D02*
X66064819Y-49891999D01*
X66064819Y-49891999D02*
X66064819Y-50130094D01*
X65064819Y-49225332D02*
X65064819Y-48606285D01*
X65064819Y-48606285D02*
X65445771Y-48939618D01*
X65445771Y-48939618D02*
X65445771Y-48796761D01*
X65445771Y-48796761D02*
X65493390Y-48701523D01*
X65493390Y-48701523D02*
X65541009Y-48653904D01*
X65541009Y-48653904D02*
X65636247Y-48606285D01*
X65636247Y-48606285D02*
X65874342Y-48606285D01*
X65874342Y-48606285D02*
X65969580Y-48653904D01*
X65969580Y-48653904D02*
X66017200Y-48701523D01*
X66017200Y-48701523D02*
X66064819Y-48796761D01*
X66064819Y-48796761D02*
X66064819Y-49082475D01*
X66064819Y-49082475D02*
X66017200Y-49177713D01*
X66017200Y-49177713D02*
X65969580Y-49225332D01*
X61943333Y-46865580D02*
X61895714Y-46913200D01*
X61895714Y-46913200D02*
X61752857Y-46960819D01*
X61752857Y-46960819D02*
X61657619Y-46960819D01*
X61657619Y-46960819D02*
X61514762Y-46913200D01*
X61514762Y-46913200D02*
X61419524Y-46817961D01*
X61419524Y-46817961D02*
X61371905Y-46722723D01*
X61371905Y-46722723D02*
X61324286Y-46532247D01*
X61324286Y-46532247D02*
X61324286Y-46389390D01*
X61324286Y-46389390D02*
X61371905Y-46198914D01*
X61371905Y-46198914D02*
X61419524Y-46103676D01*
X61419524Y-46103676D02*
X61514762Y-46008438D01*
X61514762Y-46008438D02*
X61657619Y-45960819D01*
X61657619Y-45960819D02*
X61752857Y-45960819D01*
X61752857Y-45960819D02*
X61895714Y-46008438D01*
X61895714Y-46008438D02*
X61943333Y-46056057D01*
X62895714Y-46960819D02*
X62324286Y-46960819D01*
X62610000Y-46960819D02*
X62610000Y-45960819D01*
X62610000Y-45960819D02*
X62514762Y-46103676D01*
X62514762Y-46103676D02*
X62419524Y-46198914D01*
X62419524Y-46198914D02*
X62324286Y-46246533D01*
X117117905Y-52144819D02*
X117117905Y-51144819D01*
X117117905Y-51144819D02*
X117356000Y-51144819D01*
X117356000Y-51144819D02*
X117498857Y-51192438D01*
X117498857Y-51192438D02*
X117594095Y-51287676D01*
X117594095Y-51287676D02*
X117641714Y-51382914D01*
X117641714Y-51382914D02*
X117689333Y-51573390D01*
X117689333Y-51573390D02*
X117689333Y-51716247D01*
X117689333Y-51716247D02*
X117641714Y-51906723D01*
X117641714Y-51906723D02*
X117594095Y-52001961D01*
X117594095Y-52001961D02*
X117498857Y-52097200D01*
X117498857Y-52097200D02*
X117356000Y-52144819D01*
X117356000Y-52144819D02*
X117117905Y-52144819D01*
X118070286Y-51240057D02*
X118117905Y-51192438D01*
X118117905Y-51192438D02*
X118213143Y-51144819D01*
X118213143Y-51144819D02*
X118451238Y-51144819D01*
X118451238Y-51144819D02*
X118546476Y-51192438D01*
X118546476Y-51192438D02*
X118594095Y-51240057D01*
X118594095Y-51240057D02*
X118641714Y-51335295D01*
X118641714Y-51335295D02*
X118641714Y-51430533D01*
X118641714Y-51430533D02*
X118594095Y-51573390D01*
X118594095Y-51573390D02*
X118022667Y-52144819D01*
X118022667Y-52144819D02*
X118641714Y-52144819D01*
X114911333Y-44366819D02*
X114578000Y-43890628D01*
X114339905Y-44366819D02*
X114339905Y-43366819D01*
X114339905Y-43366819D02*
X114720857Y-43366819D01*
X114720857Y-43366819D02*
X114816095Y-43414438D01*
X114816095Y-43414438D02*
X114863714Y-43462057D01*
X114863714Y-43462057D02*
X114911333Y-43557295D01*
X114911333Y-43557295D02*
X114911333Y-43700152D01*
X114911333Y-43700152D02*
X114863714Y-43795390D01*
X114863714Y-43795390D02*
X114816095Y-43843009D01*
X114816095Y-43843009D02*
X114720857Y-43890628D01*
X114720857Y-43890628D02*
X114339905Y-43890628D01*
X115768476Y-43700152D02*
X115768476Y-44366819D01*
X115530381Y-43319200D02*
X115292286Y-44033485D01*
X115292286Y-44033485D02*
X115911333Y-44033485D01*
D10*
X102914095Y-48313419D02*
X102914095Y-49122942D01*
X102914095Y-49122942D02*
X102961714Y-49218180D01*
X102961714Y-49218180D02*
X103009333Y-49265800D01*
X103009333Y-49265800D02*
X103104571Y-49313419D01*
X103104571Y-49313419D02*
X103295047Y-49313419D01*
X103295047Y-49313419D02*
X103390285Y-49265800D01*
X103390285Y-49265800D02*
X103437904Y-49218180D01*
X103437904Y-49218180D02*
X103485523Y-49122942D01*
X103485523Y-49122942D02*
X103485523Y-48313419D01*
X103914095Y-48408657D02*
X103961714Y-48361038D01*
X103961714Y-48361038D02*
X104056952Y-48313419D01*
X104056952Y-48313419D02*
X104295047Y-48313419D01*
X104295047Y-48313419D02*
X104390285Y-48361038D01*
X104390285Y-48361038D02*
X104437904Y-48408657D01*
X104437904Y-48408657D02*
X104485523Y-48503895D01*
X104485523Y-48503895D02*
X104485523Y-48599133D01*
X104485523Y-48599133D02*
X104437904Y-48741990D01*
X104437904Y-48741990D02*
X103866476Y-49313419D01*
X103866476Y-49313419D02*
X104485523Y-49313419D01*
X107979884Y-48728419D02*
X107979884Y-49537942D01*
X107979884Y-49537942D02*
X108027503Y-49633180D01*
X108027503Y-49633180D02*
X108075122Y-49680800D01*
X108075122Y-49680800D02*
X108170360Y-49728419D01*
X108170360Y-49728419D02*
X108360836Y-49728419D01*
X108360836Y-49728419D02*
X108456074Y-49680800D01*
X108456074Y-49680800D02*
X108503693Y-49633180D01*
X108503693Y-49633180D02*
X108551312Y-49537942D01*
X108551312Y-49537942D02*
X108551312Y-48728419D01*
X108979884Y-49680800D02*
X109122741Y-49728419D01*
X109122741Y-49728419D02*
X109360836Y-49728419D01*
X109360836Y-49728419D02*
X109456074Y-49680800D01*
X109456074Y-49680800D02*
X109503693Y-49633180D01*
X109503693Y-49633180D02*
X109551312Y-49537942D01*
X109551312Y-49537942D02*
X109551312Y-49442704D01*
X109551312Y-49442704D02*
X109503693Y-49347466D01*
X109503693Y-49347466D02*
X109456074Y-49299847D01*
X109456074Y-49299847D02*
X109360836Y-49252228D01*
X109360836Y-49252228D02*
X109170360Y-49204609D01*
X109170360Y-49204609D02*
X109075122Y-49156990D01*
X109075122Y-49156990D02*
X109027503Y-49109371D01*
X109027503Y-49109371D02*
X108979884Y-49014133D01*
X108979884Y-49014133D02*
X108979884Y-48918895D01*
X108979884Y-48918895D02*
X109027503Y-48823657D01*
X109027503Y-48823657D02*
X109075122Y-48776038D01*
X109075122Y-48776038D02*
X109170360Y-48728419D01*
X109170360Y-48728419D02*
X109408455Y-48728419D01*
X109408455Y-48728419D02*
X109551312Y-48776038D01*
X110313217Y-49204609D02*
X110456074Y-49252228D01*
X110456074Y-49252228D02*
X110503693Y-49299847D01*
X110503693Y-49299847D02*
X110551312Y-49395085D01*
X110551312Y-49395085D02*
X110551312Y-49537942D01*
X110551312Y-49537942D02*
X110503693Y-49633180D01*
X110503693Y-49633180D02*
X110456074Y-49680800D01*
X110456074Y-49680800D02*
X110360836Y-49728419D01*
X110360836Y-49728419D02*
X109979884Y-49728419D01*
X109979884Y-49728419D02*
X109979884Y-48728419D01*
X109979884Y-48728419D02*
X110313217Y-48728419D01*
X110313217Y-48728419D02*
X110408455Y-48776038D01*
X110408455Y-48776038D02*
X110456074Y-48823657D01*
X110456074Y-48823657D02*
X110503693Y-48918895D01*
X110503693Y-48918895D02*
X110503693Y-49014133D01*
X110503693Y-49014133D02*
X110456074Y-49109371D01*
X110456074Y-49109371D02*
X110408455Y-49156990D01*
X110408455Y-49156990D02*
X110313217Y-49204609D01*
X110313217Y-49204609D02*
X109979884Y-49204609D01*
D11*
X116150819Y-52824666D02*
X115674628Y-53157999D01*
X116150819Y-53396094D02*
X115150819Y-53396094D01*
X115150819Y-53396094D02*
X115150819Y-53015142D01*
X115150819Y-53015142D02*
X115198438Y-52919904D01*
X115198438Y-52919904D02*
X115246057Y-52872285D01*
X115246057Y-52872285D02*
X115341295Y-52824666D01*
X115341295Y-52824666D02*
X115484152Y-52824666D01*
X115484152Y-52824666D02*
X115579390Y-52872285D01*
X115579390Y-52872285D02*
X115627009Y-52919904D01*
X115627009Y-52919904D02*
X115674628Y-53015142D01*
X115674628Y-53015142D02*
X115674628Y-53396094D01*
X116150819Y-51872285D02*
X116150819Y-52443713D01*
X116150819Y-52157999D02*
X115150819Y-52157999D01*
X115150819Y-52157999D02*
X115293676Y-52253237D01*
X115293676Y-52253237D02*
X115388914Y-52348475D01*
X115388914Y-52348475D02*
X115436533Y-52443713D01*
X135723333Y-52453580D02*
X135675714Y-52501200D01*
X135675714Y-52501200D02*
X135532857Y-52548819D01*
X135532857Y-52548819D02*
X135437619Y-52548819D01*
X135437619Y-52548819D02*
X135294762Y-52501200D01*
X135294762Y-52501200D02*
X135199524Y-52405961D01*
X135199524Y-52405961D02*
X135151905Y-52310723D01*
X135151905Y-52310723D02*
X135104286Y-52120247D01*
X135104286Y-52120247D02*
X135104286Y-51977390D01*
X135104286Y-51977390D02*
X135151905Y-51786914D01*
X135151905Y-51786914D02*
X135199524Y-51691676D01*
X135199524Y-51691676D02*
X135294762Y-51596438D01*
X135294762Y-51596438D02*
X135437619Y-51548819D01*
X135437619Y-51548819D02*
X135532857Y-51548819D01*
X135532857Y-51548819D02*
X135675714Y-51596438D01*
X135675714Y-51596438D02*
X135723333Y-51644057D01*
X136675714Y-52548819D02*
X136104286Y-52548819D01*
X136390000Y-52548819D02*
X136390000Y-51548819D01*
X136390000Y-51548819D02*
X136294762Y-51691676D01*
X136294762Y-51691676D02*
X136199524Y-51786914D01*
X136199524Y-51786914D02*
X136104286Y-51834533D01*
X132844819Y-49946094D02*
X131844819Y-49946094D01*
X131844819Y-49946094D02*
X131844819Y-49707999D01*
X131844819Y-49707999D02*
X131892438Y-49565142D01*
X131892438Y-49565142D02*
X131987676Y-49469904D01*
X131987676Y-49469904D02*
X132082914Y-49422285D01*
X132082914Y-49422285D02*
X132273390Y-49374666D01*
X132273390Y-49374666D02*
X132416247Y-49374666D01*
X132416247Y-49374666D02*
X132606723Y-49422285D01*
X132606723Y-49422285D02*
X132701961Y-49469904D01*
X132701961Y-49469904D02*
X132797200Y-49565142D01*
X132797200Y-49565142D02*
X132844819Y-49707999D01*
X132844819Y-49707999D02*
X132844819Y-49946094D01*
X131844819Y-49041332D02*
X131844819Y-48422285D01*
X131844819Y-48422285D02*
X132225771Y-48755618D01*
X132225771Y-48755618D02*
X132225771Y-48612761D01*
X132225771Y-48612761D02*
X132273390Y-48517523D01*
X132273390Y-48517523D02*
X132321009Y-48469904D01*
X132321009Y-48469904D02*
X132416247Y-48422285D01*
X132416247Y-48422285D02*
X132654342Y-48422285D01*
X132654342Y-48422285D02*
X132749580Y-48469904D01*
X132749580Y-48469904D02*
X132797200Y-48517523D01*
X132797200Y-48517523D02*
X132844819Y-48612761D01*
X132844819Y-48612761D02*
X132844819Y-48898475D01*
X132844819Y-48898475D02*
X132797200Y-48993713D01*
X132797200Y-48993713D02*
X132749580Y-49041332D01*
X134453333Y-46650819D02*
X134120000Y-46174628D01*
X133881905Y-46650819D02*
X133881905Y-45650819D01*
X133881905Y-45650819D02*
X134262857Y-45650819D01*
X134262857Y-45650819D02*
X134358095Y-45698438D01*
X134358095Y-45698438D02*
X134405714Y-45746057D01*
X134405714Y-45746057D02*
X134453333Y-45841295D01*
X134453333Y-45841295D02*
X134453333Y-45984152D01*
X134453333Y-45984152D02*
X134405714Y-46079390D01*
X134405714Y-46079390D02*
X134358095Y-46127009D01*
X134358095Y-46127009D02*
X134262857Y-46174628D01*
X134262857Y-46174628D02*
X133881905Y-46174628D01*
X134786667Y-45650819D02*
X135405714Y-45650819D01*
X135405714Y-45650819D02*
X135072381Y-46031771D01*
X135072381Y-46031771D02*
X135215238Y-46031771D01*
X135215238Y-46031771D02*
X135310476Y-46079390D01*
X135310476Y-46079390D02*
X135358095Y-46127009D01*
X135358095Y-46127009D02*
X135405714Y-46222247D01*
X135405714Y-46222247D02*
X135405714Y-46460342D01*
X135405714Y-46460342D02*
X135358095Y-46555580D01*
X135358095Y-46555580D02*
X135310476Y-46603200D01*
X135310476Y-46603200D02*
X135215238Y-46650819D01*
X135215238Y-46650819D02*
X134929524Y-46650819D01*
X134929524Y-46650819D02*
X134834286Y-46603200D01*
X134834286Y-46603200D02*
X134786667Y-46555580D01*
X119667580Y-49284666D02*
X119715200Y-49332285D01*
X119715200Y-49332285D02*
X119762819Y-49475142D01*
X119762819Y-49475142D02*
X119762819Y-49570380D01*
X119762819Y-49570380D02*
X119715200Y-49713237D01*
X119715200Y-49713237D02*
X119619961Y-49808475D01*
X119619961Y-49808475D02*
X119524723Y-49856094D01*
X119524723Y-49856094D02*
X119334247Y-49903713D01*
X119334247Y-49903713D02*
X119191390Y-49903713D01*
X119191390Y-49903713D02*
X119000914Y-49856094D01*
X119000914Y-49856094D02*
X118905676Y-49808475D01*
X118905676Y-49808475D02*
X118810438Y-49713237D01*
X118810438Y-49713237D02*
X118762819Y-49570380D01*
X118762819Y-49570380D02*
X118762819Y-49475142D01*
X118762819Y-49475142D02*
X118810438Y-49332285D01*
X118810438Y-49332285D02*
X118858057Y-49284666D01*
X118858057Y-48903713D02*
X118810438Y-48856094D01*
X118810438Y-48856094D02*
X118762819Y-48760856D01*
X118762819Y-48760856D02*
X118762819Y-48522761D01*
X118762819Y-48522761D02*
X118810438Y-48427523D01*
X118810438Y-48427523D02*
X118858057Y-48379904D01*
X118858057Y-48379904D02*
X118953295Y-48332285D01*
X118953295Y-48332285D02*
X119048533Y-48332285D01*
X119048533Y-48332285D02*
X119191390Y-48379904D01*
X119191390Y-48379904D02*
X119762819Y-48951332D01*
X119762819Y-48951332D02*
X119762819Y-48332285D01*
X112850819Y-48760666D02*
X112374628Y-49093999D01*
X112850819Y-49332094D02*
X111850819Y-49332094D01*
X111850819Y-49332094D02*
X111850819Y-48951142D01*
X111850819Y-48951142D02*
X111898438Y-48855904D01*
X111898438Y-48855904D02*
X111946057Y-48808285D01*
X111946057Y-48808285D02*
X112041295Y-48760666D01*
X112041295Y-48760666D02*
X112184152Y-48760666D01*
X112184152Y-48760666D02*
X112279390Y-48808285D01*
X112279390Y-48808285D02*
X112327009Y-48855904D01*
X112327009Y-48855904D02*
X112374628Y-48951142D01*
X112374628Y-48951142D02*
X112374628Y-49332094D01*
X111946057Y-48379713D02*
X111898438Y-48332094D01*
X111898438Y-48332094D02*
X111850819Y-48236856D01*
X111850819Y-48236856D02*
X111850819Y-47998761D01*
X111850819Y-47998761D02*
X111898438Y-47903523D01*
X111898438Y-47903523D02*
X111946057Y-47855904D01*
X111946057Y-47855904D02*
X112041295Y-47808285D01*
X112041295Y-47808285D02*
X112136533Y-47808285D01*
X112136533Y-47808285D02*
X112279390Y-47855904D01*
X112279390Y-47855904D02*
X112850819Y-48427332D01*
X112850819Y-48427332D02*
X112850819Y-47808285D01*
X126756095Y-42696819D02*
X126756095Y-43506342D01*
X126756095Y-43506342D02*
X126803714Y-43601580D01*
X126803714Y-43601580D02*
X126851333Y-43649200D01*
X126851333Y-43649200D02*
X126946571Y-43696819D01*
X126946571Y-43696819D02*
X127137047Y-43696819D01*
X127137047Y-43696819D02*
X127232285Y-43649200D01*
X127232285Y-43649200D02*
X127279904Y-43601580D01*
X127279904Y-43601580D02*
X127327523Y-43506342D01*
X127327523Y-43506342D02*
X127327523Y-42696819D01*
X128327523Y-43696819D02*
X127756095Y-43696819D01*
X128041809Y-43696819D02*
X128041809Y-42696819D01*
X128041809Y-42696819D02*
X127946571Y-42839676D01*
X127946571Y-42839676D02*
X127851333Y-42934914D01*
X127851333Y-42934914D02*
X127756095Y-42982533D01*
X79051580Y-49648666D02*
X79099200Y-49696285D01*
X79099200Y-49696285D02*
X79146819Y-49839142D01*
X79146819Y-49839142D02*
X79146819Y-49934380D01*
X79146819Y-49934380D02*
X79099200Y-50077237D01*
X79099200Y-50077237D02*
X79003961Y-50172475D01*
X79003961Y-50172475D02*
X78908723Y-50220094D01*
X78908723Y-50220094D02*
X78718247Y-50267713D01*
X78718247Y-50267713D02*
X78575390Y-50267713D01*
X78575390Y-50267713D02*
X78384914Y-50220094D01*
X78384914Y-50220094D02*
X78289676Y-50172475D01*
X78289676Y-50172475D02*
X78194438Y-50077237D01*
X78194438Y-50077237D02*
X78146819Y-49934380D01*
X78146819Y-49934380D02*
X78146819Y-49839142D01*
X78146819Y-49839142D02*
X78194438Y-49696285D01*
X78194438Y-49696285D02*
X78242057Y-49648666D01*
X78242057Y-49267713D02*
X78194438Y-49220094D01*
X78194438Y-49220094D02*
X78146819Y-49124856D01*
X78146819Y-49124856D02*
X78146819Y-48886761D01*
X78146819Y-48886761D02*
X78194438Y-48791523D01*
X78194438Y-48791523D02*
X78242057Y-48743904D01*
X78242057Y-48743904D02*
X78337295Y-48696285D01*
X78337295Y-48696285D02*
X78432533Y-48696285D01*
X78432533Y-48696285D02*
X78575390Y-48743904D01*
X78575390Y-48743904D02*
X79146819Y-49315332D01*
X79146819Y-49315332D02*
X79146819Y-48696285D01*
X119149905Y-43762819D02*
X119149905Y-42762819D01*
X119149905Y-42762819D02*
X119388000Y-42762819D01*
X119388000Y-42762819D02*
X119530857Y-42810438D01*
X119530857Y-42810438D02*
X119626095Y-42905676D01*
X119626095Y-42905676D02*
X119673714Y-43000914D01*
X119673714Y-43000914D02*
X119721333Y-43191390D01*
X119721333Y-43191390D02*
X119721333Y-43334247D01*
X119721333Y-43334247D02*
X119673714Y-43524723D01*
X119673714Y-43524723D02*
X119626095Y-43619961D01*
X119626095Y-43619961D02*
X119530857Y-43715200D01*
X119530857Y-43715200D02*
X119388000Y-43762819D01*
X119388000Y-43762819D02*
X119149905Y-43762819D01*
X120673714Y-43762819D02*
X120102286Y-43762819D01*
X120388000Y-43762819D02*
X120388000Y-42762819D01*
X120388000Y-42762819D02*
X120292762Y-42905676D01*
X120292762Y-42905676D02*
X120197524Y-43000914D01*
X120197524Y-43000914D02*
X120102286Y-43048533D01*
D10*
X95085904Y-64486580D02*
X95085904Y-63677057D01*
X95085904Y-63677057D02*
X95038285Y-63581819D01*
X95038285Y-63581819D02*
X94990666Y-63534200D01*
X94990666Y-63534200D02*
X94895428Y-63486580D01*
X94895428Y-63486580D02*
X94704952Y-63486580D01*
X94704952Y-63486580D02*
X94609714Y-63534200D01*
X94609714Y-63534200D02*
X94562095Y-63581819D01*
X94562095Y-63581819D02*
X94514476Y-63677057D01*
X94514476Y-63677057D02*
X94514476Y-64486580D01*
X94085904Y-64391342D02*
X94038285Y-64438961D01*
X94038285Y-64438961D02*
X93943047Y-64486580D01*
X93943047Y-64486580D02*
X93704952Y-64486580D01*
X93704952Y-64486580D02*
X93609714Y-64438961D01*
X93609714Y-64438961D02*
X93562095Y-64391342D01*
X93562095Y-64391342D02*
X93514476Y-64296104D01*
X93514476Y-64296104D02*
X93514476Y-64200866D01*
X93514476Y-64200866D02*
X93562095Y-64058009D01*
X93562095Y-64058009D02*
X94133523Y-63486580D01*
X94133523Y-63486580D02*
X93514476Y-63486580D01*
X90020115Y-64071580D02*
X90020115Y-63262057D01*
X90020115Y-63262057D02*
X89972496Y-63166819D01*
X89972496Y-63166819D02*
X89924877Y-63119200D01*
X89924877Y-63119200D02*
X89829639Y-63071580D01*
X89829639Y-63071580D02*
X89639163Y-63071580D01*
X89639163Y-63071580D02*
X89543925Y-63119200D01*
X89543925Y-63119200D02*
X89496306Y-63166819D01*
X89496306Y-63166819D02*
X89448687Y-63262057D01*
X89448687Y-63262057D02*
X89448687Y-64071580D01*
X89020115Y-63119200D02*
X88877258Y-63071580D01*
X88877258Y-63071580D02*
X88639163Y-63071580D01*
X88639163Y-63071580D02*
X88543925Y-63119200D01*
X88543925Y-63119200D02*
X88496306Y-63166819D01*
X88496306Y-63166819D02*
X88448687Y-63262057D01*
X88448687Y-63262057D02*
X88448687Y-63357295D01*
X88448687Y-63357295D02*
X88496306Y-63452533D01*
X88496306Y-63452533D02*
X88543925Y-63500152D01*
X88543925Y-63500152D02*
X88639163Y-63547771D01*
X88639163Y-63547771D02*
X88829639Y-63595390D01*
X88829639Y-63595390D02*
X88924877Y-63643009D01*
X88924877Y-63643009D02*
X88972496Y-63690628D01*
X88972496Y-63690628D02*
X89020115Y-63785866D01*
X89020115Y-63785866D02*
X89020115Y-63881104D01*
X89020115Y-63881104D02*
X88972496Y-63976342D01*
X88972496Y-63976342D02*
X88924877Y-64023961D01*
X88924877Y-64023961D02*
X88829639Y-64071580D01*
X88829639Y-64071580D02*
X88591544Y-64071580D01*
X88591544Y-64071580D02*
X88448687Y-64023961D01*
X87686782Y-63595390D02*
X87543925Y-63547771D01*
X87543925Y-63547771D02*
X87496306Y-63500152D01*
X87496306Y-63500152D02*
X87448687Y-63404914D01*
X87448687Y-63404914D02*
X87448687Y-63262057D01*
X87448687Y-63262057D02*
X87496306Y-63166819D01*
X87496306Y-63166819D02*
X87543925Y-63119200D01*
X87543925Y-63119200D02*
X87639163Y-63071580D01*
X87639163Y-63071580D02*
X88020115Y-63071580D01*
X88020115Y-63071580D02*
X88020115Y-64071580D01*
X88020115Y-64071580D02*
X87686782Y-64071580D01*
X87686782Y-64071580D02*
X87591544Y-64023961D01*
X87591544Y-64023961D02*
X87543925Y-63976342D01*
X87543925Y-63976342D02*
X87496306Y-63881104D01*
X87496306Y-63881104D02*
X87496306Y-63785866D01*
X87496306Y-63785866D02*
X87543925Y-63690628D01*
X87543925Y-63690628D02*
X87591544Y-63643009D01*
X87591544Y-63643009D02*
X87686782Y-63595390D01*
X87686782Y-63595390D02*
X88020115Y-63595390D01*
D11*
X79405905Y-61564819D02*
X79405905Y-60564819D01*
X79405905Y-60564819D02*
X79644000Y-60564819D01*
X79644000Y-60564819D02*
X79786857Y-60612438D01*
X79786857Y-60612438D02*
X79882095Y-60707676D01*
X79882095Y-60707676D02*
X79929714Y-60802914D01*
X79929714Y-60802914D02*
X79977333Y-60993390D01*
X79977333Y-60993390D02*
X79977333Y-61136247D01*
X79977333Y-61136247D02*
X79929714Y-61326723D01*
X79929714Y-61326723D02*
X79882095Y-61421961D01*
X79882095Y-61421961D02*
X79786857Y-61517200D01*
X79786857Y-61517200D02*
X79644000Y-61564819D01*
X79644000Y-61564819D02*
X79405905Y-61564819D01*
X80358286Y-60660057D02*
X80405905Y-60612438D01*
X80405905Y-60612438D02*
X80501143Y-60564819D01*
X80501143Y-60564819D02*
X80739238Y-60564819D01*
X80739238Y-60564819D02*
X80834476Y-60612438D01*
X80834476Y-60612438D02*
X80882095Y-60660057D01*
X80882095Y-60660057D02*
X80929714Y-60755295D01*
X80929714Y-60755295D02*
X80929714Y-60850533D01*
X80929714Y-60850533D02*
X80882095Y-60993390D01*
X80882095Y-60993390D02*
X80310667Y-61564819D01*
X80310667Y-61564819D02*
X80929714Y-61564819D01*
X82758819Y-60308666D02*
X82282628Y-60641999D01*
X82758819Y-60880094D02*
X81758819Y-60880094D01*
X81758819Y-60880094D02*
X81758819Y-60499142D01*
X81758819Y-60499142D02*
X81806438Y-60403904D01*
X81806438Y-60403904D02*
X81854057Y-60356285D01*
X81854057Y-60356285D02*
X81949295Y-60308666D01*
X81949295Y-60308666D02*
X82092152Y-60308666D01*
X82092152Y-60308666D02*
X82187390Y-60356285D01*
X82187390Y-60356285D02*
X82235009Y-60403904D01*
X82235009Y-60403904D02*
X82282628Y-60499142D01*
X82282628Y-60499142D02*
X82282628Y-60880094D01*
X82758819Y-59356285D02*
X82758819Y-59927713D01*
X82758819Y-59641999D02*
X81758819Y-59641999D01*
X81758819Y-59641999D02*
X81901676Y-59737237D01*
X81901676Y-59737237D02*
X81996914Y-59832475D01*
X81996914Y-59832475D02*
X82044533Y-59927713D01*
X82755333Y-69342819D02*
X82422000Y-68866628D01*
X82183905Y-69342819D02*
X82183905Y-68342819D01*
X82183905Y-68342819D02*
X82564857Y-68342819D01*
X82564857Y-68342819D02*
X82660095Y-68390438D01*
X82660095Y-68390438D02*
X82707714Y-68438057D01*
X82707714Y-68438057D02*
X82755333Y-68533295D01*
X82755333Y-68533295D02*
X82755333Y-68676152D01*
X82755333Y-68676152D02*
X82707714Y-68771390D01*
X82707714Y-68771390D02*
X82660095Y-68819009D01*
X82660095Y-68819009D02*
X82564857Y-68866628D01*
X82564857Y-68866628D02*
X82183905Y-68866628D01*
X83612476Y-68676152D02*
X83612476Y-69342819D01*
X83374381Y-68295200D02*
X83136286Y-69009485D01*
X83136286Y-69009485D02*
X83755333Y-69009485D01*
X63213333Y-67058819D02*
X62880000Y-66582628D01*
X62641905Y-67058819D02*
X62641905Y-66058819D01*
X62641905Y-66058819D02*
X63022857Y-66058819D01*
X63022857Y-66058819D02*
X63118095Y-66106438D01*
X63118095Y-66106438D02*
X63165714Y-66154057D01*
X63165714Y-66154057D02*
X63213333Y-66249295D01*
X63213333Y-66249295D02*
X63213333Y-66392152D01*
X63213333Y-66392152D02*
X63165714Y-66487390D01*
X63165714Y-66487390D02*
X63118095Y-66535009D01*
X63118095Y-66535009D02*
X63022857Y-66582628D01*
X63022857Y-66582628D02*
X62641905Y-66582628D01*
X63546667Y-66058819D02*
X64165714Y-66058819D01*
X64165714Y-66058819D02*
X63832381Y-66439771D01*
X63832381Y-66439771D02*
X63975238Y-66439771D01*
X63975238Y-66439771D02*
X64070476Y-66487390D01*
X64070476Y-66487390D02*
X64118095Y-66535009D01*
X64118095Y-66535009D02*
X64165714Y-66630247D01*
X64165714Y-66630247D02*
X64165714Y-66868342D01*
X64165714Y-66868342D02*
X64118095Y-66963580D01*
X64118095Y-66963580D02*
X64070476Y-67011200D01*
X64070476Y-67011200D02*
X63975238Y-67058819D01*
X63975238Y-67058819D02*
X63689524Y-67058819D01*
X63689524Y-67058819D02*
X63594286Y-67011200D01*
X63594286Y-67011200D02*
X63546667Y-66963580D01*
X86058819Y-64372666D02*
X85582628Y-64705999D01*
X86058819Y-64944094D02*
X85058819Y-64944094D01*
X85058819Y-64944094D02*
X85058819Y-64563142D01*
X85058819Y-64563142D02*
X85106438Y-64467904D01*
X85106438Y-64467904D02*
X85154057Y-64420285D01*
X85154057Y-64420285D02*
X85249295Y-64372666D01*
X85249295Y-64372666D02*
X85392152Y-64372666D01*
X85392152Y-64372666D02*
X85487390Y-64420285D01*
X85487390Y-64420285D02*
X85535009Y-64467904D01*
X85535009Y-64467904D02*
X85582628Y-64563142D01*
X85582628Y-64563142D02*
X85582628Y-64944094D01*
X85154057Y-63991713D02*
X85106438Y-63944094D01*
X85106438Y-63944094D02*
X85058819Y-63848856D01*
X85058819Y-63848856D02*
X85058819Y-63610761D01*
X85058819Y-63610761D02*
X85106438Y-63515523D01*
X85106438Y-63515523D02*
X85154057Y-63467904D01*
X85154057Y-63467904D02*
X85249295Y-63420285D01*
X85249295Y-63420285D02*
X85344533Y-63420285D01*
X85344533Y-63420285D02*
X85487390Y-63467904D01*
X85487390Y-63467904D02*
X86058819Y-64039332D01*
X86058819Y-64039332D02*
X86058819Y-63420285D01*
X69720095Y-69012819D02*
X69720095Y-69822342D01*
X69720095Y-69822342D02*
X69767714Y-69917580D01*
X69767714Y-69917580D02*
X69815333Y-69965200D01*
X69815333Y-69965200D02*
X69910571Y-70012819D01*
X69910571Y-70012819D02*
X70101047Y-70012819D01*
X70101047Y-70012819D02*
X70196285Y-69965200D01*
X70196285Y-69965200D02*
X70243904Y-69917580D01*
X70243904Y-69917580D02*
X70291523Y-69822342D01*
X70291523Y-69822342D02*
X70291523Y-69012819D01*
X71291523Y-70012819D02*
X70720095Y-70012819D01*
X71005809Y-70012819D02*
X71005809Y-69012819D01*
X71005809Y-69012819D02*
X70910571Y-69155676D01*
X70910571Y-69155676D02*
X70815333Y-69250914D01*
X70815333Y-69250914D02*
X70720095Y-69298533D01*
X77373905Y-69946819D02*
X77373905Y-68946819D01*
X77373905Y-68946819D02*
X77612000Y-68946819D01*
X77612000Y-68946819D02*
X77754857Y-68994438D01*
X77754857Y-68994438D02*
X77850095Y-69089676D01*
X77850095Y-69089676D02*
X77897714Y-69184914D01*
X77897714Y-69184914D02*
X77945333Y-69375390D01*
X77945333Y-69375390D02*
X77945333Y-69518247D01*
X77945333Y-69518247D02*
X77897714Y-69708723D01*
X77897714Y-69708723D02*
X77850095Y-69803961D01*
X77850095Y-69803961D02*
X77754857Y-69899200D01*
X77754857Y-69899200D02*
X77612000Y-69946819D01*
X77612000Y-69946819D02*
X77373905Y-69946819D01*
X78897714Y-69946819D02*
X78326286Y-69946819D01*
X78612000Y-69946819D02*
X78612000Y-68946819D01*
X78612000Y-68946819D02*
X78516762Y-69089676D01*
X78516762Y-69089676D02*
X78421524Y-69184914D01*
X78421524Y-69184914D02*
X78326286Y-69232533D01*
X66064819Y-64330094D02*
X65064819Y-64330094D01*
X65064819Y-64330094D02*
X65064819Y-64091999D01*
X65064819Y-64091999D02*
X65112438Y-63949142D01*
X65112438Y-63949142D02*
X65207676Y-63853904D01*
X65207676Y-63853904D02*
X65302914Y-63806285D01*
X65302914Y-63806285D02*
X65493390Y-63758666D01*
X65493390Y-63758666D02*
X65636247Y-63758666D01*
X65636247Y-63758666D02*
X65826723Y-63806285D01*
X65826723Y-63806285D02*
X65921961Y-63853904D01*
X65921961Y-63853904D02*
X66017200Y-63949142D01*
X66017200Y-63949142D02*
X66064819Y-64091999D01*
X66064819Y-64091999D02*
X66064819Y-64330094D01*
X65064819Y-63425332D02*
X65064819Y-62806285D01*
X65064819Y-62806285D02*
X65445771Y-63139618D01*
X65445771Y-63139618D02*
X65445771Y-62996761D01*
X65445771Y-62996761D02*
X65493390Y-62901523D01*
X65493390Y-62901523D02*
X65541009Y-62853904D01*
X65541009Y-62853904D02*
X65636247Y-62806285D01*
X65636247Y-62806285D02*
X65874342Y-62806285D01*
X65874342Y-62806285D02*
X65969580Y-62853904D01*
X65969580Y-62853904D02*
X66017200Y-62901523D01*
X66017200Y-62901523D02*
X66064819Y-62996761D01*
X66064819Y-62996761D02*
X66064819Y-63282475D01*
X66064819Y-63282475D02*
X66017200Y-63377713D01*
X66017200Y-63377713D02*
X65969580Y-63425332D01*
X61943333Y-61065580D02*
X61895714Y-61113200D01*
X61895714Y-61113200D02*
X61752857Y-61160819D01*
X61752857Y-61160819D02*
X61657619Y-61160819D01*
X61657619Y-61160819D02*
X61514762Y-61113200D01*
X61514762Y-61113200D02*
X61419524Y-61017961D01*
X61419524Y-61017961D02*
X61371905Y-60922723D01*
X61371905Y-60922723D02*
X61324286Y-60732247D01*
X61324286Y-60732247D02*
X61324286Y-60589390D01*
X61324286Y-60589390D02*
X61371905Y-60398914D01*
X61371905Y-60398914D02*
X61419524Y-60303676D01*
X61419524Y-60303676D02*
X61514762Y-60208438D01*
X61514762Y-60208438D02*
X61657619Y-60160819D01*
X61657619Y-60160819D02*
X61752857Y-60160819D01*
X61752857Y-60160819D02*
X61895714Y-60208438D01*
X61895714Y-60208438D02*
X61943333Y-60256057D01*
X62895714Y-61160819D02*
X62324286Y-61160819D01*
X62610000Y-61160819D02*
X62610000Y-60160819D01*
X62610000Y-60160819D02*
X62514762Y-60303676D01*
X62514762Y-60303676D02*
X62419524Y-60398914D01*
X62419524Y-60398914D02*
X62324286Y-60446533D01*
X117117905Y-66344819D02*
X117117905Y-65344819D01*
X117117905Y-65344819D02*
X117356000Y-65344819D01*
X117356000Y-65344819D02*
X117498857Y-65392438D01*
X117498857Y-65392438D02*
X117594095Y-65487676D01*
X117594095Y-65487676D02*
X117641714Y-65582914D01*
X117641714Y-65582914D02*
X117689333Y-65773390D01*
X117689333Y-65773390D02*
X117689333Y-65916247D01*
X117689333Y-65916247D02*
X117641714Y-66106723D01*
X117641714Y-66106723D02*
X117594095Y-66201961D01*
X117594095Y-66201961D02*
X117498857Y-66297200D01*
X117498857Y-66297200D02*
X117356000Y-66344819D01*
X117356000Y-66344819D02*
X117117905Y-66344819D01*
X118070286Y-65440057D02*
X118117905Y-65392438D01*
X118117905Y-65392438D02*
X118213143Y-65344819D01*
X118213143Y-65344819D02*
X118451238Y-65344819D01*
X118451238Y-65344819D02*
X118546476Y-65392438D01*
X118546476Y-65392438D02*
X118594095Y-65440057D01*
X118594095Y-65440057D02*
X118641714Y-65535295D01*
X118641714Y-65535295D02*
X118641714Y-65630533D01*
X118641714Y-65630533D02*
X118594095Y-65773390D01*
X118594095Y-65773390D02*
X118022667Y-66344819D01*
X118022667Y-66344819D02*
X118641714Y-66344819D01*
X114911333Y-58566819D02*
X114578000Y-58090628D01*
X114339905Y-58566819D02*
X114339905Y-57566819D01*
X114339905Y-57566819D02*
X114720857Y-57566819D01*
X114720857Y-57566819D02*
X114816095Y-57614438D01*
X114816095Y-57614438D02*
X114863714Y-57662057D01*
X114863714Y-57662057D02*
X114911333Y-57757295D01*
X114911333Y-57757295D02*
X114911333Y-57900152D01*
X114911333Y-57900152D02*
X114863714Y-57995390D01*
X114863714Y-57995390D02*
X114816095Y-58043009D01*
X114816095Y-58043009D02*
X114720857Y-58090628D01*
X114720857Y-58090628D02*
X114339905Y-58090628D01*
X115768476Y-57900152D02*
X115768476Y-58566819D01*
X115530381Y-57519200D02*
X115292286Y-58233485D01*
X115292286Y-58233485D02*
X115911333Y-58233485D01*
D10*
X102914095Y-62513419D02*
X102914095Y-63322942D01*
X102914095Y-63322942D02*
X102961714Y-63418180D01*
X102961714Y-63418180D02*
X103009333Y-63465800D01*
X103009333Y-63465800D02*
X103104571Y-63513419D01*
X103104571Y-63513419D02*
X103295047Y-63513419D01*
X103295047Y-63513419D02*
X103390285Y-63465800D01*
X103390285Y-63465800D02*
X103437904Y-63418180D01*
X103437904Y-63418180D02*
X103485523Y-63322942D01*
X103485523Y-63322942D02*
X103485523Y-62513419D01*
X103914095Y-62608657D02*
X103961714Y-62561038D01*
X103961714Y-62561038D02*
X104056952Y-62513419D01*
X104056952Y-62513419D02*
X104295047Y-62513419D01*
X104295047Y-62513419D02*
X104390285Y-62561038D01*
X104390285Y-62561038D02*
X104437904Y-62608657D01*
X104437904Y-62608657D02*
X104485523Y-62703895D01*
X104485523Y-62703895D02*
X104485523Y-62799133D01*
X104485523Y-62799133D02*
X104437904Y-62941990D01*
X104437904Y-62941990D02*
X103866476Y-63513419D01*
X103866476Y-63513419D02*
X104485523Y-63513419D01*
X107979884Y-62928419D02*
X107979884Y-63737942D01*
X107979884Y-63737942D02*
X108027503Y-63833180D01*
X108027503Y-63833180D02*
X108075122Y-63880800D01*
X108075122Y-63880800D02*
X108170360Y-63928419D01*
X108170360Y-63928419D02*
X108360836Y-63928419D01*
X108360836Y-63928419D02*
X108456074Y-63880800D01*
X108456074Y-63880800D02*
X108503693Y-63833180D01*
X108503693Y-63833180D02*
X108551312Y-63737942D01*
X108551312Y-63737942D02*
X108551312Y-62928419D01*
X108979884Y-63880800D02*
X109122741Y-63928419D01*
X109122741Y-63928419D02*
X109360836Y-63928419D01*
X109360836Y-63928419D02*
X109456074Y-63880800D01*
X109456074Y-63880800D02*
X109503693Y-63833180D01*
X109503693Y-63833180D02*
X109551312Y-63737942D01*
X109551312Y-63737942D02*
X109551312Y-63642704D01*
X109551312Y-63642704D02*
X109503693Y-63547466D01*
X109503693Y-63547466D02*
X109456074Y-63499847D01*
X109456074Y-63499847D02*
X109360836Y-63452228D01*
X109360836Y-63452228D02*
X109170360Y-63404609D01*
X109170360Y-63404609D02*
X109075122Y-63356990D01*
X109075122Y-63356990D02*
X109027503Y-63309371D01*
X109027503Y-63309371D02*
X108979884Y-63214133D01*
X108979884Y-63214133D02*
X108979884Y-63118895D01*
X108979884Y-63118895D02*
X109027503Y-63023657D01*
X109027503Y-63023657D02*
X109075122Y-62976038D01*
X109075122Y-62976038D02*
X109170360Y-62928419D01*
X109170360Y-62928419D02*
X109408455Y-62928419D01*
X109408455Y-62928419D02*
X109551312Y-62976038D01*
X110313217Y-63404609D02*
X110456074Y-63452228D01*
X110456074Y-63452228D02*
X110503693Y-63499847D01*
X110503693Y-63499847D02*
X110551312Y-63595085D01*
X110551312Y-63595085D02*
X110551312Y-63737942D01*
X110551312Y-63737942D02*
X110503693Y-63833180D01*
X110503693Y-63833180D02*
X110456074Y-63880800D01*
X110456074Y-63880800D02*
X110360836Y-63928419D01*
X110360836Y-63928419D02*
X109979884Y-63928419D01*
X109979884Y-63928419D02*
X109979884Y-62928419D01*
X109979884Y-62928419D02*
X110313217Y-62928419D01*
X110313217Y-62928419D02*
X110408455Y-62976038D01*
X110408455Y-62976038D02*
X110456074Y-63023657D01*
X110456074Y-63023657D02*
X110503693Y-63118895D01*
X110503693Y-63118895D02*
X110503693Y-63214133D01*
X110503693Y-63214133D02*
X110456074Y-63309371D01*
X110456074Y-63309371D02*
X110408455Y-63356990D01*
X110408455Y-63356990D02*
X110313217Y-63404609D01*
X110313217Y-63404609D02*
X109979884Y-63404609D01*
D11*
X116150819Y-67024666D02*
X115674628Y-67357999D01*
X116150819Y-67596094D02*
X115150819Y-67596094D01*
X115150819Y-67596094D02*
X115150819Y-67215142D01*
X115150819Y-67215142D02*
X115198438Y-67119904D01*
X115198438Y-67119904D02*
X115246057Y-67072285D01*
X115246057Y-67072285D02*
X115341295Y-67024666D01*
X115341295Y-67024666D02*
X115484152Y-67024666D01*
X115484152Y-67024666D02*
X115579390Y-67072285D01*
X115579390Y-67072285D02*
X115627009Y-67119904D01*
X115627009Y-67119904D02*
X115674628Y-67215142D01*
X115674628Y-67215142D02*
X115674628Y-67596094D01*
X116150819Y-66072285D02*
X116150819Y-66643713D01*
X116150819Y-66357999D02*
X115150819Y-66357999D01*
X115150819Y-66357999D02*
X115293676Y-66453237D01*
X115293676Y-66453237D02*
X115388914Y-66548475D01*
X115388914Y-66548475D02*
X115436533Y-66643713D01*
X135723333Y-66653580D02*
X135675714Y-66701200D01*
X135675714Y-66701200D02*
X135532857Y-66748819D01*
X135532857Y-66748819D02*
X135437619Y-66748819D01*
X135437619Y-66748819D02*
X135294762Y-66701200D01*
X135294762Y-66701200D02*
X135199524Y-66605961D01*
X135199524Y-66605961D02*
X135151905Y-66510723D01*
X135151905Y-66510723D02*
X135104286Y-66320247D01*
X135104286Y-66320247D02*
X135104286Y-66177390D01*
X135104286Y-66177390D02*
X135151905Y-65986914D01*
X135151905Y-65986914D02*
X135199524Y-65891676D01*
X135199524Y-65891676D02*
X135294762Y-65796438D01*
X135294762Y-65796438D02*
X135437619Y-65748819D01*
X135437619Y-65748819D02*
X135532857Y-65748819D01*
X135532857Y-65748819D02*
X135675714Y-65796438D01*
X135675714Y-65796438D02*
X135723333Y-65844057D01*
X136675714Y-66748819D02*
X136104286Y-66748819D01*
X136390000Y-66748819D02*
X136390000Y-65748819D01*
X136390000Y-65748819D02*
X136294762Y-65891676D01*
X136294762Y-65891676D02*
X136199524Y-65986914D01*
X136199524Y-65986914D02*
X136104286Y-66034533D01*
X132844819Y-64146094D02*
X131844819Y-64146094D01*
X131844819Y-64146094D02*
X131844819Y-63907999D01*
X131844819Y-63907999D02*
X131892438Y-63765142D01*
X131892438Y-63765142D02*
X131987676Y-63669904D01*
X131987676Y-63669904D02*
X132082914Y-63622285D01*
X132082914Y-63622285D02*
X132273390Y-63574666D01*
X132273390Y-63574666D02*
X132416247Y-63574666D01*
X132416247Y-63574666D02*
X132606723Y-63622285D01*
X132606723Y-63622285D02*
X132701961Y-63669904D01*
X132701961Y-63669904D02*
X132797200Y-63765142D01*
X132797200Y-63765142D02*
X132844819Y-63907999D01*
X132844819Y-63907999D02*
X132844819Y-64146094D01*
X131844819Y-63241332D02*
X131844819Y-62622285D01*
X131844819Y-62622285D02*
X132225771Y-62955618D01*
X132225771Y-62955618D02*
X132225771Y-62812761D01*
X132225771Y-62812761D02*
X132273390Y-62717523D01*
X132273390Y-62717523D02*
X132321009Y-62669904D01*
X132321009Y-62669904D02*
X132416247Y-62622285D01*
X132416247Y-62622285D02*
X132654342Y-62622285D01*
X132654342Y-62622285D02*
X132749580Y-62669904D01*
X132749580Y-62669904D02*
X132797200Y-62717523D01*
X132797200Y-62717523D02*
X132844819Y-62812761D01*
X132844819Y-62812761D02*
X132844819Y-63098475D01*
X132844819Y-63098475D02*
X132797200Y-63193713D01*
X132797200Y-63193713D02*
X132749580Y-63241332D01*
X134453333Y-60850819D02*
X134120000Y-60374628D01*
X133881905Y-60850819D02*
X133881905Y-59850819D01*
X133881905Y-59850819D02*
X134262857Y-59850819D01*
X134262857Y-59850819D02*
X134358095Y-59898438D01*
X134358095Y-59898438D02*
X134405714Y-59946057D01*
X134405714Y-59946057D02*
X134453333Y-60041295D01*
X134453333Y-60041295D02*
X134453333Y-60184152D01*
X134453333Y-60184152D02*
X134405714Y-60279390D01*
X134405714Y-60279390D02*
X134358095Y-60327009D01*
X134358095Y-60327009D02*
X134262857Y-60374628D01*
X134262857Y-60374628D02*
X133881905Y-60374628D01*
X134786667Y-59850819D02*
X135405714Y-59850819D01*
X135405714Y-59850819D02*
X135072381Y-60231771D01*
X135072381Y-60231771D02*
X135215238Y-60231771D01*
X135215238Y-60231771D02*
X135310476Y-60279390D01*
X135310476Y-60279390D02*
X135358095Y-60327009D01*
X135358095Y-60327009D02*
X135405714Y-60422247D01*
X135405714Y-60422247D02*
X135405714Y-60660342D01*
X135405714Y-60660342D02*
X135358095Y-60755580D01*
X135358095Y-60755580D02*
X135310476Y-60803200D01*
X135310476Y-60803200D02*
X135215238Y-60850819D01*
X135215238Y-60850819D02*
X134929524Y-60850819D01*
X134929524Y-60850819D02*
X134834286Y-60803200D01*
X134834286Y-60803200D02*
X134786667Y-60755580D01*
X119667580Y-63484666D02*
X119715200Y-63532285D01*
X119715200Y-63532285D02*
X119762819Y-63675142D01*
X119762819Y-63675142D02*
X119762819Y-63770380D01*
X119762819Y-63770380D02*
X119715200Y-63913237D01*
X119715200Y-63913237D02*
X119619961Y-64008475D01*
X119619961Y-64008475D02*
X119524723Y-64056094D01*
X119524723Y-64056094D02*
X119334247Y-64103713D01*
X119334247Y-64103713D02*
X119191390Y-64103713D01*
X119191390Y-64103713D02*
X119000914Y-64056094D01*
X119000914Y-64056094D02*
X118905676Y-64008475D01*
X118905676Y-64008475D02*
X118810438Y-63913237D01*
X118810438Y-63913237D02*
X118762819Y-63770380D01*
X118762819Y-63770380D02*
X118762819Y-63675142D01*
X118762819Y-63675142D02*
X118810438Y-63532285D01*
X118810438Y-63532285D02*
X118858057Y-63484666D01*
X118858057Y-63103713D02*
X118810438Y-63056094D01*
X118810438Y-63056094D02*
X118762819Y-62960856D01*
X118762819Y-62960856D02*
X118762819Y-62722761D01*
X118762819Y-62722761D02*
X118810438Y-62627523D01*
X118810438Y-62627523D02*
X118858057Y-62579904D01*
X118858057Y-62579904D02*
X118953295Y-62532285D01*
X118953295Y-62532285D02*
X119048533Y-62532285D01*
X119048533Y-62532285D02*
X119191390Y-62579904D01*
X119191390Y-62579904D02*
X119762819Y-63151332D01*
X119762819Y-63151332D02*
X119762819Y-62532285D01*
X112850819Y-62960666D02*
X112374628Y-63293999D01*
X112850819Y-63532094D02*
X111850819Y-63532094D01*
X111850819Y-63532094D02*
X111850819Y-63151142D01*
X111850819Y-63151142D02*
X111898438Y-63055904D01*
X111898438Y-63055904D02*
X111946057Y-63008285D01*
X111946057Y-63008285D02*
X112041295Y-62960666D01*
X112041295Y-62960666D02*
X112184152Y-62960666D01*
X112184152Y-62960666D02*
X112279390Y-63008285D01*
X112279390Y-63008285D02*
X112327009Y-63055904D01*
X112327009Y-63055904D02*
X112374628Y-63151142D01*
X112374628Y-63151142D02*
X112374628Y-63532094D01*
X111946057Y-62579713D02*
X111898438Y-62532094D01*
X111898438Y-62532094D02*
X111850819Y-62436856D01*
X111850819Y-62436856D02*
X111850819Y-62198761D01*
X111850819Y-62198761D02*
X111898438Y-62103523D01*
X111898438Y-62103523D02*
X111946057Y-62055904D01*
X111946057Y-62055904D02*
X112041295Y-62008285D01*
X112041295Y-62008285D02*
X112136533Y-62008285D01*
X112136533Y-62008285D02*
X112279390Y-62055904D01*
X112279390Y-62055904D02*
X112850819Y-62627332D01*
X112850819Y-62627332D02*
X112850819Y-62008285D01*
X126756095Y-56896819D02*
X126756095Y-57706342D01*
X126756095Y-57706342D02*
X126803714Y-57801580D01*
X126803714Y-57801580D02*
X126851333Y-57849200D01*
X126851333Y-57849200D02*
X126946571Y-57896819D01*
X126946571Y-57896819D02*
X127137047Y-57896819D01*
X127137047Y-57896819D02*
X127232285Y-57849200D01*
X127232285Y-57849200D02*
X127279904Y-57801580D01*
X127279904Y-57801580D02*
X127327523Y-57706342D01*
X127327523Y-57706342D02*
X127327523Y-56896819D01*
X128327523Y-57896819D02*
X127756095Y-57896819D01*
X128041809Y-57896819D02*
X128041809Y-56896819D01*
X128041809Y-56896819D02*
X127946571Y-57039676D01*
X127946571Y-57039676D02*
X127851333Y-57134914D01*
X127851333Y-57134914D02*
X127756095Y-57182533D01*
X79051580Y-63848666D02*
X79099200Y-63896285D01*
X79099200Y-63896285D02*
X79146819Y-64039142D01*
X79146819Y-64039142D02*
X79146819Y-64134380D01*
X79146819Y-64134380D02*
X79099200Y-64277237D01*
X79099200Y-64277237D02*
X79003961Y-64372475D01*
X79003961Y-64372475D02*
X78908723Y-64420094D01*
X78908723Y-64420094D02*
X78718247Y-64467713D01*
X78718247Y-64467713D02*
X78575390Y-64467713D01*
X78575390Y-64467713D02*
X78384914Y-64420094D01*
X78384914Y-64420094D02*
X78289676Y-64372475D01*
X78289676Y-64372475D02*
X78194438Y-64277237D01*
X78194438Y-64277237D02*
X78146819Y-64134380D01*
X78146819Y-64134380D02*
X78146819Y-64039142D01*
X78146819Y-64039142D02*
X78194438Y-63896285D01*
X78194438Y-63896285D02*
X78242057Y-63848666D01*
X78242057Y-63467713D02*
X78194438Y-63420094D01*
X78194438Y-63420094D02*
X78146819Y-63324856D01*
X78146819Y-63324856D02*
X78146819Y-63086761D01*
X78146819Y-63086761D02*
X78194438Y-62991523D01*
X78194438Y-62991523D02*
X78242057Y-62943904D01*
X78242057Y-62943904D02*
X78337295Y-62896285D01*
X78337295Y-62896285D02*
X78432533Y-62896285D01*
X78432533Y-62896285D02*
X78575390Y-62943904D01*
X78575390Y-62943904D02*
X79146819Y-63515332D01*
X79146819Y-63515332D02*
X79146819Y-62896285D01*
X119149905Y-57962819D02*
X119149905Y-56962819D01*
X119149905Y-56962819D02*
X119388000Y-56962819D01*
X119388000Y-56962819D02*
X119530857Y-57010438D01*
X119530857Y-57010438D02*
X119626095Y-57105676D01*
X119626095Y-57105676D02*
X119673714Y-57200914D01*
X119673714Y-57200914D02*
X119721333Y-57391390D01*
X119721333Y-57391390D02*
X119721333Y-57534247D01*
X119721333Y-57534247D02*
X119673714Y-57724723D01*
X119673714Y-57724723D02*
X119626095Y-57819961D01*
X119626095Y-57819961D02*
X119530857Y-57915200D01*
X119530857Y-57915200D02*
X119388000Y-57962819D01*
X119388000Y-57962819D02*
X119149905Y-57962819D01*
X120673714Y-57962819D02*
X120102286Y-57962819D01*
X120388000Y-57962819D02*
X120388000Y-56962819D01*
X120388000Y-56962819D02*
X120292762Y-57105676D01*
X120292762Y-57105676D02*
X120197524Y-57200914D01*
X120197524Y-57200914D02*
X120102286Y-57248533D01*
D10*
X95085904Y-78686580D02*
X95085904Y-77877057D01*
X95085904Y-77877057D02*
X95038285Y-77781819D01*
X95038285Y-77781819D02*
X94990666Y-77734200D01*
X94990666Y-77734200D02*
X94895428Y-77686580D01*
X94895428Y-77686580D02*
X94704952Y-77686580D01*
X94704952Y-77686580D02*
X94609714Y-77734200D01*
X94609714Y-77734200D02*
X94562095Y-77781819D01*
X94562095Y-77781819D02*
X94514476Y-77877057D01*
X94514476Y-77877057D02*
X94514476Y-78686580D01*
X94085904Y-78591342D02*
X94038285Y-78638961D01*
X94038285Y-78638961D02*
X93943047Y-78686580D01*
X93943047Y-78686580D02*
X93704952Y-78686580D01*
X93704952Y-78686580D02*
X93609714Y-78638961D01*
X93609714Y-78638961D02*
X93562095Y-78591342D01*
X93562095Y-78591342D02*
X93514476Y-78496104D01*
X93514476Y-78496104D02*
X93514476Y-78400866D01*
X93514476Y-78400866D02*
X93562095Y-78258009D01*
X93562095Y-78258009D02*
X94133523Y-77686580D01*
X94133523Y-77686580D02*
X93514476Y-77686580D01*
X90020115Y-78271580D02*
X90020115Y-77462057D01*
X90020115Y-77462057D02*
X89972496Y-77366819D01*
X89972496Y-77366819D02*
X89924877Y-77319200D01*
X89924877Y-77319200D02*
X89829639Y-77271580D01*
X89829639Y-77271580D02*
X89639163Y-77271580D01*
X89639163Y-77271580D02*
X89543925Y-77319200D01*
X89543925Y-77319200D02*
X89496306Y-77366819D01*
X89496306Y-77366819D02*
X89448687Y-77462057D01*
X89448687Y-77462057D02*
X89448687Y-78271580D01*
X89020115Y-77319200D02*
X88877258Y-77271580D01*
X88877258Y-77271580D02*
X88639163Y-77271580D01*
X88639163Y-77271580D02*
X88543925Y-77319200D01*
X88543925Y-77319200D02*
X88496306Y-77366819D01*
X88496306Y-77366819D02*
X88448687Y-77462057D01*
X88448687Y-77462057D02*
X88448687Y-77557295D01*
X88448687Y-77557295D02*
X88496306Y-77652533D01*
X88496306Y-77652533D02*
X88543925Y-77700152D01*
X88543925Y-77700152D02*
X88639163Y-77747771D01*
X88639163Y-77747771D02*
X88829639Y-77795390D01*
X88829639Y-77795390D02*
X88924877Y-77843009D01*
X88924877Y-77843009D02*
X88972496Y-77890628D01*
X88972496Y-77890628D02*
X89020115Y-77985866D01*
X89020115Y-77985866D02*
X89020115Y-78081104D01*
X89020115Y-78081104D02*
X88972496Y-78176342D01*
X88972496Y-78176342D02*
X88924877Y-78223961D01*
X88924877Y-78223961D02*
X88829639Y-78271580D01*
X88829639Y-78271580D02*
X88591544Y-78271580D01*
X88591544Y-78271580D02*
X88448687Y-78223961D01*
X87686782Y-77795390D02*
X87543925Y-77747771D01*
X87543925Y-77747771D02*
X87496306Y-77700152D01*
X87496306Y-77700152D02*
X87448687Y-77604914D01*
X87448687Y-77604914D02*
X87448687Y-77462057D01*
X87448687Y-77462057D02*
X87496306Y-77366819D01*
X87496306Y-77366819D02*
X87543925Y-77319200D01*
X87543925Y-77319200D02*
X87639163Y-77271580D01*
X87639163Y-77271580D02*
X88020115Y-77271580D01*
X88020115Y-77271580D02*
X88020115Y-78271580D01*
X88020115Y-78271580D02*
X87686782Y-78271580D01*
X87686782Y-78271580D02*
X87591544Y-78223961D01*
X87591544Y-78223961D02*
X87543925Y-78176342D01*
X87543925Y-78176342D02*
X87496306Y-78081104D01*
X87496306Y-78081104D02*
X87496306Y-77985866D01*
X87496306Y-77985866D02*
X87543925Y-77890628D01*
X87543925Y-77890628D02*
X87591544Y-77843009D01*
X87591544Y-77843009D02*
X87686782Y-77795390D01*
X87686782Y-77795390D02*
X88020115Y-77795390D01*
D11*
X79405905Y-75764819D02*
X79405905Y-74764819D01*
X79405905Y-74764819D02*
X79644000Y-74764819D01*
X79644000Y-74764819D02*
X79786857Y-74812438D01*
X79786857Y-74812438D02*
X79882095Y-74907676D01*
X79882095Y-74907676D02*
X79929714Y-75002914D01*
X79929714Y-75002914D02*
X79977333Y-75193390D01*
X79977333Y-75193390D02*
X79977333Y-75336247D01*
X79977333Y-75336247D02*
X79929714Y-75526723D01*
X79929714Y-75526723D02*
X79882095Y-75621961D01*
X79882095Y-75621961D02*
X79786857Y-75717200D01*
X79786857Y-75717200D02*
X79644000Y-75764819D01*
X79644000Y-75764819D02*
X79405905Y-75764819D01*
X80358286Y-74860057D02*
X80405905Y-74812438D01*
X80405905Y-74812438D02*
X80501143Y-74764819D01*
X80501143Y-74764819D02*
X80739238Y-74764819D01*
X80739238Y-74764819D02*
X80834476Y-74812438D01*
X80834476Y-74812438D02*
X80882095Y-74860057D01*
X80882095Y-74860057D02*
X80929714Y-74955295D01*
X80929714Y-74955295D02*
X80929714Y-75050533D01*
X80929714Y-75050533D02*
X80882095Y-75193390D01*
X80882095Y-75193390D02*
X80310667Y-75764819D01*
X80310667Y-75764819D02*
X80929714Y-75764819D01*
X82758819Y-74508666D02*
X82282628Y-74841999D01*
X82758819Y-75080094D02*
X81758819Y-75080094D01*
X81758819Y-75080094D02*
X81758819Y-74699142D01*
X81758819Y-74699142D02*
X81806438Y-74603904D01*
X81806438Y-74603904D02*
X81854057Y-74556285D01*
X81854057Y-74556285D02*
X81949295Y-74508666D01*
X81949295Y-74508666D02*
X82092152Y-74508666D01*
X82092152Y-74508666D02*
X82187390Y-74556285D01*
X82187390Y-74556285D02*
X82235009Y-74603904D01*
X82235009Y-74603904D02*
X82282628Y-74699142D01*
X82282628Y-74699142D02*
X82282628Y-75080094D01*
X82758819Y-73556285D02*
X82758819Y-74127713D01*
X82758819Y-73841999D02*
X81758819Y-73841999D01*
X81758819Y-73841999D02*
X81901676Y-73937237D01*
X81901676Y-73937237D02*
X81996914Y-74032475D01*
X81996914Y-74032475D02*
X82044533Y-74127713D01*
X82755333Y-83542819D02*
X82422000Y-83066628D01*
X82183905Y-83542819D02*
X82183905Y-82542819D01*
X82183905Y-82542819D02*
X82564857Y-82542819D01*
X82564857Y-82542819D02*
X82660095Y-82590438D01*
X82660095Y-82590438D02*
X82707714Y-82638057D01*
X82707714Y-82638057D02*
X82755333Y-82733295D01*
X82755333Y-82733295D02*
X82755333Y-82876152D01*
X82755333Y-82876152D02*
X82707714Y-82971390D01*
X82707714Y-82971390D02*
X82660095Y-83019009D01*
X82660095Y-83019009D02*
X82564857Y-83066628D01*
X82564857Y-83066628D02*
X82183905Y-83066628D01*
X83612476Y-82876152D02*
X83612476Y-83542819D01*
X83374381Y-82495200D02*
X83136286Y-83209485D01*
X83136286Y-83209485D02*
X83755333Y-83209485D01*
X63213333Y-81258819D02*
X62880000Y-80782628D01*
X62641905Y-81258819D02*
X62641905Y-80258819D01*
X62641905Y-80258819D02*
X63022857Y-80258819D01*
X63022857Y-80258819D02*
X63118095Y-80306438D01*
X63118095Y-80306438D02*
X63165714Y-80354057D01*
X63165714Y-80354057D02*
X63213333Y-80449295D01*
X63213333Y-80449295D02*
X63213333Y-80592152D01*
X63213333Y-80592152D02*
X63165714Y-80687390D01*
X63165714Y-80687390D02*
X63118095Y-80735009D01*
X63118095Y-80735009D02*
X63022857Y-80782628D01*
X63022857Y-80782628D02*
X62641905Y-80782628D01*
X63546667Y-80258819D02*
X64165714Y-80258819D01*
X64165714Y-80258819D02*
X63832381Y-80639771D01*
X63832381Y-80639771D02*
X63975238Y-80639771D01*
X63975238Y-80639771D02*
X64070476Y-80687390D01*
X64070476Y-80687390D02*
X64118095Y-80735009D01*
X64118095Y-80735009D02*
X64165714Y-80830247D01*
X64165714Y-80830247D02*
X64165714Y-81068342D01*
X64165714Y-81068342D02*
X64118095Y-81163580D01*
X64118095Y-81163580D02*
X64070476Y-81211200D01*
X64070476Y-81211200D02*
X63975238Y-81258819D01*
X63975238Y-81258819D02*
X63689524Y-81258819D01*
X63689524Y-81258819D02*
X63594286Y-81211200D01*
X63594286Y-81211200D02*
X63546667Y-81163580D01*
X86058819Y-78572666D02*
X85582628Y-78905999D01*
X86058819Y-79144094D02*
X85058819Y-79144094D01*
X85058819Y-79144094D02*
X85058819Y-78763142D01*
X85058819Y-78763142D02*
X85106438Y-78667904D01*
X85106438Y-78667904D02*
X85154057Y-78620285D01*
X85154057Y-78620285D02*
X85249295Y-78572666D01*
X85249295Y-78572666D02*
X85392152Y-78572666D01*
X85392152Y-78572666D02*
X85487390Y-78620285D01*
X85487390Y-78620285D02*
X85535009Y-78667904D01*
X85535009Y-78667904D02*
X85582628Y-78763142D01*
X85582628Y-78763142D02*
X85582628Y-79144094D01*
X85154057Y-78191713D02*
X85106438Y-78144094D01*
X85106438Y-78144094D02*
X85058819Y-78048856D01*
X85058819Y-78048856D02*
X85058819Y-77810761D01*
X85058819Y-77810761D02*
X85106438Y-77715523D01*
X85106438Y-77715523D02*
X85154057Y-77667904D01*
X85154057Y-77667904D02*
X85249295Y-77620285D01*
X85249295Y-77620285D02*
X85344533Y-77620285D01*
X85344533Y-77620285D02*
X85487390Y-77667904D01*
X85487390Y-77667904D02*
X86058819Y-78239332D01*
X86058819Y-78239332D02*
X86058819Y-77620285D01*
X69720095Y-83212819D02*
X69720095Y-84022342D01*
X69720095Y-84022342D02*
X69767714Y-84117580D01*
X69767714Y-84117580D02*
X69815333Y-84165200D01*
X69815333Y-84165200D02*
X69910571Y-84212819D01*
X69910571Y-84212819D02*
X70101047Y-84212819D01*
X70101047Y-84212819D02*
X70196285Y-84165200D01*
X70196285Y-84165200D02*
X70243904Y-84117580D01*
X70243904Y-84117580D02*
X70291523Y-84022342D01*
X70291523Y-84022342D02*
X70291523Y-83212819D01*
X71291523Y-84212819D02*
X70720095Y-84212819D01*
X71005809Y-84212819D02*
X71005809Y-83212819D01*
X71005809Y-83212819D02*
X70910571Y-83355676D01*
X70910571Y-83355676D02*
X70815333Y-83450914D01*
X70815333Y-83450914D02*
X70720095Y-83498533D01*
X77373905Y-84146819D02*
X77373905Y-83146819D01*
X77373905Y-83146819D02*
X77612000Y-83146819D01*
X77612000Y-83146819D02*
X77754857Y-83194438D01*
X77754857Y-83194438D02*
X77850095Y-83289676D01*
X77850095Y-83289676D02*
X77897714Y-83384914D01*
X77897714Y-83384914D02*
X77945333Y-83575390D01*
X77945333Y-83575390D02*
X77945333Y-83718247D01*
X77945333Y-83718247D02*
X77897714Y-83908723D01*
X77897714Y-83908723D02*
X77850095Y-84003961D01*
X77850095Y-84003961D02*
X77754857Y-84099200D01*
X77754857Y-84099200D02*
X77612000Y-84146819D01*
X77612000Y-84146819D02*
X77373905Y-84146819D01*
X78897714Y-84146819D02*
X78326286Y-84146819D01*
X78612000Y-84146819D02*
X78612000Y-83146819D01*
X78612000Y-83146819D02*
X78516762Y-83289676D01*
X78516762Y-83289676D02*
X78421524Y-83384914D01*
X78421524Y-83384914D02*
X78326286Y-83432533D01*
X66064819Y-78530094D02*
X65064819Y-78530094D01*
X65064819Y-78530094D02*
X65064819Y-78291999D01*
X65064819Y-78291999D02*
X65112438Y-78149142D01*
X65112438Y-78149142D02*
X65207676Y-78053904D01*
X65207676Y-78053904D02*
X65302914Y-78006285D01*
X65302914Y-78006285D02*
X65493390Y-77958666D01*
X65493390Y-77958666D02*
X65636247Y-77958666D01*
X65636247Y-77958666D02*
X65826723Y-78006285D01*
X65826723Y-78006285D02*
X65921961Y-78053904D01*
X65921961Y-78053904D02*
X66017200Y-78149142D01*
X66017200Y-78149142D02*
X66064819Y-78291999D01*
X66064819Y-78291999D02*
X66064819Y-78530094D01*
X65064819Y-77625332D02*
X65064819Y-77006285D01*
X65064819Y-77006285D02*
X65445771Y-77339618D01*
X65445771Y-77339618D02*
X65445771Y-77196761D01*
X65445771Y-77196761D02*
X65493390Y-77101523D01*
X65493390Y-77101523D02*
X65541009Y-77053904D01*
X65541009Y-77053904D02*
X65636247Y-77006285D01*
X65636247Y-77006285D02*
X65874342Y-77006285D01*
X65874342Y-77006285D02*
X65969580Y-77053904D01*
X65969580Y-77053904D02*
X66017200Y-77101523D01*
X66017200Y-77101523D02*
X66064819Y-77196761D01*
X66064819Y-77196761D02*
X66064819Y-77482475D01*
X66064819Y-77482475D02*
X66017200Y-77577713D01*
X66017200Y-77577713D02*
X65969580Y-77625332D01*
X61943333Y-75265580D02*
X61895714Y-75313200D01*
X61895714Y-75313200D02*
X61752857Y-75360819D01*
X61752857Y-75360819D02*
X61657619Y-75360819D01*
X61657619Y-75360819D02*
X61514762Y-75313200D01*
X61514762Y-75313200D02*
X61419524Y-75217961D01*
X61419524Y-75217961D02*
X61371905Y-75122723D01*
X61371905Y-75122723D02*
X61324286Y-74932247D01*
X61324286Y-74932247D02*
X61324286Y-74789390D01*
X61324286Y-74789390D02*
X61371905Y-74598914D01*
X61371905Y-74598914D02*
X61419524Y-74503676D01*
X61419524Y-74503676D02*
X61514762Y-74408438D01*
X61514762Y-74408438D02*
X61657619Y-74360819D01*
X61657619Y-74360819D02*
X61752857Y-74360819D01*
X61752857Y-74360819D02*
X61895714Y-74408438D01*
X61895714Y-74408438D02*
X61943333Y-74456057D01*
X62895714Y-75360819D02*
X62324286Y-75360819D01*
X62610000Y-75360819D02*
X62610000Y-74360819D01*
X62610000Y-74360819D02*
X62514762Y-74503676D01*
X62514762Y-74503676D02*
X62419524Y-74598914D01*
X62419524Y-74598914D02*
X62324286Y-74646533D01*
X117117905Y-80544819D02*
X117117905Y-79544819D01*
X117117905Y-79544819D02*
X117356000Y-79544819D01*
X117356000Y-79544819D02*
X117498857Y-79592438D01*
X117498857Y-79592438D02*
X117594095Y-79687676D01*
X117594095Y-79687676D02*
X117641714Y-79782914D01*
X117641714Y-79782914D02*
X117689333Y-79973390D01*
X117689333Y-79973390D02*
X117689333Y-80116247D01*
X117689333Y-80116247D02*
X117641714Y-80306723D01*
X117641714Y-80306723D02*
X117594095Y-80401961D01*
X117594095Y-80401961D02*
X117498857Y-80497200D01*
X117498857Y-80497200D02*
X117356000Y-80544819D01*
X117356000Y-80544819D02*
X117117905Y-80544819D01*
X118070286Y-79640057D02*
X118117905Y-79592438D01*
X118117905Y-79592438D02*
X118213143Y-79544819D01*
X118213143Y-79544819D02*
X118451238Y-79544819D01*
X118451238Y-79544819D02*
X118546476Y-79592438D01*
X118546476Y-79592438D02*
X118594095Y-79640057D01*
X118594095Y-79640057D02*
X118641714Y-79735295D01*
X118641714Y-79735295D02*
X118641714Y-79830533D01*
X118641714Y-79830533D02*
X118594095Y-79973390D01*
X118594095Y-79973390D02*
X118022667Y-80544819D01*
X118022667Y-80544819D02*
X118641714Y-80544819D01*
X114911333Y-72766819D02*
X114578000Y-72290628D01*
X114339905Y-72766819D02*
X114339905Y-71766819D01*
X114339905Y-71766819D02*
X114720857Y-71766819D01*
X114720857Y-71766819D02*
X114816095Y-71814438D01*
X114816095Y-71814438D02*
X114863714Y-71862057D01*
X114863714Y-71862057D02*
X114911333Y-71957295D01*
X114911333Y-71957295D02*
X114911333Y-72100152D01*
X114911333Y-72100152D02*
X114863714Y-72195390D01*
X114863714Y-72195390D02*
X114816095Y-72243009D01*
X114816095Y-72243009D02*
X114720857Y-72290628D01*
X114720857Y-72290628D02*
X114339905Y-72290628D01*
X115768476Y-72100152D02*
X115768476Y-72766819D01*
X115530381Y-71719200D02*
X115292286Y-72433485D01*
X115292286Y-72433485D02*
X115911333Y-72433485D01*
D10*
X102914095Y-76713419D02*
X102914095Y-77522942D01*
X102914095Y-77522942D02*
X102961714Y-77618180D01*
X102961714Y-77618180D02*
X103009333Y-77665800D01*
X103009333Y-77665800D02*
X103104571Y-77713419D01*
X103104571Y-77713419D02*
X103295047Y-77713419D01*
X103295047Y-77713419D02*
X103390285Y-77665800D01*
X103390285Y-77665800D02*
X103437904Y-77618180D01*
X103437904Y-77618180D02*
X103485523Y-77522942D01*
X103485523Y-77522942D02*
X103485523Y-76713419D01*
X103914095Y-76808657D02*
X103961714Y-76761038D01*
X103961714Y-76761038D02*
X104056952Y-76713419D01*
X104056952Y-76713419D02*
X104295047Y-76713419D01*
X104295047Y-76713419D02*
X104390285Y-76761038D01*
X104390285Y-76761038D02*
X104437904Y-76808657D01*
X104437904Y-76808657D02*
X104485523Y-76903895D01*
X104485523Y-76903895D02*
X104485523Y-76999133D01*
X104485523Y-76999133D02*
X104437904Y-77141990D01*
X104437904Y-77141990D02*
X103866476Y-77713419D01*
X103866476Y-77713419D02*
X104485523Y-77713419D01*
X107979884Y-77128419D02*
X107979884Y-77937942D01*
X107979884Y-77937942D02*
X108027503Y-78033180D01*
X108027503Y-78033180D02*
X108075122Y-78080800D01*
X108075122Y-78080800D02*
X108170360Y-78128419D01*
X108170360Y-78128419D02*
X108360836Y-78128419D01*
X108360836Y-78128419D02*
X108456074Y-78080800D01*
X108456074Y-78080800D02*
X108503693Y-78033180D01*
X108503693Y-78033180D02*
X108551312Y-77937942D01*
X108551312Y-77937942D02*
X108551312Y-77128419D01*
X108979884Y-78080800D02*
X109122741Y-78128419D01*
X109122741Y-78128419D02*
X109360836Y-78128419D01*
X109360836Y-78128419D02*
X109456074Y-78080800D01*
X109456074Y-78080800D02*
X109503693Y-78033180D01*
X109503693Y-78033180D02*
X109551312Y-77937942D01*
X109551312Y-77937942D02*
X109551312Y-77842704D01*
X109551312Y-77842704D02*
X109503693Y-77747466D01*
X109503693Y-77747466D02*
X109456074Y-77699847D01*
X109456074Y-77699847D02*
X109360836Y-77652228D01*
X109360836Y-77652228D02*
X109170360Y-77604609D01*
X109170360Y-77604609D02*
X109075122Y-77556990D01*
X109075122Y-77556990D02*
X109027503Y-77509371D01*
X109027503Y-77509371D02*
X108979884Y-77414133D01*
X108979884Y-77414133D02*
X108979884Y-77318895D01*
X108979884Y-77318895D02*
X109027503Y-77223657D01*
X109027503Y-77223657D02*
X109075122Y-77176038D01*
X109075122Y-77176038D02*
X109170360Y-77128419D01*
X109170360Y-77128419D02*
X109408455Y-77128419D01*
X109408455Y-77128419D02*
X109551312Y-77176038D01*
X110313217Y-77604609D02*
X110456074Y-77652228D01*
X110456074Y-77652228D02*
X110503693Y-77699847D01*
X110503693Y-77699847D02*
X110551312Y-77795085D01*
X110551312Y-77795085D02*
X110551312Y-77937942D01*
X110551312Y-77937942D02*
X110503693Y-78033180D01*
X110503693Y-78033180D02*
X110456074Y-78080800D01*
X110456074Y-78080800D02*
X110360836Y-78128419D01*
X110360836Y-78128419D02*
X109979884Y-78128419D01*
X109979884Y-78128419D02*
X109979884Y-77128419D01*
X109979884Y-77128419D02*
X110313217Y-77128419D01*
X110313217Y-77128419D02*
X110408455Y-77176038D01*
X110408455Y-77176038D02*
X110456074Y-77223657D01*
X110456074Y-77223657D02*
X110503693Y-77318895D01*
X110503693Y-77318895D02*
X110503693Y-77414133D01*
X110503693Y-77414133D02*
X110456074Y-77509371D01*
X110456074Y-77509371D02*
X110408455Y-77556990D01*
X110408455Y-77556990D02*
X110313217Y-77604609D01*
X110313217Y-77604609D02*
X109979884Y-77604609D01*
D11*
X116150819Y-81224666D02*
X115674628Y-81557999D01*
X116150819Y-81796094D02*
X115150819Y-81796094D01*
X115150819Y-81796094D02*
X115150819Y-81415142D01*
X115150819Y-81415142D02*
X115198438Y-81319904D01*
X115198438Y-81319904D02*
X115246057Y-81272285D01*
X115246057Y-81272285D02*
X115341295Y-81224666D01*
X115341295Y-81224666D02*
X115484152Y-81224666D01*
X115484152Y-81224666D02*
X115579390Y-81272285D01*
X115579390Y-81272285D02*
X115627009Y-81319904D01*
X115627009Y-81319904D02*
X115674628Y-81415142D01*
X115674628Y-81415142D02*
X115674628Y-81796094D01*
X116150819Y-80272285D02*
X116150819Y-80843713D01*
X116150819Y-80557999D02*
X115150819Y-80557999D01*
X115150819Y-80557999D02*
X115293676Y-80653237D01*
X115293676Y-80653237D02*
X115388914Y-80748475D01*
X115388914Y-80748475D02*
X115436533Y-80843713D01*
X135723333Y-80853580D02*
X135675714Y-80901200D01*
X135675714Y-80901200D02*
X135532857Y-80948819D01*
X135532857Y-80948819D02*
X135437619Y-80948819D01*
X135437619Y-80948819D02*
X135294762Y-80901200D01*
X135294762Y-80901200D02*
X135199524Y-80805961D01*
X135199524Y-80805961D02*
X135151905Y-80710723D01*
X135151905Y-80710723D02*
X135104286Y-80520247D01*
X135104286Y-80520247D02*
X135104286Y-80377390D01*
X135104286Y-80377390D02*
X135151905Y-80186914D01*
X135151905Y-80186914D02*
X135199524Y-80091676D01*
X135199524Y-80091676D02*
X135294762Y-79996438D01*
X135294762Y-79996438D02*
X135437619Y-79948819D01*
X135437619Y-79948819D02*
X135532857Y-79948819D01*
X135532857Y-79948819D02*
X135675714Y-79996438D01*
X135675714Y-79996438D02*
X135723333Y-80044057D01*
X136675714Y-80948819D02*
X136104286Y-80948819D01*
X136390000Y-80948819D02*
X136390000Y-79948819D01*
X136390000Y-79948819D02*
X136294762Y-80091676D01*
X136294762Y-80091676D02*
X136199524Y-80186914D01*
X136199524Y-80186914D02*
X136104286Y-80234533D01*
X132844819Y-78346094D02*
X131844819Y-78346094D01*
X131844819Y-78346094D02*
X131844819Y-78107999D01*
X131844819Y-78107999D02*
X131892438Y-77965142D01*
X131892438Y-77965142D02*
X131987676Y-77869904D01*
X131987676Y-77869904D02*
X132082914Y-77822285D01*
X132082914Y-77822285D02*
X132273390Y-77774666D01*
X132273390Y-77774666D02*
X132416247Y-77774666D01*
X132416247Y-77774666D02*
X132606723Y-77822285D01*
X132606723Y-77822285D02*
X132701961Y-77869904D01*
X132701961Y-77869904D02*
X132797200Y-77965142D01*
X132797200Y-77965142D02*
X132844819Y-78107999D01*
X132844819Y-78107999D02*
X132844819Y-78346094D01*
X131844819Y-77441332D02*
X131844819Y-76822285D01*
X131844819Y-76822285D02*
X132225771Y-77155618D01*
X132225771Y-77155618D02*
X132225771Y-77012761D01*
X132225771Y-77012761D02*
X132273390Y-76917523D01*
X132273390Y-76917523D02*
X132321009Y-76869904D01*
X132321009Y-76869904D02*
X132416247Y-76822285D01*
X132416247Y-76822285D02*
X132654342Y-76822285D01*
X132654342Y-76822285D02*
X132749580Y-76869904D01*
X132749580Y-76869904D02*
X132797200Y-76917523D01*
X132797200Y-76917523D02*
X132844819Y-77012761D01*
X132844819Y-77012761D02*
X132844819Y-77298475D01*
X132844819Y-77298475D02*
X132797200Y-77393713D01*
X132797200Y-77393713D02*
X132749580Y-77441332D01*
X134453333Y-75050819D02*
X134120000Y-74574628D01*
X133881905Y-75050819D02*
X133881905Y-74050819D01*
X133881905Y-74050819D02*
X134262857Y-74050819D01*
X134262857Y-74050819D02*
X134358095Y-74098438D01*
X134358095Y-74098438D02*
X134405714Y-74146057D01*
X134405714Y-74146057D02*
X134453333Y-74241295D01*
X134453333Y-74241295D02*
X134453333Y-74384152D01*
X134453333Y-74384152D02*
X134405714Y-74479390D01*
X134405714Y-74479390D02*
X134358095Y-74527009D01*
X134358095Y-74527009D02*
X134262857Y-74574628D01*
X134262857Y-74574628D02*
X133881905Y-74574628D01*
X134786667Y-74050819D02*
X135405714Y-74050819D01*
X135405714Y-74050819D02*
X135072381Y-74431771D01*
X135072381Y-74431771D02*
X135215238Y-74431771D01*
X135215238Y-74431771D02*
X135310476Y-74479390D01*
X135310476Y-74479390D02*
X135358095Y-74527009D01*
X135358095Y-74527009D02*
X135405714Y-74622247D01*
X135405714Y-74622247D02*
X135405714Y-74860342D01*
X135405714Y-74860342D02*
X135358095Y-74955580D01*
X135358095Y-74955580D02*
X135310476Y-75003200D01*
X135310476Y-75003200D02*
X135215238Y-75050819D01*
X135215238Y-75050819D02*
X134929524Y-75050819D01*
X134929524Y-75050819D02*
X134834286Y-75003200D01*
X134834286Y-75003200D02*
X134786667Y-74955580D01*
X119667580Y-77684666D02*
X119715200Y-77732285D01*
X119715200Y-77732285D02*
X119762819Y-77875142D01*
X119762819Y-77875142D02*
X119762819Y-77970380D01*
X119762819Y-77970380D02*
X119715200Y-78113237D01*
X119715200Y-78113237D02*
X119619961Y-78208475D01*
X119619961Y-78208475D02*
X119524723Y-78256094D01*
X119524723Y-78256094D02*
X119334247Y-78303713D01*
X119334247Y-78303713D02*
X119191390Y-78303713D01*
X119191390Y-78303713D02*
X119000914Y-78256094D01*
X119000914Y-78256094D02*
X118905676Y-78208475D01*
X118905676Y-78208475D02*
X118810438Y-78113237D01*
X118810438Y-78113237D02*
X118762819Y-77970380D01*
X118762819Y-77970380D02*
X118762819Y-77875142D01*
X118762819Y-77875142D02*
X118810438Y-77732285D01*
X118810438Y-77732285D02*
X118858057Y-77684666D01*
X118858057Y-77303713D02*
X118810438Y-77256094D01*
X118810438Y-77256094D02*
X118762819Y-77160856D01*
X118762819Y-77160856D02*
X118762819Y-76922761D01*
X118762819Y-76922761D02*
X118810438Y-76827523D01*
X118810438Y-76827523D02*
X118858057Y-76779904D01*
X118858057Y-76779904D02*
X118953295Y-76732285D01*
X118953295Y-76732285D02*
X119048533Y-76732285D01*
X119048533Y-76732285D02*
X119191390Y-76779904D01*
X119191390Y-76779904D02*
X119762819Y-77351332D01*
X119762819Y-77351332D02*
X119762819Y-76732285D01*
X112850819Y-77160666D02*
X112374628Y-77493999D01*
X112850819Y-77732094D02*
X111850819Y-77732094D01*
X111850819Y-77732094D02*
X111850819Y-77351142D01*
X111850819Y-77351142D02*
X111898438Y-77255904D01*
X111898438Y-77255904D02*
X111946057Y-77208285D01*
X111946057Y-77208285D02*
X112041295Y-77160666D01*
X112041295Y-77160666D02*
X112184152Y-77160666D01*
X112184152Y-77160666D02*
X112279390Y-77208285D01*
X112279390Y-77208285D02*
X112327009Y-77255904D01*
X112327009Y-77255904D02*
X112374628Y-77351142D01*
X112374628Y-77351142D02*
X112374628Y-77732094D01*
X111946057Y-76779713D02*
X111898438Y-76732094D01*
X111898438Y-76732094D02*
X111850819Y-76636856D01*
X111850819Y-76636856D02*
X111850819Y-76398761D01*
X111850819Y-76398761D02*
X111898438Y-76303523D01*
X111898438Y-76303523D02*
X111946057Y-76255904D01*
X111946057Y-76255904D02*
X112041295Y-76208285D01*
X112041295Y-76208285D02*
X112136533Y-76208285D01*
X112136533Y-76208285D02*
X112279390Y-76255904D01*
X112279390Y-76255904D02*
X112850819Y-76827332D01*
X112850819Y-76827332D02*
X112850819Y-76208285D01*
X126756095Y-71096819D02*
X126756095Y-71906342D01*
X126756095Y-71906342D02*
X126803714Y-72001580D01*
X126803714Y-72001580D02*
X126851333Y-72049200D01*
X126851333Y-72049200D02*
X126946571Y-72096819D01*
X126946571Y-72096819D02*
X127137047Y-72096819D01*
X127137047Y-72096819D02*
X127232285Y-72049200D01*
X127232285Y-72049200D02*
X127279904Y-72001580D01*
X127279904Y-72001580D02*
X127327523Y-71906342D01*
X127327523Y-71906342D02*
X127327523Y-71096819D01*
X128327523Y-72096819D02*
X127756095Y-72096819D01*
X128041809Y-72096819D02*
X128041809Y-71096819D01*
X128041809Y-71096819D02*
X127946571Y-71239676D01*
X127946571Y-71239676D02*
X127851333Y-71334914D01*
X127851333Y-71334914D02*
X127756095Y-71382533D01*
X79051580Y-78048666D02*
X79099200Y-78096285D01*
X79099200Y-78096285D02*
X79146819Y-78239142D01*
X79146819Y-78239142D02*
X79146819Y-78334380D01*
X79146819Y-78334380D02*
X79099200Y-78477237D01*
X79099200Y-78477237D02*
X79003961Y-78572475D01*
X79003961Y-78572475D02*
X78908723Y-78620094D01*
X78908723Y-78620094D02*
X78718247Y-78667713D01*
X78718247Y-78667713D02*
X78575390Y-78667713D01*
X78575390Y-78667713D02*
X78384914Y-78620094D01*
X78384914Y-78620094D02*
X78289676Y-78572475D01*
X78289676Y-78572475D02*
X78194438Y-78477237D01*
X78194438Y-78477237D02*
X78146819Y-78334380D01*
X78146819Y-78334380D02*
X78146819Y-78239142D01*
X78146819Y-78239142D02*
X78194438Y-78096285D01*
X78194438Y-78096285D02*
X78242057Y-78048666D01*
X78242057Y-77667713D02*
X78194438Y-77620094D01*
X78194438Y-77620094D02*
X78146819Y-77524856D01*
X78146819Y-77524856D02*
X78146819Y-77286761D01*
X78146819Y-77286761D02*
X78194438Y-77191523D01*
X78194438Y-77191523D02*
X78242057Y-77143904D01*
X78242057Y-77143904D02*
X78337295Y-77096285D01*
X78337295Y-77096285D02*
X78432533Y-77096285D01*
X78432533Y-77096285D02*
X78575390Y-77143904D01*
X78575390Y-77143904D02*
X79146819Y-77715332D01*
X79146819Y-77715332D02*
X79146819Y-77096285D01*
X119149905Y-72162819D02*
X119149905Y-71162819D01*
X119149905Y-71162819D02*
X119388000Y-71162819D01*
X119388000Y-71162819D02*
X119530857Y-71210438D01*
X119530857Y-71210438D02*
X119626095Y-71305676D01*
X119626095Y-71305676D02*
X119673714Y-71400914D01*
X119673714Y-71400914D02*
X119721333Y-71591390D01*
X119721333Y-71591390D02*
X119721333Y-71734247D01*
X119721333Y-71734247D02*
X119673714Y-71924723D01*
X119673714Y-71924723D02*
X119626095Y-72019961D01*
X119626095Y-72019961D02*
X119530857Y-72115200D01*
X119530857Y-72115200D02*
X119388000Y-72162819D01*
X119388000Y-72162819D02*
X119149905Y-72162819D01*
X120673714Y-72162819D02*
X120102286Y-72162819D01*
X120388000Y-72162819D02*
X120388000Y-71162819D01*
X120388000Y-71162819D02*
X120292762Y-71305676D01*
X120292762Y-71305676D02*
X120197524Y-71400914D01*
X120197524Y-71400914D02*
X120102286Y-71448533D01*
D10*
X95085904Y-92886580D02*
X95085904Y-92077057D01*
X95085904Y-92077057D02*
X95038285Y-91981819D01*
X95038285Y-91981819D02*
X94990666Y-91934200D01*
X94990666Y-91934200D02*
X94895428Y-91886580D01*
X94895428Y-91886580D02*
X94704952Y-91886580D01*
X94704952Y-91886580D02*
X94609714Y-91934200D01*
X94609714Y-91934200D02*
X94562095Y-91981819D01*
X94562095Y-91981819D02*
X94514476Y-92077057D01*
X94514476Y-92077057D02*
X94514476Y-92886580D01*
X94085904Y-92791342D02*
X94038285Y-92838961D01*
X94038285Y-92838961D02*
X93943047Y-92886580D01*
X93943047Y-92886580D02*
X93704952Y-92886580D01*
X93704952Y-92886580D02*
X93609714Y-92838961D01*
X93609714Y-92838961D02*
X93562095Y-92791342D01*
X93562095Y-92791342D02*
X93514476Y-92696104D01*
X93514476Y-92696104D02*
X93514476Y-92600866D01*
X93514476Y-92600866D02*
X93562095Y-92458009D01*
X93562095Y-92458009D02*
X94133523Y-91886580D01*
X94133523Y-91886580D02*
X93514476Y-91886580D01*
X90020115Y-92471580D02*
X90020115Y-91662057D01*
X90020115Y-91662057D02*
X89972496Y-91566819D01*
X89972496Y-91566819D02*
X89924877Y-91519200D01*
X89924877Y-91519200D02*
X89829639Y-91471580D01*
X89829639Y-91471580D02*
X89639163Y-91471580D01*
X89639163Y-91471580D02*
X89543925Y-91519200D01*
X89543925Y-91519200D02*
X89496306Y-91566819D01*
X89496306Y-91566819D02*
X89448687Y-91662057D01*
X89448687Y-91662057D02*
X89448687Y-92471580D01*
X89020115Y-91519200D02*
X88877258Y-91471580D01*
X88877258Y-91471580D02*
X88639163Y-91471580D01*
X88639163Y-91471580D02*
X88543925Y-91519200D01*
X88543925Y-91519200D02*
X88496306Y-91566819D01*
X88496306Y-91566819D02*
X88448687Y-91662057D01*
X88448687Y-91662057D02*
X88448687Y-91757295D01*
X88448687Y-91757295D02*
X88496306Y-91852533D01*
X88496306Y-91852533D02*
X88543925Y-91900152D01*
X88543925Y-91900152D02*
X88639163Y-91947771D01*
X88639163Y-91947771D02*
X88829639Y-91995390D01*
X88829639Y-91995390D02*
X88924877Y-92043009D01*
X88924877Y-92043009D02*
X88972496Y-92090628D01*
X88972496Y-92090628D02*
X89020115Y-92185866D01*
X89020115Y-92185866D02*
X89020115Y-92281104D01*
X89020115Y-92281104D02*
X88972496Y-92376342D01*
X88972496Y-92376342D02*
X88924877Y-92423961D01*
X88924877Y-92423961D02*
X88829639Y-92471580D01*
X88829639Y-92471580D02*
X88591544Y-92471580D01*
X88591544Y-92471580D02*
X88448687Y-92423961D01*
X87686782Y-91995390D02*
X87543925Y-91947771D01*
X87543925Y-91947771D02*
X87496306Y-91900152D01*
X87496306Y-91900152D02*
X87448687Y-91804914D01*
X87448687Y-91804914D02*
X87448687Y-91662057D01*
X87448687Y-91662057D02*
X87496306Y-91566819D01*
X87496306Y-91566819D02*
X87543925Y-91519200D01*
X87543925Y-91519200D02*
X87639163Y-91471580D01*
X87639163Y-91471580D02*
X88020115Y-91471580D01*
X88020115Y-91471580D02*
X88020115Y-92471580D01*
X88020115Y-92471580D02*
X87686782Y-92471580D01*
X87686782Y-92471580D02*
X87591544Y-92423961D01*
X87591544Y-92423961D02*
X87543925Y-92376342D01*
X87543925Y-92376342D02*
X87496306Y-92281104D01*
X87496306Y-92281104D02*
X87496306Y-92185866D01*
X87496306Y-92185866D02*
X87543925Y-92090628D01*
X87543925Y-92090628D02*
X87591544Y-92043009D01*
X87591544Y-92043009D02*
X87686782Y-91995390D01*
X87686782Y-91995390D02*
X88020115Y-91995390D01*
D11*
X79405905Y-89964819D02*
X79405905Y-88964819D01*
X79405905Y-88964819D02*
X79644000Y-88964819D01*
X79644000Y-88964819D02*
X79786857Y-89012438D01*
X79786857Y-89012438D02*
X79882095Y-89107676D01*
X79882095Y-89107676D02*
X79929714Y-89202914D01*
X79929714Y-89202914D02*
X79977333Y-89393390D01*
X79977333Y-89393390D02*
X79977333Y-89536247D01*
X79977333Y-89536247D02*
X79929714Y-89726723D01*
X79929714Y-89726723D02*
X79882095Y-89821961D01*
X79882095Y-89821961D02*
X79786857Y-89917200D01*
X79786857Y-89917200D02*
X79644000Y-89964819D01*
X79644000Y-89964819D02*
X79405905Y-89964819D01*
X80358286Y-89060057D02*
X80405905Y-89012438D01*
X80405905Y-89012438D02*
X80501143Y-88964819D01*
X80501143Y-88964819D02*
X80739238Y-88964819D01*
X80739238Y-88964819D02*
X80834476Y-89012438D01*
X80834476Y-89012438D02*
X80882095Y-89060057D01*
X80882095Y-89060057D02*
X80929714Y-89155295D01*
X80929714Y-89155295D02*
X80929714Y-89250533D01*
X80929714Y-89250533D02*
X80882095Y-89393390D01*
X80882095Y-89393390D02*
X80310667Y-89964819D01*
X80310667Y-89964819D02*
X80929714Y-89964819D01*
X82758819Y-88708666D02*
X82282628Y-89041999D01*
X82758819Y-89280094D02*
X81758819Y-89280094D01*
X81758819Y-89280094D02*
X81758819Y-88899142D01*
X81758819Y-88899142D02*
X81806438Y-88803904D01*
X81806438Y-88803904D02*
X81854057Y-88756285D01*
X81854057Y-88756285D02*
X81949295Y-88708666D01*
X81949295Y-88708666D02*
X82092152Y-88708666D01*
X82092152Y-88708666D02*
X82187390Y-88756285D01*
X82187390Y-88756285D02*
X82235009Y-88803904D01*
X82235009Y-88803904D02*
X82282628Y-88899142D01*
X82282628Y-88899142D02*
X82282628Y-89280094D01*
X82758819Y-87756285D02*
X82758819Y-88327713D01*
X82758819Y-88041999D02*
X81758819Y-88041999D01*
X81758819Y-88041999D02*
X81901676Y-88137237D01*
X81901676Y-88137237D02*
X81996914Y-88232475D01*
X81996914Y-88232475D02*
X82044533Y-88327713D01*
X82755333Y-97742819D02*
X82422000Y-97266628D01*
X82183905Y-97742819D02*
X82183905Y-96742819D01*
X82183905Y-96742819D02*
X82564857Y-96742819D01*
X82564857Y-96742819D02*
X82660095Y-96790438D01*
X82660095Y-96790438D02*
X82707714Y-96838057D01*
X82707714Y-96838057D02*
X82755333Y-96933295D01*
X82755333Y-96933295D02*
X82755333Y-97076152D01*
X82755333Y-97076152D02*
X82707714Y-97171390D01*
X82707714Y-97171390D02*
X82660095Y-97219009D01*
X82660095Y-97219009D02*
X82564857Y-97266628D01*
X82564857Y-97266628D02*
X82183905Y-97266628D01*
X83612476Y-97076152D02*
X83612476Y-97742819D01*
X83374381Y-96695200D02*
X83136286Y-97409485D01*
X83136286Y-97409485D02*
X83755333Y-97409485D01*
X63213333Y-95458819D02*
X62880000Y-94982628D01*
X62641905Y-95458819D02*
X62641905Y-94458819D01*
X62641905Y-94458819D02*
X63022857Y-94458819D01*
X63022857Y-94458819D02*
X63118095Y-94506438D01*
X63118095Y-94506438D02*
X63165714Y-94554057D01*
X63165714Y-94554057D02*
X63213333Y-94649295D01*
X63213333Y-94649295D02*
X63213333Y-94792152D01*
X63213333Y-94792152D02*
X63165714Y-94887390D01*
X63165714Y-94887390D02*
X63118095Y-94935009D01*
X63118095Y-94935009D02*
X63022857Y-94982628D01*
X63022857Y-94982628D02*
X62641905Y-94982628D01*
X63546667Y-94458819D02*
X64165714Y-94458819D01*
X64165714Y-94458819D02*
X63832381Y-94839771D01*
X63832381Y-94839771D02*
X63975238Y-94839771D01*
X63975238Y-94839771D02*
X64070476Y-94887390D01*
X64070476Y-94887390D02*
X64118095Y-94935009D01*
X64118095Y-94935009D02*
X64165714Y-95030247D01*
X64165714Y-95030247D02*
X64165714Y-95268342D01*
X64165714Y-95268342D02*
X64118095Y-95363580D01*
X64118095Y-95363580D02*
X64070476Y-95411200D01*
X64070476Y-95411200D02*
X63975238Y-95458819D01*
X63975238Y-95458819D02*
X63689524Y-95458819D01*
X63689524Y-95458819D02*
X63594286Y-95411200D01*
X63594286Y-95411200D02*
X63546667Y-95363580D01*
X86058819Y-92772666D02*
X85582628Y-93105999D01*
X86058819Y-93344094D02*
X85058819Y-93344094D01*
X85058819Y-93344094D02*
X85058819Y-92963142D01*
X85058819Y-92963142D02*
X85106438Y-92867904D01*
X85106438Y-92867904D02*
X85154057Y-92820285D01*
X85154057Y-92820285D02*
X85249295Y-92772666D01*
X85249295Y-92772666D02*
X85392152Y-92772666D01*
X85392152Y-92772666D02*
X85487390Y-92820285D01*
X85487390Y-92820285D02*
X85535009Y-92867904D01*
X85535009Y-92867904D02*
X85582628Y-92963142D01*
X85582628Y-92963142D02*
X85582628Y-93344094D01*
X85154057Y-92391713D02*
X85106438Y-92344094D01*
X85106438Y-92344094D02*
X85058819Y-92248856D01*
X85058819Y-92248856D02*
X85058819Y-92010761D01*
X85058819Y-92010761D02*
X85106438Y-91915523D01*
X85106438Y-91915523D02*
X85154057Y-91867904D01*
X85154057Y-91867904D02*
X85249295Y-91820285D01*
X85249295Y-91820285D02*
X85344533Y-91820285D01*
X85344533Y-91820285D02*
X85487390Y-91867904D01*
X85487390Y-91867904D02*
X86058819Y-92439332D01*
X86058819Y-92439332D02*
X86058819Y-91820285D01*
X69720095Y-97412819D02*
X69720095Y-98222342D01*
X69720095Y-98222342D02*
X69767714Y-98317580D01*
X69767714Y-98317580D02*
X69815333Y-98365200D01*
X69815333Y-98365200D02*
X69910571Y-98412819D01*
X69910571Y-98412819D02*
X70101047Y-98412819D01*
X70101047Y-98412819D02*
X70196285Y-98365200D01*
X70196285Y-98365200D02*
X70243904Y-98317580D01*
X70243904Y-98317580D02*
X70291523Y-98222342D01*
X70291523Y-98222342D02*
X70291523Y-97412819D01*
X71291523Y-98412819D02*
X70720095Y-98412819D01*
X71005809Y-98412819D02*
X71005809Y-97412819D01*
X71005809Y-97412819D02*
X70910571Y-97555676D01*
X70910571Y-97555676D02*
X70815333Y-97650914D01*
X70815333Y-97650914D02*
X70720095Y-97698533D01*
X77373905Y-98346819D02*
X77373905Y-97346819D01*
X77373905Y-97346819D02*
X77612000Y-97346819D01*
X77612000Y-97346819D02*
X77754857Y-97394438D01*
X77754857Y-97394438D02*
X77850095Y-97489676D01*
X77850095Y-97489676D02*
X77897714Y-97584914D01*
X77897714Y-97584914D02*
X77945333Y-97775390D01*
X77945333Y-97775390D02*
X77945333Y-97918247D01*
X77945333Y-97918247D02*
X77897714Y-98108723D01*
X77897714Y-98108723D02*
X77850095Y-98203961D01*
X77850095Y-98203961D02*
X77754857Y-98299200D01*
X77754857Y-98299200D02*
X77612000Y-98346819D01*
X77612000Y-98346819D02*
X77373905Y-98346819D01*
X78897714Y-98346819D02*
X78326286Y-98346819D01*
X78612000Y-98346819D02*
X78612000Y-97346819D01*
X78612000Y-97346819D02*
X78516762Y-97489676D01*
X78516762Y-97489676D02*
X78421524Y-97584914D01*
X78421524Y-97584914D02*
X78326286Y-97632533D01*
X66064819Y-92730094D02*
X65064819Y-92730094D01*
X65064819Y-92730094D02*
X65064819Y-92491999D01*
X65064819Y-92491999D02*
X65112438Y-92349142D01*
X65112438Y-92349142D02*
X65207676Y-92253904D01*
X65207676Y-92253904D02*
X65302914Y-92206285D01*
X65302914Y-92206285D02*
X65493390Y-92158666D01*
X65493390Y-92158666D02*
X65636247Y-92158666D01*
X65636247Y-92158666D02*
X65826723Y-92206285D01*
X65826723Y-92206285D02*
X65921961Y-92253904D01*
X65921961Y-92253904D02*
X66017200Y-92349142D01*
X66017200Y-92349142D02*
X66064819Y-92491999D01*
X66064819Y-92491999D02*
X66064819Y-92730094D01*
X65064819Y-91825332D02*
X65064819Y-91206285D01*
X65064819Y-91206285D02*
X65445771Y-91539618D01*
X65445771Y-91539618D02*
X65445771Y-91396761D01*
X65445771Y-91396761D02*
X65493390Y-91301523D01*
X65493390Y-91301523D02*
X65541009Y-91253904D01*
X65541009Y-91253904D02*
X65636247Y-91206285D01*
X65636247Y-91206285D02*
X65874342Y-91206285D01*
X65874342Y-91206285D02*
X65969580Y-91253904D01*
X65969580Y-91253904D02*
X66017200Y-91301523D01*
X66017200Y-91301523D02*
X66064819Y-91396761D01*
X66064819Y-91396761D02*
X66064819Y-91682475D01*
X66064819Y-91682475D02*
X66017200Y-91777713D01*
X66017200Y-91777713D02*
X65969580Y-91825332D01*
X61943333Y-89465580D02*
X61895714Y-89513200D01*
X61895714Y-89513200D02*
X61752857Y-89560819D01*
X61752857Y-89560819D02*
X61657619Y-89560819D01*
X61657619Y-89560819D02*
X61514762Y-89513200D01*
X61514762Y-89513200D02*
X61419524Y-89417961D01*
X61419524Y-89417961D02*
X61371905Y-89322723D01*
X61371905Y-89322723D02*
X61324286Y-89132247D01*
X61324286Y-89132247D02*
X61324286Y-88989390D01*
X61324286Y-88989390D02*
X61371905Y-88798914D01*
X61371905Y-88798914D02*
X61419524Y-88703676D01*
X61419524Y-88703676D02*
X61514762Y-88608438D01*
X61514762Y-88608438D02*
X61657619Y-88560819D01*
X61657619Y-88560819D02*
X61752857Y-88560819D01*
X61752857Y-88560819D02*
X61895714Y-88608438D01*
X61895714Y-88608438D02*
X61943333Y-88656057D01*
X62895714Y-89560819D02*
X62324286Y-89560819D01*
X62610000Y-89560819D02*
X62610000Y-88560819D01*
X62610000Y-88560819D02*
X62514762Y-88703676D01*
X62514762Y-88703676D02*
X62419524Y-88798914D01*
X62419524Y-88798914D02*
X62324286Y-88846533D01*
X117117905Y-94744819D02*
X117117905Y-93744819D01*
X117117905Y-93744819D02*
X117356000Y-93744819D01*
X117356000Y-93744819D02*
X117498857Y-93792438D01*
X117498857Y-93792438D02*
X117594095Y-93887676D01*
X117594095Y-93887676D02*
X117641714Y-93982914D01*
X117641714Y-93982914D02*
X117689333Y-94173390D01*
X117689333Y-94173390D02*
X117689333Y-94316247D01*
X117689333Y-94316247D02*
X117641714Y-94506723D01*
X117641714Y-94506723D02*
X117594095Y-94601961D01*
X117594095Y-94601961D02*
X117498857Y-94697200D01*
X117498857Y-94697200D02*
X117356000Y-94744819D01*
X117356000Y-94744819D02*
X117117905Y-94744819D01*
X118070286Y-93840057D02*
X118117905Y-93792438D01*
X118117905Y-93792438D02*
X118213143Y-93744819D01*
X118213143Y-93744819D02*
X118451238Y-93744819D01*
X118451238Y-93744819D02*
X118546476Y-93792438D01*
X118546476Y-93792438D02*
X118594095Y-93840057D01*
X118594095Y-93840057D02*
X118641714Y-93935295D01*
X118641714Y-93935295D02*
X118641714Y-94030533D01*
X118641714Y-94030533D02*
X118594095Y-94173390D01*
X118594095Y-94173390D02*
X118022667Y-94744819D01*
X118022667Y-94744819D02*
X118641714Y-94744819D01*
X114911333Y-86966819D02*
X114578000Y-86490628D01*
X114339905Y-86966819D02*
X114339905Y-85966819D01*
X114339905Y-85966819D02*
X114720857Y-85966819D01*
X114720857Y-85966819D02*
X114816095Y-86014438D01*
X114816095Y-86014438D02*
X114863714Y-86062057D01*
X114863714Y-86062057D02*
X114911333Y-86157295D01*
X114911333Y-86157295D02*
X114911333Y-86300152D01*
X114911333Y-86300152D02*
X114863714Y-86395390D01*
X114863714Y-86395390D02*
X114816095Y-86443009D01*
X114816095Y-86443009D02*
X114720857Y-86490628D01*
X114720857Y-86490628D02*
X114339905Y-86490628D01*
X115768476Y-86300152D02*
X115768476Y-86966819D01*
X115530381Y-85919200D02*
X115292286Y-86633485D01*
X115292286Y-86633485D02*
X115911333Y-86633485D01*
D10*
X102914095Y-90913419D02*
X102914095Y-91722942D01*
X102914095Y-91722942D02*
X102961714Y-91818180D01*
X102961714Y-91818180D02*
X103009333Y-91865800D01*
X103009333Y-91865800D02*
X103104571Y-91913419D01*
X103104571Y-91913419D02*
X103295047Y-91913419D01*
X103295047Y-91913419D02*
X103390285Y-91865800D01*
X103390285Y-91865800D02*
X103437904Y-91818180D01*
X103437904Y-91818180D02*
X103485523Y-91722942D01*
X103485523Y-91722942D02*
X103485523Y-90913419D01*
X103914095Y-91008657D02*
X103961714Y-90961038D01*
X103961714Y-90961038D02*
X104056952Y-90913419D01*
X104056952Y-90913419D02*
X104295047Y-90913419D01*
X104295047Y-90913419D02*
X104390285Y-90961038D01*
X104390285Y-90961038D02*
X104437904Y-91008657D01*
X104437904Y-91008657D02*
X104485523Y-91103895D01*
X104485523Y-91103895D02*
X104485523Y-91199133D01*
X104485523Y-91199133D02*
X104437904Y-91341990D01*
X104437904Y-91341990D02*
X103866476Y-91913419D01*
X103866476Y-91913419D02*
X104485523Y-91913419D01*
X107979884Y-91328419D02*
X107979884Y-92137942D01*
X107979884Y-92137942D02*
X108027503Y-92233180D01*
X108027503Y-92233180D02*
X108075122Y-92280800D01*
X108075122Y-92280800D02*
X108170360Y-92328419D01*
X108170360Y-92328419D02*
X108360836Y-92328419D01*
X108360836Y-92328419D02*
X108456074Y-92280800D01*
X108456074Y-92280800D02*
X108503693Y-92233180D01*
X108503693Y-92233180D02*
X108551312Y-92137942D01*
X108551312Y-92137942D02*
X108551312Y-91328419D01*
X108979884Y-92280800D02*
X109122741Y-92328419D01*
X109122741Y-92328419D02*
X109360836Y-92328419D01*
X109360836Y-92328419D02*
X109456074Y-92280800D01*
X109456074Y-92280800D02*
X109503693Y-92233180D01*
X109503693Y-92233180D02*
X109551312Y-92137942D01*
X109551312Y-92137942D02*
X109551312Y-92042704D01*
X109551312Y-92042704D02*
X109503693Y-91947466D01*
X109503693Y-91947466D02*
X109456074Y-91899847D01*
X109456074Y-91899847D02*
X109360836Y-91852228D01*
X109360836Y-91852228D02*
X109170360Y-91804609D01*
X109170360Y-91804609D02*
X109075122Y-91756990D01*
X109075122Y-91756990D02*
X109027503Y-91709371D01*
X109027503Y-91709371D02*
X108979884Y-91614133D01*
X108979884Y-91614133D02*
X108979884Y-91518895D01*
X108979884Y-91518895D02*
X109027503Y-91423657D01*
X109027503Y-91423657D02*
X109075122Y-91376038D01*
X109075122Y-91376038D02*
X109170360Y-91328419D01*
X109170360Y-91328419D02*
X109408455Y-91328419D01*
X109408455Y-91328419D02*
X109551312Y-91376038D01*
X110313217Y-91804609D02*
X110456074Y-91852228D01*
X110456074Y-91852228D02*
X110503693Y-91899847D01*
X110503693Y-91899847D02*
X110551312Y-91995085D01*
X110551312Y-91995085D02*
X110551312Y-92137942D01*
X110551312Y-92137942D02*
X110503693Y-92233180D01*
X110503693Y-92233180D02*
X110456074Y-92280800D01*
X110456074Y-92280800D02*
X110360836Y-92328419D01*
X110360836Y-92328419D02*
X109979884Y-92328419D01*
X109979884Y-92328419D02*
X109979884Y-91328419D01*
X109979884Y-91328419D02*
X110313217Y-91328419D01*
X110313217Y-91328419D02*
X110408455Y-91376038D01*
X110408455Y-91376038D02*
X110456074Y-91423657D01*
X110456074Y-91423657D02*
X110503693Y-91518895D01*
X110503693Y-91518895D02*
X110503693Y-91614133D01*
X110503693Y-91614133D02*
X110456074Y-91709371D01*
X110456074Y-91709371D02*
X110408455Y-91756990D01*
X110408455Y-91756990D02*
X110313217Y-91804609D01*
X110313217Y-91804609D02*
X109979884Y-91804609D01*
D11*
X116150819Y-95424666D02*
X115674628Y-95757999D01*
X116150819Y-95996094D02*
X115150819Y-95996094D01*
X115150819Y-95996094D02*
X115150819Y-95615142D01*
X115150819Y-95615142D02*
X115198438Y-95519904D01*
X115198438Y-95519904D02*
X115246057Y-95472285D01*
X115246057Y-95472285D02*
X115341295Y-95424666D01*
X115341295Y-95424666D02*
X115484152Y-95424666D01*
X115484152Y-95424666D02*
X115579390Y-95472285D01*
X115579390Y-95472285D02*
X115627009Y-95519904D01*
X115627009Y-95519904D02*
X115674628Y-95615142D01*
X115674628Y-95615142D02*
X115674628Y-95996094D01*
X116150819Y-94472285D02*
X116150819Y-95043713D01*
X116150819Y-94757999D02*
X115150819Y-94757999D01*
X115150819Y-94757999D02*
X115293676Y-94853237D01*
X115293676Y-94853237D02*
X115388914Y-94948475D01*
X115388914Y-94948475D02*
X115436533Y-95043713D01*
X135723333Y-95053580D02*
X135675714Y-95101200D01*
X135675714Y-95101200D02*
X135532857Y-95148819D01*
X135532857Y-95148819D02*
X135437619Y-95148819D01*
X135437619Y-95148819D02*
X135294762Y-95101200D01*
X135294762Y-95101200D02*
X135199524Y-95005961D01*
X135199524Y-95005961D02*
X135151905Y-94910723D01*
X135151905Y-94910723D02*
X135104286Y-94720247D01*
X135104286Y-94720247D02*
X135104286Y-94577390D01*
X135104286Y-94577390D02*
X135151905Y-94386914D01*
X135151905Y-94386914D02*
X135199524Y-94291676D01*
X135199524Y-94291676D02*
X135294762Y-94196438D01*
X135294762Y-94196438D02*
X135437619Y-94148819D01*
X135437619Y-94148819D02*
X135532857Y-94148819D01*
X135532857Y-94148819D02*
X135675714Y-94196438D01*
X135675714Y-94196438D02*
X135723333Y-94244057D01*
X136675714Y-95148819D02*
X136104286Y-95148819D01*
X136390000Y-95148819D02*
X136390000Y-94148819D01*
X136390000Y-94148819D02*
X136294762Y-94291676D01*
X136294762Y-94291676D02*
X136199524Y-94386914D01*
X136199524Y-94386914D02*
X136104286Y-94434533D01*
X132844819Y-92546094D02*
X131844819Y-92546094D01*
X131844819Y-92546094D02*
X131844819Y-92307999D01*
X131844819Y-92307999D02*
X131892438Y-92165142D01*
X131892438Y-92165142D02*
X131987676Y-92069904D01*
X131987676Y-92069904D02*
X132082914Y-92022285D01*
X132082914Y-92022285D02*
X132273390Y-91974666D01*
X132273390Y-91974666D02*
X132416247Y-91974666D01*
X132416247Y-91974666D02*
X132606723Y-92022285D01*
X132606723Y-92022285D02*
X132701961Y-92069904D01*
X132701961Y-92069904D02*
X132797200Y-92165142D01*
X132797200Y-92165142D02*
X132844819Y-92307999D01*
X132844819Y-92307999D02*
X132844819Y-92546094D01*
X131844819Y-91641332D02*
X131844819Y-91022285D01*
X131844819Y-91022285D02*
X132225771Y-91355618D01*
X132225771Y-91355618D02*
X132225771Y-91212761D01*
X132225771Y-91212761D02*
X132273390Y-91117523D01*
X132273390Y-91117523D02*
X132321009Y-91069904D01*
X132321009Y-91069904D02*
X132416247Y-91022285D01*
X132416247Y-91022285D02*
X132654342Y-91022285D01*
X132654342Y-91022285D02*
X132749580Y-91069904D01*
X132749580Y-91069904D02*
X132797200Y-91117523D01*
X132797200Y-91117523D02*
X132844819Y-91212761D01*
X132844819Y-91212761D02*
X132844819Y-91498475D01*
X132844819Y-91498475D02*
X132797200Y-91593713D01*
X132797200Y-91593713D02*
X132749580Y-91641332D01*
X134453333Y-89250819D02*
X134120000Y-88774628D01*
X133881905Y-89250819D02*
X133881905Y-88250819D01*
X133881905Y-88250819D02*
X134262857Y-88250819D01*
X134262857Y-88250819D02*
X134358095Y-88298438D01*
X134358095Y-88298438D02*
X134405714Y-88346057D01*
X134405714Y-88346057D02*
X134453333Y-88441295D01*
X134453333Y-88441295D02*
X134453333Y-88584152D01*
X134453333Y-88584152D02*
X134405714Y-88679390D01*
X134405714Y-88679390D02*
X134358095Y-88727009D01*
X134358095Y-88727009D02*
X134262857Y-88774628D01*
X134262857Y-88774628D02*
X133881905Y-88774628D01*
X134786667Y-88250819D02*
X135405714Y-88250819D01*
X135405714Y-88250819D02*
X135072381Y-88631771D01*
X135072381Y-88631771D02*
X135215238Y-88631771D01*
X135215238Y-88631771D02*
X135310476Y-88679390D01*
X135310476Y-88679390D02*
X135358095Y-88727009D01*
X135358095Y-88727009D02*
X135405714Y-88822247D01*
X135405714Y-88822247D02*
X135405714Y-89060342D01*
X135405714Y-89060342D02*
X135358095Y-89155580D01*
X135358095Y-89155580D02*
X135310476Y-89203200D01*
X135310476Y-89203200D02*
X135215238Y-89250819D01*
X135215238Y-89250819D02*
X134929524Y-89250819D01*
X134929524Y-89250819D02*
X134834286Y-89203200D01*
X134834286Y-89203200D02*
X134786667Y-89155580D01*
X119667580Y-91884666D02*
X119715200Y-91932285D01*
X119715200Y-91932285D02*
X119762819Y-92075142D01*
X119762819Y-92075142D02*
X119762819Y-92170380D01*
X119762819Y-92170380D02*
X119715200Y-92313237D01*
X119715200Y-92313237D02*
X119619961Y-92408475D01*
X119619961Y-92408475D02*
X119524723Y-92456094D01*
X119524723Y-92456094D02*
X119334247Y-92503713D01*
X119334247Y-92503713D02*
X119191390Y-92503713D01*
X119191390Y-92503713D02*
X119000914Y-92456094D01*
X119000914Y-92456094D02*
X118905676Y-92408475D01*
X118905676Y-92408475D02*
X118810438Y-92313237D01*
X118810438Y-92313237D02*
X118762819Y-92170380D01*
X118762819Y-92170380D02*
X118762819Y-92075142D01*
X118762819Y-92075142D02*
X118810438Y-91932285D01*
X118810438Y-91932285D02*
X118858057Y-91884666D01*
X118858057Y-91503713D02*
X118810438Y-91456094D01*
X118810438Y-91456094D02*
X118762819Y-91360856D01*
X118762819Y-91360856D02*
X118762819Y-91122761D01*
X118762819Y-91122761D02*
X118810438Y-91027523D01*
X118810438Y-91027523D02*
X118858057Y-90979904D01*
X118858057Y-90979904D02*
X118953295Y-90932285D01*
X118953295Y-90932285D02*
X119048533Y-90932285D01*
X119048533Y-90932285D02*
X119191390Y-90979904D01*
X119191390Y-90979904D02*
X119762819Y-91551332D01*
X119762819Y-91551332D02*
X119762819Y-90932285D01*
X112850819Y-91360666D02*
X112374628Y-91693999D01*
X112850819Y-91932094D02*
X111850819Y-91932094D01*
X111850819Y-91932094D02*
X111850819Y-91551142D01*
X111850819Y-91551142D02*
X111898438Y-91455904D01*
X111898438Y-91455904D02*
X111946057Y-91408285D01*
X111946057Y-91408285D02*
X112041295Y-91360666D01*
X112041295Y-91360666D02*
X112184152Y-91360666D01*
X112184152Y-91360666D02*
X112279390Y-91408285D01*
X112279390Y-91408285D02*
X112327009Y-91455904D01*
X112327009Y-91455904D02*
X112374628Y-91551142D01*
X112374628Y-91551142D02*
X112374628Y-91932094D01*
X111946057Y-90979713D02*
X111898438Y-90932094D01*
X111898438Y-90932094D02*
X111850819Y-90836856D01*
X111850819Y-90836856D02*
X111850819Y-90598761D01*
X111850819Y-90598761D02*
X111898438Y-90503523D01*
X111898438Y-90503523D02*
X111946057Y-90455904D01*
X111946057Y-90455904D02*
X112041295Y-90408285D01*
X112041295Y-90408285D02*
X112136533Y-90408285D01*
X112136533Y-90408285D02*
X112279390Y-90455904D01*
X112279390Y-90455904D02*
X112850819Y-91027332D01*
X112850819Y-91027332D02*
X112850819Y-90408285D01*
X126756095Y-85296819D02*
X126756095Y-86106342D01*
X126756095Y-86106342D02*
X126803714Y-86201580D01*
X126803714Y-86201580D02*
X126851333Y-86249200D01*
X126851333Y-86249200D02*
X126946571Y-86296819D01*
X126946571Y-86296819D02*
X127137047Y-86296819D01*
X127137047Y-86296819D02*
X127232285Y-86249200D01*
X127232285Y-86249200D02*
X127279904Y-86201580D01*
X127279904Y-86201580D02*
X127327523Y-86106342D01*
X127327523Y-86106342D02*
X127327523Y-85296819D01*
X128327523Y-86296819D02*
X127756095Y-86296819D01*
X128041809Y-86296819D02*
X128041809Y-85296819D01*
X128041809Y-85296819D02*
X127946571Y-85439676D01*
X127946571Y-85439676D02*
X127851333Y-85534914D01*
X127851333Y-85534914D02*
X127756095Y-85582533D01*
X79051580Y-92248666D02*
X79099200Y-92296285D01*
X79099200Y-92296285D02*
X79146819Y-92439142D01*
X79146819Y-92439142D02*
X79146819Y-92534380D01*
X79146819Y-92534380D02*
X79099200Y-92677237D01*
X79099200Y-92677237D02*
X79003961Y-92772475D01*
X79003961Y-92772475D02*
X78908723Y-92820094D01*
X78908723Y-92820094D02*
X78718247Y-92867713D01*
X78718247Y-92867713D02*
X78575390Y-92867713D01*
X78575390Y-92867713D02*
X78384914Y-92820094D01*
X78384914Y-92820094D02*
X78289676Y-92772475D01*
X78289676Y-92772475D02*
X78194438Y-92677237D01*
X78194438Y-92677237D02*
X78146819Y-92534380D01*
X78146819Y-92534380D02*
X78146819Y-92439142D01*
X78146819Y-92439142D02*
X78194438Y-92296285D01*
X78194438Y-92296285D02*
X78242057Y-92248666D01*
X78242057Y-91867713D02*
X78194438Y-91820094D01*
X78194438Y-91820094D02*
X78146819Y-91724856D01*
X78146819Y-91724856D02*
X78146819Y-91486761D01*
X78146819Y-91486761D02*
X78194438Y-91391523D01*
X78194438Y-91391523D02*
X78242057Y-91343904D01*
X78242057Y-91343904D02*
X78337295Y-91296285D01*
X78337295Y-91296285D02*
X78432533Y-91296285D01*
X78432533Y-91296285D02*
X78575390Y-91343904D01*
X78575390Y-91343904D02*
X79146819Y-91915332D01*
X79146819Y-91915332D02*
X79146819Y-91296285D01*
X119149905Y-86362819D02*
X119149905Y-85362819D01*
X119149905Y-85362819D02*
X119388000Y-85362819D01*
X119388000Y-85362819D02*
X119530857Y-85410438D01*
X119530857Y-85410438D02*
X119626095Y-85505676D01*
X119626095Y-85505676D02*
X119673714Y-85600914D01*
X119673714Y-85600914D02*
X119721333Y-85791390D01*
X119721333Y-85791390D02*
X119721333Y-85934247D01*
X119721333Y-85934247D02*
X119673714Y-86124723D01*
X119673714Y-86124723D02*
X119626095Y-86219961D01*
X119626095Y-86219961D02*
X119530857Y-86315200D01*
X119530857Y-86315200D02*
X119388000Y-86362819D01*
X119388000Y-86362819D02*
X119149905Y-86362819D01*
X120673714Y-86362819D02*
X120102286Y-86362819D01*
X120388000Y-86362819D02*
X120388000Y-85362819D01*
X120388000Y-85362819D02*
X120292762Y-85505676D01*
X120292762Y-85505676D02*
X120197524Y-85600914D01*
X120197524Y-85600914D02*
X120102286Y-85648533D01*
X79405905Y-104164819D02*
X79405905Y-103164819D01*
X79405905Y-103164819D02*
X79644000Y-103164819D01*
X79644000Y-103164819D02*
X79786857Y-103212438D01*
X79786857Y-103212438D02*
X79882095Y-103307676D01*
X79882095Y-103307676D02*
X79929714Y-103402914D01*
X79929714Y-103402914D02*
X79977333Y-103593390D01*
X79977333Y-103593390D02*
X79977333Y-103736247D01*
X79977333Y-103736247D02*
X79929714Y-103926723D01*
X79929714Y-103926723D02*
X79882095Y-104021961D01*
X79882095Y-104021961D02*
X79786857Y-104117200D01*
X79786857Y-104117200D02*
X79644000Y-104164819D01*
X79644000Y-104164819D02*
X79405905Y-104164819D01*
X80358286Y-103260057D02*
X80405905Y-103212438D01*
X80405905Y-103212438D02*
X80501143Y-103164819D01*
X80501143Y-103164819D02*
X80739238Y-103164819D01*
X80739238Y-103164819D02*
X80834476Y-103212438D01*
X80834476Y-103212438D02*
X80882095Y-103260057D01*
X80882095Y-103260057D02*
X80929714Y-103355295D01*
X80929714Y-103355295D02*
X80929714Y-103450533D01*
X80929714Y-103450533D02*
X80882095Y-103593390D01*
X80882095Y-103593390D02*
X80310667Y-104164819D01*
X80310667Y-104164819D02*
X80929714Y-104164819D01*
X82755333Y-111942819D02*
X82422000Y-111466628D01*
X82183905Y-111942819D02*
X82183905Y-110942819D01*
X82183905Y-110942819D02*
X82564857Y-110942819D01*
X82564857Y-110942819D02*
X82660095Y-110990438D01*
X82660095Y-110990438D02*
X82707714Y-111038057D01*
X82707714Y-111038057D02*
X82755333Y-111133295D01*
X82755333Y-111133295D02*
X82755333Y-111276152D01*
X82755333Y-111276152D02*
X82707714Y-111371390D01*
X82707714Y-111371390D02*
X82660095Y-111419009D01*
X82660095Y-111419009D02*
X82564857Y-111466628D01*
X82564857Y-111466628D02*
X82183905Y-111466628D01*
X83612476Y-111276152D02*
X83612476Y-111942819D01*
X83374381Y-110895200D02*
X83136286Y-111609485D01*
X83136286Y-111609485D02*
X83755333Y-111609485D01*
D10*
X95085904Y-107086580D02*
X95085904Y-106277057D01*
X95085904Y-106277057D02*
X95038285Y-106181819D01*
X95038285Y-106181819D02*
X94990666Y-106134200D01*
X94990666Y-106134200D02*
X94895428Y-106086580D01*
X94895428Y-106086580D02*
X94704952Y-106086580D01*
X94704952Y-106086580D02*
X94609714Y-106134200D01*
X94609714Y-106134200D02*
X94562095Y-106181819D01*
X94562095Y-106181819D02*
X94514476Y-106277057D01*
X94514476Y-106277057D02*
X94514476Y-107086580D01*
X94085904Y-106991342D02*
X94038285Y-107038961D01*
X94038285Y-107038961D02*
X93943047Y-107086580D01*
X93943047Y-107086580D02*
X93704952Y-107086580D01*
X93704952Y-107086580D02*
X93609714Y-107038961D01*
X93609714Y-107038961D02*
X93562095Y-106991342D01*
X93562095Y-106991342D02*
X93514476Y-106896104D01*
X93514476Y-106896104D02*
X93514476Y-106800866D01*
X93514476Y-106800866D02*
X93562095Y-106658009D01*
X93562095Y-106658009D02*
X94133523Y-106086580D01*
X94133523Y-106086580D02*
X93514476Y-106086580D01*
X90020115Y-106671580D02*
X90020115Y-105862057D01*
X90020115Y-105862057D02*
X89972496Y-105766819D01*
X89972496Y-105766819D02*
X89924877Y-105719200D01*
X89924877Y-105719200D02*
X89829639Y-105671580D01*
X89829639Y-105671580D02*
X89639163Y-105671580D01*
X89639163Y-105671580D02*
X89543925Y-105719200D01*
X89543925Y-105719200D02*
X89496306Y-105766819D01*
X89496306Y-105766819D02*
X89448687Y-105862057D01*
X89448687Y-105862057D02*
X89448687Y-106671580D01*
X89020115Y-105719200D02*
X88877258Y-105671580D01*
X88877258Y-105671580D02*
X88639163Y-105671580D01*
X88639163Y-105671580D02*
X88543925Y-105719200D01*
X88543925Y-105719200D02*
X88496306Y-105766819D01*
X88496306Y-105766819D02*
X88448687Y-105862057D01*
X88448687Y-105862057D02*
X88448687Y-105957295D01*
X88448687Y-105957295D02*
X88496306Y-106052533D01*
X88496306Y-106052533D02*
X88543925Y-106100152D01*
X88543925Y-106100152D02*
X88639163Y-106147771D01*
X88639163Y-106147771D02*
X88829639Y-106195390D01*
X88829639Y-106195390D02*
X88924877Y-106243009D01*
X88924877Y-106243009D02*
X88972496Y-106290628D01*
X88972496Y-106290628D02*
X89020115Y-106385866D01*
X89020115Y-106385866D02*
X89020115Y-106481104D01*
X89020115Y-106481104D02*
X88972496Y-106576342D01*
X88972496Y-106576342D02*
X88924877Y-106623961D01*
X88924877Y-106623961D02*
X88829639Y-106671580D01*
X88829639Y-106671580D02*
X88591544Y-106671580D01*
X88591544Y-106671580D02*
X88448687Y-106623961D01*
X87686782Y-106195390D02*
X87543925Y-106147771D01*
X87543925Y-106147771D02*
X87496306Y-106100152D01*
X87496306Y-106100152D02*
X87448687Y-106004914D01*
X87448687Y-106004914D02*
X87448687Y-105862057D01*
X87448687Y-105862057D02*
X87496306Y-105766819D01*
X87496306Y-105766819D02*
X87543925Y-105719200D01*
X87543925Y-105719200D02*
X87639163Y-105671580D01*
X87639163Y-105671580D02*
X88020115Y-105671580D01*
X88020115Y-105671580D02*
X88020115Y-106671580D01*
X88020115Y-106671580D02*
X87686782Y-106671580D01*
X87686782Y-106671580D02*
X87591544Y-106623961D01*
X87591544Y-106623961D02*
X87543925Y-106576342D01*
X87543925Y-106576342D02*
X87496306Y-106481104D01*
X87496306Y-106481104D02*
X87496306Y-106385866D01*
X87496306Y-106385866D02*
X87543925Y-106290628D01*
X87543925Y-106290628D02*
X87591544Y-106243009D01*
X87591544Y-106243009D02*
X87686782Y-106195390D01*
X87686782Y-106195390D02*
X88020115Y-106195390D01*
D11*
X82758819Y-102908666D02*
X82282628Y-103241999D01*
X82758819Y-103480094D02*
X81758819Y-103480094D01*
X81758819Y-103480094D02*
X81758819Y-103099142D01*
X81758819Y-103099142D02*
X81806438Y-103003904D01*
X81806438Y-103003904D02*
X81854057Y-102956285D01*
X81854057Y-102956285D02*
X81949295Y-102908666D01*
X81949295Y-102908666D02*
X82092152Y-102908666D01*
X82092152Y-102908666D02*
X82187390Y-102956285D01*
X82187390Y-102956285D02*
X82235009Y-103003904D01*
X82235009Y-103003904D02*
X82282628Y-103099142D01*
X82282628Y-103099142D02*
X82282628Y-103480094D01*
X82758819Y-101956285D02*
X82758819Y-102527713D01*
X82758819Y-102241999D02*
X81758819Y-102241999D01*
X81758819Y-102241999D02*
X81901676Y-102337237D01*
X81901676Y-102337237D02*
X81996914Y-102432475D01*
X81996914Y-102432475D02*
X82044533Y-102527713D01*
X61943333Y-103665580D02*
X61895714Y-103713200D01*
X61895714Y-103713200D02*
X61752857Y-103760819D01*
X61752857Y-103760819D02*
X61657619Y-103760819D01*
X61657619Y-103760819D02*
X61514762Y-103713200D01*
X61514762Y-103713200D02*
X61419524Y-103617961D01*
X61419524Y-103617961D02*
X61371905Y-103522723D01*
X61371905Y-103522723D02*
X61324286Y-103332247D01*
X61324286Y-103332247D02*
X61324286Y-103189390D01*
X61324286Y-103189390D02*
X61371905Y-102998914D01*
X61371905Y-102998914D02*
X61419524Y-102903676D01*
X61419524Y-102903676D02*
X61514762Y-102808438D01*
X61514762Y-102808438D02*
X61657619Y-102760819D01*
X61657619Y-102760819D02*
X61752857Y-102760819D01*
X61752857Y-102760819D02*
X61895714Y-102808438D01*
X61895714Y-102808438D02*
X61943333Y-102856057D01*
X62895714Y-103760819D02*
X62324286Y-103760819D01*
X62610000Y-103760819D02*
X62610000Y-102760819D01*
X62610000Y-102760819D02*
X62514762Y-102903676D01*
X62514762Y-102903676D02*
X62419524Y-102998914D01*
X62419524Y-102998914D02*
X62324286Y-103046533D01*
X66064819Y-106930094D02*
X65064819Y-106930094D01*
X65064819Y-106930094D02*
X65064819Y-106691999D01*
X65064819Y-106691999D02*
X65112438Y-106549142D01*
X65112438Y-106549142D02*
X65207676Y-106453904D01*
X65207676Y-106453904D02*
X65302914Y-106406285D01*
X65302914Y-106406285D02*
X65493390Y-106358666D01*
X65493390Y-106358666D02*
X65636247Y-106358666D01*
X65636247Y-106358666D02*
X65826723Y-106406285D01*
X65826723Y-106406285D02*
X65921961Y-106453904D01*
X65921961Y-106453904D02*
X66017200Y-106549142D01*
X66017200Y-106549142D02*
X66064819Y-106691999D01*
X66064819Y-106691999D02*
X66064819Y-106930094D01*
X65064819Y-106025332D02*
X65064819Y-105406285D01*
X65064819Y-105406285D02*
X65445771Y-105739618D01*
X65445771Y-105739618D02*
X65445771Y-105596761D01*
X65445771Y-105596761D02*
X65493390Y-105501523D01*
X65493390Y-105501523D02*
X65541009Y-105453904D01*
X65541009Y-105453904D02*
X65636247Y-105406285D01*
X65636247Y-105406285D02*
X65874342Y-105406285D01*
X65874342Y-105406285D02*
X65969580Y-105453904D01*
X65969580Y-105453904D02*
X66017200Y-105501523D01*
X66017200Y-105501523D02*
X66064819Y-105596761D01*
X66064819Y-105596761D02*
X66064819Y-105882475D01*
X66064819Y-105882475D02*
X66017200Y-105977713D01*
X66017200Y-105977713D02*
X65969580Y-106025332D01*
X63213333Y-109658819D02*
X62880000Y-109182628D01*
X62641905Y-109658819D02*
X62641905Y-108658819D01*
X62641905Y-108658819D02*
X63022857Y-108658819D01*
X63022857Y-108658819D02*
X63118095Y-108706438D01*
X63118095Y-108706438D02*
X63165714Y-108754057D01*
X63165714Y-108754057D02*
X63213333Y-108849295D01*
X63213333Y-108849295D02*
X63213333Y-108992152D01*
X63213333Y-108992152D02*
X63165714Y-109087390D01*
X63165714Y-109087390D02*
X63118095Y-109135009D01*
X63118095Y-109135009D02*
X63022857Y-109182628D01*
X63022857Y-109182628D02*
X62641905Y-109182628D01*
X63546667Y-108658819D02*
X64165714Y-108658819D01*
X64165714Y-108658819D02*
X63832381Y-109039771D01*
X63832381Y-109039771D02*
X63975238Y-109039771D01*
X63975238Y-109039771D02*
X64070476Y-109087390D01*
X64070476Y-109087390D02*
X64118095Y-109135009D01*
X64118095Y-109135009D02*
X64165714Y-109230247D01*
X64165714Y-109230247D02*
X64165714Y-109468342D01*
X64165714Y-109468342D02*
X64118095Y-109563580D01*
X64118095Y-109563580D02*
X64070476Y-109611200D01*
X64070476Y-109611200D02*
X63975238Y-109658819D01*
X63975238Y-109658819D02*
X63689524Y-109658819D01*
X63689524Y-109658819D02*
X63594286Y-109611200D01*
X63594286Y-109611200D02*
X63546667Y-109563580D01*
X79051580Y-106448666D02*
X79099200Y-106496285D01*
X79099200Y-106496285D02*
X79146819Y-106639142D01*
X79146819Y-106639142D02*
X79146819Y-106734380D01*
X79146819Y-106734380D02*
X79099200Y-106877237D01*
X79099200Y-106877237D02*
X79003961Y-106972475D01*
X79003961Y-106972475D02*
X78908723Y-107020094D01*
X78908723Y-107020094D02*
X78718247Y-107067713D01*
X78718247Y-107067713D02*
X78575390Y-107067713D01*
X78575390Y-107067713D02*
X78384914Y-107020094D01*
X78384914Y-107020094D02*
X78289676Y-106972475D01*
X78289676Y-106972475D02*
X78194438Y-106877237D01*
X78194438Y-106877237D02*
X78146819Y-106734380D01*
X78146819Y-106734380D02*
X78146819Y-106639142D01*
X78146819Y-106639142D02*
X78194438Y-106496285D01*
X78194438Y-106496285D02*
X78242057Y-106448666D01*
X78242057Y-106067713D02*
X78194438Y-106020094D01*
X78194438Y-106020094D02*
X78146819Y-105924856D01*
X78146819Y-105924856D02*
X78146819Y-105686761D01*
X78146819Y-105686761D02*
X78194438Y-105591523D01*
X78194438Y-105591523D02*
X78242057Y-105543904D01*
X78242057Y-105543904D02*
X78337295Y-105496285D01*
X78337295Y-105496285D02*
X78432533Y-105496285D01*
X78432533Y-105496285D02*
X78575390Y-105543904D01*
X78575390Y-105543904D02*
X79146819Y-106115332D01*
X79146819Y-106115332D02*
X79146819Y-105496285D01*
X86058819Y-106972666D02*
X85582628Y-107305999D01*
X86058819Y-107544094D02*
X85058819Y-107544094D01*
X85058819Y-107544094D02*
X85058819Y-107163142D01*
X85058819Y-107163142D02*
X85106438Y-107067904D01*
X85106438Y-107067904D02*
X85154057Y-107020285D01*
X85154057Y-107020285D02*
X85249295Y-106972666D01*
X85249295Y-106972666D02*
X85392152Y-106972666D01*
X85392152Y-106972666D02*
X85487390Y-107020285D01*
X85487390Y-107020285D02*
X85535009Y-107067904D01*
X85535009Y-107067904D02*
X85582628Y-107163142D01*
X85582628Y-107163142D02*
X85582628Y-107544094D01*
X85154057Y-106591713D02*
X85106438Y-106544094D01*
X85106438Y-106544094D02*
X85058819Y-106448856D01*
X85058819Y-106448856D02*
X85058819Y-106210761D01*
X85058819Y-106210761D02*
X85106438Y-106115523D01*
X85106438Y-106115523D02*
X85154057Y-106067904D01*
X85154057Y-106067904D02*
X85249295Y-106020285D01*
X85249295Y-106020285D02*
X85344533Y-106020285D01*
X85344533Y-106020285D02*
X85487390Y-106067904D01*
X85487390Y-106067904D02*
X86058819Y-106639332D01*
X86058819Y-106639332D02*
X86058819Y-106020285D01*
X69720095Y-111612819D02*
X69720095Y-112422342D01*
X69720095Y-112422342D02*
X69767714Y-112517580D01*
X69767714Y-112517580D02*
X69815333Y-112565200D01*
X69815333Y-112565200D02*
X69910571Y-112612819D01*
X69910571Y-112612819D02*
X70101047Y-112612819D01*
X70101047Y-112612819D02*
X70196285Y-112565200D01*
X70196285Y-112565200D02*
X70243904Y-112517580D01*
X70243904Y-112517580D02*
X70291523Y-112422342D01*
X70291523Y-112422342D02*
X70291523Y-111612819D01*
X71291523Y-112612819D02*
X70720095Y-112612819D01*
X71005809Y-112612819D02*
X71005809Y-111612819D01*
X71005809Y-111612819D02*
X70910571Y-111755676D01*
X70910571Y-111755676D02*
X70815333Y-111850914D01*
X70815333Y-111850914D02*
X70720095Y-111898533D01*
X77373905Y-112546819D02*
X77373905Y-111546819D01*
X77373905Y-111546819D02*
X77612000Y-111546819D01*
X77612000Y-111546819D02*
X77754857Y-111594438D01*
X77754857Y-111594438D02*
X77850095Y-111689676D01*
X77850095Y-111689676D02*
X77897714Y-111784914D01*
X77897714Y-111784914D02*
X77945333Y-111975390D01*
X77945333Y-111975390D02*
X77945333Y-112118247D01*
X77945333Y-112118247D02*
X77897714Y-112308723D01*
X77897714Y-112308723D02*
X77850095Y-112403961D01*
X77850095Y-112403961D02*
X77754857Y-112499200D01*
X77754857Y-112499200D02*
X77612000Y-112546819D01*
X77612000Y-112546819D02*
X77373905Y-112546819D01*
X78897714Y-112546819D02*
X78326286Y-112546819D01*
X78612000Y-112546819D02*
X78612000Y-111546819D01*
X78612000Y-111546819D02*
X78516762Y-111689676D01*
X78516762Y-111689676D02*
X78421524Y-111784914D01*
X78421524Y-111784914D02*
X78326286Y-111832533D01*
X126756095Y-99496819D02*
X126756095Y-100306342D01*
X126756095Y-100306342D02*
X126803714Y-100401580D01*
X126803714Y-100401580D02*
X126851333Y-100449200D01*
X126851333Y-100449200D02*
X126946571Y-100496819D01*
X126946571Y-100496819D02*
X127137047Y-100496819D01*
X127137047Y-100496819D02*
X127232285Y-100449200D01*
X127232285Y-100449200D02*
X127279904Y-100401580D01*
X127279904Y-100401580D02*
X127327523Y-100306342D01*
X127327523Y-100306342D02*
X127327523Y-99496819D01*
X128327523Y-100496819D02*
X127756095Y-100496819D01*
X128041809Y-100496819D02*
X128041809Y-99496819D01*
X128041809Y-99496819D02*
X127946571Y-99639676D01*
X127946571Y-99639676D02*
X127851333Y-99734914D01*
X127851333Y-99734914D02*
X127756095Y-99782533D01*
X119667580Y-106084666D02*
X119715200Y-106132285D01*
X119715200Y-106132285D02*
X119762819Y-106275142D01*
X119762819Y-106275142D02*
X119762819Y-106370380D01*
X119762819Y-106370380D02*
X119715200Y-106513237D01*
X119715200Y-106513237D02*
X119619961Y-106608475D01*
X119619961Y-106608475D02*
X119524723Y-106656094D01*
X119524723Y-106656094D02*
X119334247Y-106703713D01*
X119334247Y-106703713D02*
X119191390Y-106703713D01*
X119191390Y-106703713D02*
X119000914Y-106656094D01*
X119000914Y-106656094D02*
X118905676Y-106608475D01*
X118905676Y-106608475D02*
X118810438Y-106513237D01*
X118810438Y-106513237D02*
X118762819Y-106370380D01*
X118762819Y-106370380D02*
X118762819Y-106275142D01*
X118762819Y-106275142D02*
X118810438Y-106132285D01*
X118810438Y-106132285D02*
X118858057Y-106084666D01*
X118858057Y-105703713D02*
X118810438Y-105656094D01*
X118810438Y-105656094D02*
X118762819Y-105560856D01*
X118762819Y-105560856D02*
X118762819Y-105322761D01*
X118762819Y-105322761D02*
X118810438Y-105227523D01*
X118810438Y-105227523D02*
X118858057Y-105179904D01*
X118858057Y-105179904D02*
X118953295Y-105132285D01*
X118953295Y-105132285D02*
X119048533Y-105132285D01*
X119048533Y-105132285D02*
X119191390Y-105179904D01*
X119191390Y-105179904D02*
X119762819Y-105751332D01*
X119762819Y-105751332D02*
X119762819Y-105132285D01*
X119149905Y-100562819D02*
X119149905Y-99562819D01*
X119149905Y-99562819D02*
X119388000Y-99562819D01*
X119388000Y-99562819D02*
X119530857Y-99610438D01*
X119530857Y-99610438D02*
X119626095Y-99705676D01*
X119626095Y-99705676D02*
X119673714Y-99800914D01*
X119673714Y-99800914D02*
X119721333Y-99991390D01*
X119721333Y-99991390D02*
X119721333Y-100134247D01*
X119721333Y-100134247D02*
X119673714Y-100324723D01*
X119673714Y-100324723D02*
X119626095Y-100419961D01*
X119626095Y-100419961D02*
X119530857Y-100515200D01*
X119530857Y-100515200D02*
X119388000Y-100562819D01*
X119388000Y-100562819D02*
X119149905Y-100562819D01*
X120673714Y-100562819D02*
X120102286Y-100562819D01*
X120388000Y-100562819D02*
X120388000Y-99562819D01*
X120388000Y-99562819D02*
X120292762Y-99705676D01*
X120292762Y-99705676D02*
X120197524Y-99800914D01*
X120197524Y-99800914D02*
X120102286Y-99848533D01*
X134453333Y-103450819D02*
X134120000Y-102974628D01*
X133881905Y-103450819D02*
X133881905Y-102450819D01*
X133881905Y-102450819D02*
X134262857Y-102450819D01*
X134262857Y-102450819D02*
X134358095Y-102498438D01*
X134358095Y-102498438D02*
X134405714Y-102546057D01*
X134405714Y-102546057D02*
X134453333Y-102641295D01*
X134453333Y-102641295D02*
X134453333Y-102784152D01*
X134453333Y-102784152D02*
X134405714Y-102879390D01*
X134405714Y-102879390D02*
X134358095Y-102927009D01*
X134358095Y-102927009D02*
X134262857Y-102974628D01*
X134262857Y-102974628D02*
X133881905Y-102974628D01*
X134786667Y-102450819D02*
X135405714Y-102450819D01*
X135405714Y-102450819D02*
X135072381Y-102831771D01*
X135072381Y-102831771D02*
X135215238Y-102831771D01*
X135215238Y-102831771D02*
X135310476Y-102879390D01*
X135310476Y-102879390D02*
X135358095Y-102927009D01*
X135358095Y-102927009D02*
X135405714Y-103022247D01*
X135405714Y-103022247D02*
X135405714Y-103260342D01*
X135405714Y-103260342D02*
X135358095Y-103355580D01*
X135358095Y-103355580D02*
X135310476Y-103403200D01*
X135310476Y-103403200D02*
X135215238Y-103450819D01*
X135215238Y-103450819D02*
X134929524Y-103450819D01*
X134929524Y-103450819D02*
X134834286Y-103403200D01*
X134834286Y-103403200D02*
X134786667Y-103355580D01*
X135723333Y-109253580D02*
X135675714Y-109301200D01*
X135675714Y-109301200D02*
X135532857Y-109348819D01*
X135532857Y-109348819D02*
X135437619Y-109348819D01*
X135437619Y-109348819D02*
X135294762Y-109301200D01*
X135294762Y-109301200D02*
X135199524Y-109205961D01*
X135199524Y-109205961D02*
X135151905Y-109110723D01*
X135151905Y-109110723D02*
X135104286Y-108920247D01*
X135104286Y-108920247D02*
X135104286Y-108777390D01*
X135104286Y-108777390D02*
X135151905Y-108586914D01*
X135151905Y-108586914D02*
X135199524Y-108491676D01*
X135199524Y-108491676D02*
X135294762Y-108396438D01*
X135294762Y-108396438D02*
X135437619Y-108348819D01*
X135437619Y-108348819D02*
X135532857Y-108348819D01*
X135532857Y-108348819D02*
X135675714Y-108396438D01*
X135675714Y-108396438D02*
X135723333Y-108444057D01*
X136675714Y-109348819D02*
X136104286Y-109348819D01*
X136390000Y-109348819D02*
X136390000Y-108348819D01*
X136390000Y-108348819D02*
X136294762Y-108491676D01*
X136294762Y-108491676D02*
X136199524Y-108586914D01*
X136199524Y-108586914D02*
X136104286Y-108634533D01*
X132844819Y-106746094D02*
X131844819Y-106746094D01*
X131844819Y-106746094D02*
X131844819Y-106507999D01*
X131844819Y-106507999D02*
X131892438Y-106365142D01*
X131892438Y-106365142D02*
X131987676Y-106269904D01*
X131987676Y-106269904D02*
X132082914Y-106222285D01*
X132082914Y-106222285D02*
X132273390Y-106174666D01*
X132273390Y-106174666D02*
X132416247Y-106174666D01*
X132416247Y-106174666D02*
X132606723Y-106222285D01*
X132606723Y-106222285D02*
X132701961Y-106269904D01*
X132701961Y-106269904D02*
X132797200Y-106365142D01*
X132797200Y-106365142D02*
X132844819Y-106507999D01*
X132844819Y-106507999D02*
X132844819Y-106746094D01*
X131844819Y-105841332D02*
X131844819Y-105222285D01*
X131844819Y-105222285D02*
X132225771Y-105555618D01*
X132225771Y-105555618D02*
X132225771Y-105412761D01*
X132225771Y-105412761D02*
X132273390Y-105317523D01*
X132273390Y-105317523D02*
X132321009Y-105269904D01*
X132321009Y-105269904D02*
X132416247Y-105222285D01*
X132416247Y-105222285D02*
X132654342Y-105222285D01*
X132654342Y-105222285D02*
X132749580Y-105269904D01*
X132749580Y-105269904D02*
X132797200Y-105317523D01*
X132797200Y-105317523D02*
X132844819Y-105412761D01*
X132844819Y-105412761D02*
X132844819Y-105698475D01*
X132844819Y-105698475D02*
X132797200Y-105793713D01*
X132797200Y-105793713D02*
X132749580Y-105841332D01*
X112850819Y-105560666D02*
X112374628Y-105893999D01*
X112850819Y-106132094D02*
X111850819Y-106132094D01*
X111850819Y-106132094D02*
X111850819Y-105751142D01*
X111850819Y-105751142D02*
X111898438Y-105655904D01*
X111898438Y-105655904D02*
X111946057Y-105608285D01*
X111946057Y-105608285D02*
X112041295Y-105560666D01*
X112041295Y-105560666D02*
X112184152Y-105560666D01*
X112184152Y-105560666D02*
X112279390Y-105608285D01*
X112279390Y-105608285D02*
X112327009Y-105655904D01*
X112327009Y-105655904D02*
X112374628Y-105751142D01*
X112374628Y-105751142D02*
X112374628Y-106132094D01*
X111946057Y-105179713D02*
X111898438Y-105132094D01*
X111898438Y-105132094D02*
X111850819Y-105036856D01*
X111850819Y-105036856D02*
X111850819Y-104798761D01*
X111850819Y-104798761D02*
X111898438Y-104703523D01*
X111898438Y-104703523D02*
X111946057Y-104655904D01*
X111946057Y-104655904D02*
X112041295Y-104608285D01*
X112041295Y-104608285D02*
X112136533Y-104608285D01*
X112136533Y-104608285D02*
X112279390Y-104655904D01*
X112279390Y-104655904D02*
X112850819Y-105227332D01*
X112850819Y-105227332D02*
X112850819Y-104608285D01*
X117117905Y-108944819D02*
X117117905Y-107944819D01*
X117117905Y-107944819D02*
X117356000Y-107944819D01*
X117356000Y-107944819D02*
X117498857Y-107992438D01*
X117498857Y-107992438D02*
X117594095Y-108087676D01*
X117594095Y-108087676D02*
X117641714Y-108182914D01*
X117641714Y-108182914D02*
X117689333Y-108373390D01*
X117689333Y-108373390D02*
X117689333Y-108516247D01*
X117689333Y-108516247D02*
X117641714Y-108706723D01*
X117641714Y-108706723D02*
X117594095Y-108801961D01*
X117594095Y-108801961D02*
X117498857Y-108897200D01*
X117498857Y-108897200D02*
X117356000Y-108944819D01*
X117356000Y-108944819D02*
X117117905Y-108944819D01*
X118070286Y-108040057D02*
X118117905Y-107992438D01*
X118117905Y-107992438D02*
X118213143Y-107944819D01*
X118213143Y-107944819D02*
X118451238Y-107944819D01*
X118451238Y-107944819D02*
X118546476Y-107992438D01*
X118546476Y-107992438D02*
X118594095Y-108040057D01*
X118594095Y-108040057D02*
X118641714Y-108135295D01*
X118641714Y-108135295D02*
X118641714Y-108230533D01*
X118641714Y-108230533D02*
X118594095Y-108373390D01*
X118594095Y-108373390D02*
X118022667Y-108944819D01*
X118022667Y-108944819D02*
X118641714Y-108944819D01*
X116150819Y-109624666D02*
X115674628Y-109957999D01*
X116150819Y-110196094D02*
X115150819Y-110196094D01*
X115150819Y-110196094D02*
X115150819Y-109815142D01*
X115150819Y-109815142D02*
X115198438Y-109719904D01*
X115198438Y-109719904D02*
X115246057Y-109672285D01*
X115246057Y-109672285D02*
X115341295Y-109624666D01*
X115341295Y-109624666D02*
X115484152Y-109624666D01*
X115484152Y-109624666D02*
X115579390Y-109672285D01*
X115579390Y-109672285D02*
X115627009Y-109719904D01*
X115627009Y-109719904D02*
X115674628Y-109815142D01*
X115674628Y-109815142D02*
X115674628Y-110196094D01*
X116150819Y-108672285D02*
X116150819Y-109243713D01*
X116150819Y-108957999D02*
X115150819Y-108957999D01*
X115150819Y-108957999D02*
X115293676Y-109053237D01*
X115293676Y-109053237D02*
X115388914Y-109148475D01*
X115388914Y-109148475D02*
X115436533Y-109243713D01*
X114911333Y-101166819D02*
X114578000Y-100690628D01*
X114339905Y-101166819D02*
X114339905Y-100166819D01*
X114339905Y-100166819D02*
X114720857Y-100166819D01*
X114720857Y-100166819D02*
X114816095Y-100214438D01*
X114816095Y-100214438D02*
X114863714Y-100262057D01*
X114863714Y-100262057D02*
X114911333Y-100357295D01*
X114911333Y-100357295D02*
X114911333Y-100500152D01*
X114911333Y-100500152D02*
X114863714Y-100595390D01*
X114863714Y-100595390D02*
X114816095Y-100643009D01*
X114816095Y-100643009D02*
X114720857Y-100690628D01*
X114720857Y-100690628D02*
X114339905Y-100690628D01*
X115768476Y-100500152D02*
X115768476Y-101166819D01*
X115530381Y-100119200D02*
X115292286Y-100833485D01*
X115292286Y-100833485D02*
X115911333Y-100833485D01*
D10*
X102914095Y-105113419D02*
X102914095Y-105922942D01*
X102914095Y-105922942D02*
X102961714Y-106018180D01*
X102961714Y-106018180D02*
X103009333Y-106065800D01*
X103009333Y-106065800D02*
X103104571Y-106113419D01*
X103104571Y-106113419D02*
X103295047Y-106113419D01*
X103295047Y-106113419D02*
X103390285Y-106065800D01*
X103390285Y-106065800D02*
X103437904Y-106018180D01*
X103437904Y-106018180D02*
X103485523Y-105922942D01*
X103485523Y-105922942D02*
X103485523Y-105113419D01*
X103914095Y-105208657D02*
X103961714Y-105161038D01*
X103961714Y-105161038D02*
X104056952Y-105113419D01*
X104056952Y-105113419D02*
X104295047Y-105113419D01*
X104295047Y-105113419D02*
X104390285Y-105161038D01*
X104390285Y-105161038D02*
X104437904Y-105208657D01*
X104437904Y-105208657D02*
X104485523Y-105303895D01*
X104485523Y-105303895D02*
X104485523Y-105399133D01*
X104485523Y-105399133D02*
X104437904Y-105541990D01*
X104437904Y-105541990D02*
X103866476Y-106113419D01*
X103866476Y-106113419D02*
X104485523Y-106113419D01*
X107979884Y-105528419D02*
X107979884Y-106337942D01*
X107979884Y-106337942D02*
X108027503Y-106433180D01*
X108027503Y-106433180D02*
X108075122Y-106480800D01*
X108075122Y-106480800D02*
X108170360Y-106528419D01*
X108170360Y-106528419D02*
X108360836Y-106528419D01*
X108360836Y-106528419D02*
X108456074Y-106480800D01*
X108456074Y-106480800D02*
X108503693Y-106433180D01*
X108503693Y-106433180D02*
X108551312Y-106337942D01*
X108551312Y-106337942D02*
X108551312Y-105528419D01*
X108979884Y-106480800D02*
X109122741Y-106528419D01*
X109122741Y-106528419D02*
X109360836Y-106528419D01*
X109360836Y-106528419D02*
X109456074Y-106480800D01*
X109456074Y-106480800D02*
X109503693Y-106433180D01*
X109503693Y-106433180D02*
X109551312Y-106337942D01*
X109551312Y-106337942D02*
X109551312Y-106242704D01*
X109551312Y-106242704D02*
X109503693Y-106147466D01*
X109503693Y-106147466D02*
X109456074Y-106099847D01*
X109456074Y-106099847D02*
X109360836Y-106052228D01*
X109360836Y-106052228D02*
X109170360Y-106004609D01*
X109170360Y-106004609D02*
X109075122Y-105956990D01*
X109075122Y-105956990D02*
X109027503Y-105909371D01*
X109027503Y-105909371D02*
X108979884Y-105814133D01*
X108979884Y-105814133D02*
X108979884Y-105718895D01*
X108979884Y-105718895D02*
X109027503Y-105623657D01*
X109027503Y-105623657D02*
X109075122Y-105576038D01*
X109075122Y-105576038D02*
X109170360Y-105528419D01*
X109170360Y-105528419D02*
X109408455Y-105528419D01*
X109408455Y-105528419D02*
X109551312Y-105576038D01*
X110313217Y-106004609D02*
X110456074Y-106052228D01*
X110456074Y-106052228D02*
X110503693Y-106099847D01*
X110503693Y-106099847D02*
X110551312Y-106195085D01*
X110551312Y-106195085D02*
X110551312Y-106337942D01*
X110551312Y-106337942D02*
X110503693Y-106433180D01*
X110503693Y-106433180D02*
X110456074Y-106480800D01*
X110456074Y-106480800D02*
X110360836Y-106528419D01*
X110360836Y-106528419D02*
X109979884Y-106528419D01*
X109979884Y-106528419D02*
X109979884Y-105528419D01*
X109979884Y-105528419D02*
X110313217Y-105528419D01*
X110313217Y-105528419D02*
X110408455Y-105576038D01*
X110408455Y-105576038D02*
X110456074Y-105623657D01*
X110456074Y-105623657D02*
X110503693Y-105718895D01*
X110503693Y-105718895D02*
X110503693Y-105814133D01*
X110503693Y-105814133D02*
X110456074Y-105909371D01*
X110456074Y-105909371D02*
X110408455Y-105956990D01*
X110408455Y-105956990D02*
X110313217Y-106004609D01*
X110313217Y-106004609D02*
X109979884Y-106004609D01*
D12*
%TO.C,D2*%
X82504000Y-45910000D02*
X82504000Y-43910000D01*
X82504000Y-45910000D02*
X78494000Y-45910000D01*
X82504000Y-43910000D02*
X78494000Y-43910000D01*
%TO.C,R1*%
X83219000Y-46169064D02*
X83219000Y-45714936D01*
X84689000Y-46169064D02*
X84689000Y-45714936D01*
%TO.C,R4*%
X83149064Y-53773000D02*
X82694936Y-53773000D01*
X83149064Y-52303000D02*
X82694936Y-52303000D01*
%TO.C,R3*%
X63152936Y-53319000D02*
X63607064Y-53319000D01*
X63152936Y-54789000D02*
X63607064Y-54789000D01*
%TO.C,R2*%
X84689000Y-49778936D02*
X84689000Y-50233064D01*
X83219000Y-49778936D02*
X83219000Y-50233064D01*
%TO.C,U1*%
X73132000Y-54358000D02*
X73132000Y-44078000D01*
X73132000Y-44078000D02*
X67832000Y-44078000D01*
X71482000Y-54358000D02*
X73132000Y-54358000D01*
X67832000Y-54358000D02*
X69482000Y-54358000D01*
X67832000Y-44078000D02*
X67832000Y-54358000D01*
X71482000Y-54358000D02*
G75*
G03*
X69482000Y-54358000I-1000000J0D01*
G01*
%TO.C,D1*%
X80472000Y-54292000D02*
X80472000Y-52292000D01*
X80472000Y-54292000D02*
X76462000Y-54292000D01*
X80472000Y-52292000D02*
X76462000Y-52292000D01*
%TO.C,D3*%
X64860000Y-45742000D02*
X64860000Y-53042000D01*
X59360000Y-45742000D02*
X59360000Y-53042000D01*
X59360000Y-53042000D02*
X60510000Y-53042000D01*
%TO.C,C1*%
X62821252Y-45566000D02*
X61398748Y-45566000D01*
X62821252Y-43746000D02*
X61398748Y-43746000D01*
%TO.C,D2*%
X115496000Y-52690000D02*
X115496000Y-54690000D01*
X115496000Y-52690000D02*
X119506000Y-52690000D01*
X115496000Y-54690000D02*
X119506000Y-54690000D01*
%TO.C,R4*%
X114850936Y-44827000D02*
X115305064Y-44827000D01*
X114850936Y-46297000D02*
X115305064Y-46297000D01*
%TO.C,R1*%
X114781000Y-52430936D02*
X114781000Y-52885064D01*
X113311000Y-52430936D02*
X113311000Y-52885064D01*
%TO.C,C1*%
X135178748Y-53034000D02*
X136601252Y-53034000D01*
X135178748Y-54854000D02*
X136601252Y-54854000D01*
%TO.C,D3*%
X133140000Y-52858000D02*
X133140000Y-45558000D01*
X138640000Y-52858000D02*
X138640000Y-45558000D01*
X138640000Y-45558000D02*
X137490000Y-45558000D01*
%TO.C,R3*%
X134847064Y-45281000D02*
X134392936Y-45281000D01*
X134847064Y-43811000D02*
X134392936Y-43811000D01*
%TO.C,C2*%
X120248000Y-49829252D02*
X120248000Y-48406748D01*
X122068000Y-49829252D02*
X122068000Y-48406748D01*
%TO.C,R2*%
X113311000Y-48821064D02*
X113311000Y-48366936D01*
X114781000Y-48821064D02*
X114781000Y-48366936D01*
%TO.C,U1*%
X124868000Y-44242000D02*
X124868000Y-54522000D01*
X124868000Y-54522000D02*
X130168000Y-54522000D01*
X126518000Y-44242000D02*
X124868000Y-44242000D01*
X130168000Y-44242000D02*
X128518000Y-44242000D01*
X130168000Y-54522000D02*
X130168000Y-44242000D01*
X126518000Y-44242000D02*
G75*
G03*
X128518000Y-44242000I1000000J0D01*
G01*
%TO.C,C2*%
X77752000Y-48770748D02*
X77752000Y-50193252D01*
X75932000Y-48770748D02*
X75932000Y-50193252D01*
%TO.C,D1*%
X117528000Y-44308000D02*
X117528000Y-46308000D01*
X117528000Y-44308000D02*
X121538000Y-44308000D01*
X117528000Y-46308000D02*
X121538000Y-46308000D01*
%TO.C,D2*%
X82504000Y-60110000D02*
X82504000Y-58110000D01*
X82504000Y-60110000D02*
X78494000Y-60110000D01*
X82504000Y-58110000D02*
X78494000Y-58110000D01*
%TO.C,R1*%
X83219000Y-60369064D02*
X83219000Y-59914936D01*
X84689000Y-60369064D02*
X84689000Y-59914936D01*
%TO.C,R4*%
X83149064Y-67973000D02*
X82694936Y-67973000D01*
X83149064Y-66503000D02*
X82694936Y-66503000D01*
%TO.C,R3*%
X63152936Y-67519000D02*
X63607064Y-67519000D01*
X63152936Y-68989000D02*
X63607064Y-68989000D01*
%TO.C,R2*%
X84689000Y-63978936D02*
X84689000Y-64433064D01*
X83219000Y-63978936D02*
X83219000Y-64433064D01*
%TO.C,U1*%
X73132000Y-68558000D02*
X73132000Y-58278000D01*
X73132000Y-58278000D02*
X67832000Y-58278000D01*
X71482000Y-68558000D02*
X73132000Y-68558000D01*
X67832000Y-68558000D02*
X69482000Y-68558000D01*
X67832000Y-58278000D02*
X67832000Y-68558000D01*
X71482000Y-68558000D02*
G75*
G03*
X69482000Y-68558000I-1000000J0D01*
G01*
%TO.C,D1*%
X80472000Y-68492000D02*
X80472000Y-66492000D01*
X80472000Y-68492000D02*
X76462000Y-68492000D01*
X80472000Y-66492000D02*
X76462000Y-66492000D01*
%TO.C,D3*%
X64860000Y-59942000D02*
X64860000Y-67242000D01*
X59360000Y-59942000D02*
X59360000Y-67242000D01*
X59360000Y-67242000D02*
X60510000Y-67242000D01*
%TO.C,C1*%
X62821252Y-59766000D02*
X61398748Y-59766000D01*
X62821252Y-57946000D02*
X61398748Y-57946000D01*
%TO.C,D2*%
X115496000Y-66890000D02*
X115496000Y-68890000D01*
X115496000Y-66890000D02*
X119506000Y-66890000D01*
X115496000Y-68890000D02*
X119506000Y-68890000D01*
%TO.C,R4*%
X114850936Y-59027000D02*
X115305064Y-59027000D01*
X114850936Y-60497000D02*
X115305064Y-60497000D01*
%TO.C,R1*%
X114781000Y-66630936D02*
X114781000Y-67085064D01*
X113311000Y-66630936D02*
X113311000Y-67085064D01*
%TO.C,C1*%
X135178748Y-67234000D02*
X136601252Y-67234000D01*
X135178748Y-69054000D02*
X136601252Y-69054000D01*
%TO.C,D3*%
X133140000Y-67058000D02*
X133140000Y-59758000D01*
X138640000Y-67058000D02*
X138640000Y-59758000D01*
X138640000Y-59758000D02*
X137490000Y-59758000D01*
%TO.C,R3*%
X134847064Y-59481000D02*
X134392936Y-59481000D01*
X134847064Y-58011000D02*
X134392936Y-58011000D01*
%TO.C,C2*%
X120248000Y-64029252D02*
X120248000Y-62606748D01*
X122068000Y-64029252D02*
X122068000Y-62606748D01*
%TO.C,R2*%
X113311000Y-63021064D02*
X113311000Y-62566936D01*
X114781000Y-63021064D02*
X114781000Y-62566936D01*
%TO.C,U1*%
X124868000Y-58442000D02*
X124868000Y-68722000D01*
X124868000Y-68722000D02*
X130168000Y-68722000D01*
X126518000Y-58442000D02*
X124868000Y-58442000D01*
X130168000Y-58442000D02*
X128518000Y-58442000D01*
X130168000Y-68722000D02*
X130168000Y-58442000D01*
X126518000Y-58442000D02*
G75*
G03*
X128518000Y-58442000I1000000J0D01*
G01*
%TO.C,C2*%
X77752000Y-62970748D02*
X77752000Y-64393252D01*
X75932000Y-62970748D02*
X75932000Y-64393252D01*
%TO.C,D1*%
X117528000Y-58508000D02*
X117528000Y-60508000D01*
X117528000Y-58508000D02*
X121538000Y-58508000D01*
X117528000Y-60508000D02*
X121538000Y-60508000D01*
%TO.C,D2*%
X82504000Y-74310000D02*
X82504000Y-72310000D01*
X82504000Y-74310000D02*
X78494000Y-74310000D01*
X82504000Y-72310000D02*
X78494000Y-72310000D01*
%TO.C,R1*%
X83219000Y-74569064D02*
X83219000Y-74114936D01*
X84689000Y-74569064D02*
X84689000Y-74114936D01*
%TO.C,R4*%
X83149064Y-82173000D02*
X82694936Y-82173000D01*
X83149064Y-80703000D02*
X82694936Y-80703000D01*
%TO.C,R3*%
X63152936Y-81719000D02*
X63607064Y-81719000D01*
X63152936Y-83189000D02*
X63607064Y-83189000D01*
%TO.C,R2*%
X84689000Y-78178936D02*
X84689000Y-78633064D01*
X83219000Y-78178936D02*
X83219000Y-78633064D01*
%TO.C,U1*%
X73132000Y-82758000D02*
X73132000Y-72478000D01*
X73132000Y-72478000D02*
X67832000Y-72478000D01*
X71482000Y-82758000D02*
X73132000Y-82758000D01*
X67832000Y-82758000D02*
X69482000Y-82758000D01*
X67832000Y-72478000D02*
X67832000Y-82758000D01*
X71482000Y-82758000D02*
G75*
G03*
X69482000Y-82758000I-1000000J0D01*
G01*
%TO.C,D1*%
X80472000Y-82692000D02*
X80472000Y-80692000D01*
X80472000Y-82692000D02*
X76462000Y-82692000D01*
X80472000Y-80692000D02*
X76462000Y-80692000D01*
%TO.C,D3*%
X64860000Y-74142000D02*
X64860000Y-81442000D01*
X59360000Y-74142000D02*
X59360000Y-81442000D01*
X59360000Y-81442000D02*
X60510000Y-81442000D01*
%TO.C,C1*%
X62821252Y-73966000D02*
X61398748Y-73966000D01*
X62821252Y-72146000D02*
X61398748Y-72146000D01*
%TO.C,D2*%
X115496000Y-81090000D02*
X115496000Y-83090000D01*
X115496000Y-81090000D02*
X119506000Y-81090000D01*
X115496000Y-83090000D02*
X119506000Y-83090000D01*
%TO.C,R4*%
X114850936Y-73227000D02*
X115305064Y-73227000D01*
X114850936Y-74697000D02*
X115305064Y-74697000D01*
%TO.C,R1*%
X114781000Y-80830936D02*
X114781000Y-81285064D01*
X113311000Y-80830936D02*
X113311000Y-81285064D01*
%TO.C,C1*%
X135178748Y-81434000D02*
X136601252Y-81434000D01*
X135178748Y-83254000D02*
X136601252Y-83254000D01*
%TO.C,D3*%
X133140000Y-81258000D02*
X133140000Y-73958000D01*
X138640000Y-81258000D02*
X138640000Y-73958000D01*
X138640000Y-73958000D02*
X137490000Y-73958000D01*
%TO.C,R3*%
X134847064Y-73681000D02*
X134392936Y-73681000D01*
X134847064Y-72211000D02*
X134392936Y-72211000D01*
%TO.C,C2*%
X120248000Y-78229252D02*
X120248000Y-76806748D01*
X122068000Y-78229252D02*
X122068000Y-76806748D01*
%TO.C,R2*%
X113311000Y-77221064D02*
X113311000Y-76766936D01*
X114781000Y-77221064D02*
X114781000Y-76766936D01*
%TO.C,U1*%
X124868000Y-72642000D02*
X124868000Y-82922000D01*
X124868000Y-82922000D02*
X130168000Y-82922000D01*
X126518000Y-72642000D02*
X124868000Y-72642000D01*
X130168000Y-72642000D02*
X128518000Y-72642000D01*
X130168000Y-82922000D02*
X130168000Y-72642000D01*
X126518000Y-72642000D02*
G75*
G03*
X128518000Y-72642000I1000000J0D01*
G01*
%TO.C,C2*%
X77752000Y-77170748D02*
X77752000Y-78593252D01*
X75932000Y-77170748D02*
X75932000Y-78593252D01*
%TO.C,D1*%
X117528000Y-72708000D02*
X117528000Y-74708000D01*
X117528000Y-72708000D02*
X121538000Y-72708000D01*
X117528000Y-74708000D02*
X121538000Y-74708000D01*
%TO.C,D2*%
X82504000Y-88510000D02*
X82504000Y-86510000D01*
X82504000Y-88510000D02*
X78494000Y-88510000D01*
X82504000Y-86510000D02*
X78494000Y-86510000D01*
%TO.C,R1*%
X83219000Y-88769064D02*
X83219000Y-88314936D01*
X84689000Y-88769064D02*
X84689000Y-88314936D01*
%TO.C,R4*%
X83149064Y-96373000D02*
X82694936Y-96373000D01*
X83149064Y-94903000D02*
X82694936Y-94903000D01*
%TO.C,R3*%
X63152936Y-95919000D02*
X63607064Y-95919000D01*
X63152936Y-97389000D02*
X63607064Y-97389000D01*
%TO.C,R2*%
X84689000Y-92378936D02*
X84689000Y-92833064D01*
X83219000Y-92378936D02*
X83219000Y-92833064D01*
%TO.C,U1*%
X73132000Y-96958000D02*
X73132000Y-86678000D01*
X73132000Y-86678000D02*
X67832000Y-86678000D01*
X71482000Y-96958000D02*
X73132000Y-96958000D01*
X67832000Y-96958000D02*
X69482000Y-96958000D01*
X67832000Y-86678000D02*
X67832000Y-96958000D01*
X71482000Y-96958000D02*
G75*
G03*
X69482000Y-96958000I-1000000J0D01*
G01*
%TO.C,D1*%
X80472000Y-96892000D02*
X80472000Y-94892000D01*
X80472000Y-96892000D02*
X76462000Y-96892000D01*
X80472000Y-94892000D02*
X76462000Y-94892000D01*
%TO.C,D3*%
X64860000Y-88342000D02*
X64860000Y-95642000D01*
X59360000Y-88342000D02*
X59360000Y-95642000D01*
X59360000Y-95642000D02*
X60510000Y-95642000D01*
%TO.C,C1*%
X62821252Y-88166000D02*
X61398748Y-88166000D01*
X62821252Y-86346000D02*
X61398748Y-86346000D01*
%TO.C,D2*%
X115496000Y-95290000D02*
X115496000Y-97290000D01*
X115496000Y-95290000D02*
X119506000Y-95290000D01*
X115496000Y-97290000D02*
X119506000Y-97290000D01*
%TO.C,R4*%
X114850936Y-87427000D02*
X115305064Y-87427000D01*
X114850936Y-88897000D02*
X115305064Y-88897000D01*
%TO.C,R1*%
X114781000Y-95030936D02*
X114781000Y-95485064D01*
X113311000Y-95030936D02*
X113311000Y-95485064D01*
%TO.C,C1*%
X135178748Y-95634000D02*
X136601252Y-95634000D01*
X135178748Y-97454000D02*
X136601252Y-97454000D01*
%TO.C,D3*%
X133140000Y-95458000D02*
X133140000Y-88158000D01*
X138640000Y-95458000D02*
X138640000Y-88158000D01*
X138640000Y-88158000D02*
X137490000Y-88158000D01*
%TO.C,R3*%
X134847064Y-87881000D02*
X134392936Y-87881000D01*
X134847064Y-86411000D02*
X134392936Y-86411000D01*
%TO.C,C2*%
X120248000Y-92429252D02*
X120248000Y-91006748D01*
X122068000Y-92429252D02*
X122068000Y-91006748D01*
%TO.C,R2*%
X113311000Y-91421064D02*
X113311000Y-90966936D01*
X114781000Y-91421064D02*
X114781000Y-90966936D01*
%TO.C,U1*%
X124868000Y-86842000D02*
X124868000Y-97122000D01*
X124868000Y-97122000D02*
X130168000Y-97122000D01*
X126518000Y-86842000D02*
X124868000Y-86842000D01*
X130168000Y-86842000D02*
X128518000Y-86842000D01*
X130168000Y-97122000D02*
X130168000Y-86842000D01*
X126518000Y-86842000D02*
G75*
G03*
X128518000Y-86842000I1000000J0D01*
G01*
%TO.C,C2*%
X77752000Y-91370748D02*
X77752000Y-92793252D01*
X75932000Y-91370748D02*
X75932000Y-92793252D01*
%TO.C,D1*%
X117528000Y-86908000D02*
X117528000Y-88908000D01*
X117528000Y-86908000D02*
X121538000Y-86908000D01*
X117528000Y-88908000D02*
X121538000Y-88908000D01*
%TO.C,D2*%
X82504000Y-102710000D02*
X82504000Y-100710000D01*
X82504000Y-102710000D02*
X78494000Y-102710000D01*
X82504000Y-100710000D02*
X78494000Y-100710000D01*
%TO.C,R4*%
X83149064Y-110573000D02*
X82694936Y-110573000D01*
X83149064Y-109103000D02*
X82694936Y-109103000D01*
%TO.C,R1*%
X83219000Y-102969064D02*
X83219000Y-102514936D01*
X84689000Y-102969064D02*
X84689000Y-102514936D01*
%TO.C,C1*%
X62821252Y-102366000D02*
X61398748Y-102366000D01*
X62821252Y-100546000D02*
X61398748Y-100546000D01*
%TO.C,D3*%
X64860000Y-102542000D02*
X64860000Y-109842000D01*
X59360000Y-102542000D02*
X59360000Y-109842000D01*
X59360000Y-109842000D02*
X60510000Y-109842000D01*
%TO.C,R3*%
X63152936Y-110119000D02*
X63607064Y-110119000D01*
X63152936Y-111589000D02*
X63607064Y-111589000D01*
%TO.C,C2*%
X77752000Y-105570748D02*
X77752000Y-106993252D01*
X75932000Y-105570748D02*
X75932000Y-106993252D01*
%TO.C,R2*%
X84689000Y-106578936D02*
X84689000Y-107033064D01*
X83219000Y-106578936D02*
X83219000Y-107033064D01*
%TO.C,U1*%
X73132000Y-111158000D02*
X73132000Y-100878000D01*
X73132000Y-100878000D02*
X67832000Y-100878000D01*
X71482000Y-111158000D02*
X73132000Y-111158000D01*
X67832000Y-111158000D02*
X69482000Y-111158000D01*
X67832000Y-100878000D02*
X67832000Y-111158000D01*
X71482000Y-111158000D02*
G75*
G03*
X69482000Y-111158000I-1000000J0D01*
G01*
%TO.C,D1*%
X80472000Y-111092000D02*
X80472000Y-109092000D01*
X80472000Y-111092000D02*
X76462000Y-111092000D01*
X80472000Y-109092000D02*
X76462000Y-109092000D01*
%TO.C,U1*%
X124868000Y-101042000D02*
X124868000Y-111322000D01*
X124868000Y-111322000D02*
X130168000Y-111322000D01*
X126518000Y-101042000D02*
X124868000Y-101042000D01*
X130168000Y-101042000D02*
X128518000Y-101042000D01*
X130168000Y-111322000D02*
X130168000Y-101042000D01*
X126518000Y-101042000D02*
G75*
G03*
X128518000Y-101042000I1000000J0D01*
G01*
%TO.C,C2*%
X120248000Y-106629252D02*
X120248000Y-105206748D01*
X122068000Y-106629252D02*
X122068000Y-105206748D01*
%TO.C,D1*%
X117528000Y-101108000D02*
X117528000Y-103108000D01*
X117528000Y-101108000D02*
X121538000Y-101108000D01*
X117528000Y-103108000D02*
X121538000Y-103108000D01*
%TO.C,R3*%
X134847064Y-102081000D02*
X134392936Y-102081000D01*
X134847064Y-100611000D02*
X134392936Y-100611000D01*
%TO.C,C1*%
X135178748Y-109834000D02*
X136601252Y-109834000D01*
X135178748Y-111654000D02*
X136601252Y-111654000D01*
%TO.C,D3*%
X133140000Y-109658000D02*
X133140000Y-102358000D01*
X138640000Y-109658000D02*
X138640000Y-102358000D01*
X138640000Y-102358000D02*
X137490000Y-102358000D01*
%TO.C,R2*%
X113311000Y-105621064D02*
X113311000Y-105166936D01*
X114781000Y-105621064D02*
X114781000Y-105166936D01*
%TO.C,D2*%
X115496000Y-109490000D02*
X115496000Y-111490000D01*
X115496000Y-109490000D02*
X119506000Y-109490000D01*
X115496000Y-111490000D02*
X119506000Y-111490000D01*
%TO.C,R1*%
X114781000Y-109230936D02*
X114781000Y-109685064D01*
X113311000Y-109230936D02*
X113311000Y-109685064D01*
%TO.C,R4*%
X114850936Y-101627000D02*
X115305064Y-101627000D01*
X114850936Y-103097000D02*
X115305064Y-103097000D01*
%TD*%
M02*
