%TF.GenerationSoftware,KiCad,Pcbnew,7.0.7*%
%TF.CreationDate,2023-09-18T18:06:58+02:00*%
%TF.ProjectId,attiny-usb_panel,61747469-6e79-42d7-9573-625f70616e65,rev?*%
%TF.SameCoordinates,Original*%
%TF.FileFunction,Profile,NP*%
%FSLAX46Y46*%
G04 Gerber Fmt 4.6, Leading zero omitted, Abs format (unit mm)*
G04 Created by KiCad (PCBNEW 7.0.7) date 2023-09-18 18:06:58*
%MOMM*%
%LPD*%
G01*
G04 APERTURE LIST*
%TA.AperFunction,Profile*%
%ADD10C,0.100000*%
%TD*%
G04 APERTURE END LIST*
D10*
X140000000Y-55400000D02*
X133000000Y-55400000D01*
X133000000Y-57400000D01*
X140000000Y-57400000D01*
X140000000Y-69600000D01*
X133000000Y-69600000D01*
X133000000Y-71600000D01*
X140000000Y-71600000D01*
X140000000Y-83800000D01*
X133000000Y-83800000D01*
X133000000Y-85800000D01*
X140000000Y-85800000D01*
X140000000Y-98000000D01*
X133000000Y-98000000D01*
X133000000Y-100000000D01*
X140000000Y-100000000D01*
X140000000Y-112200000D01*
X58000000Y-112200000D01*
X58000000Y-100000000D01*
X65000000Y-100000000D01*
X65000000Y-98000000D01*
X58000000Y-98000000D01*
X58000000Y-85800000D01*
X65000000Y-85800000D01*
X65000000Y-83800000D01*
X58000000Y-83800000D01*
X58000000Y-71600000D01*
X65000000Y-71600000D01*
X65000000Y-69600000D01*
X58000000Y-69600000D01*
X58000000Y-57400000D01*
X65000000Y-57400000D01*
X65000000Y-55400000D01*
X58000000Y-55400000D01*
X58000000Y-43200000D01*
X140000000Y-43200000D01*
X140000000Y-55400000D01*
X98000000Y-45200000D02*
X100000000Y-45200000D01*
X100000000Y-53200000D01*
X98000000Y-53200000D01*
X98000000Y-45200000D01*
X81598000Y-49300000D02*
G75*
G03*
X81598000Y-49300000I-1200000J0D01*
G01*
X118802000Y-49300000D02*
G75*
G03*
X118802000Y-49300000I-1200000J0D01*
G01*
X98000000Y-59400000D02*
X100000000Y-59400000D01*
X100000000Y-67400000D01*
X98000000Y-67400000D01*
X98000000Y-59400000D01*
X68000000Y-55400000D02*
X95000000Y-55400000D01*
X95000000Y-57400000D01*
X68000000Y-57400000D01*
X68000000Y-55400000D01*
X81598000Y-63500000D02*
G75*
G03*
X81598000Y-63500000I-1200000J0D01*
G01*
X103000000Y-55400000D02*
X130000000Y-55400000D01*
X130000000Y-57400000D01*
X103000000Y-57400000D01*
X103000000Y-55400000D01*
X118802000Y-63500000D02*
G75*
G03*
X118802000Y-63500000I-1200000J0D01*
G01*
X98000000Y-73600000D02*
X100000000Y-73600000D01*
X100000000Y-81600000D01*
X98000000Y-81600000D01*
X98000000Y-73600000D01*
X68000000Y-69600000D02*
X95000000Y-69600000D01*
X95000000Y-71600000D01*
X68000000Y-71600000D01*
X68000000Y-69600000D01*
X81598000Y-77700000D02*
G75*
G03*
X81598000Y-77700000I-1200000J0D01*
G01*
X103000000Y-69600000D02*
X130000000Y-69600000D01*
X130000000Y-71600000D01*
X103000000Y-71600000D01*
X103000000Y-69600000D01*
X118802000Y-77700000D02*
G75*
G03*
X118802000Y-77700000I-1200000J0D01*
G01*
X98000000Y-87800000D02*
X100000000Y-87800000D01*
X100000000Y-95800000D01*
X98000000Y-95800000D01*
X98000000Y-87800000D01*
X68000000Y-83800000D02*
X95000000Y-83800000D01*
X95000000Y-85800000D01*
X68000000Y-85800000D01*
X68000000Y-83800000D01*
X81598000Y-91900000D02*
G75*
G03*
X81598000Y-91900000I-1200000J0D01*
G01*
X103000000Y-83800000D02*
X130000000Y-83800000D01*
X130000000Y-85800000D01*
X103000000Y-85800000D01*
X103000000Y-83800000D01*
X118802000Y-91900000D02*
G75*
G03*
X118802000Y-91900000I-1200000J0D01*
G01*
X68000000Y-98000000D02*
X95000000Y-98000000D01*
X95000000Y-100000000D01*
X68000000Y-100000000D01*
X68000000Y-98000000D01*
X98000000Y-102000000D02*
X100000000Y-102000000D01*
X100000000Y-110000000D01*
X98000000Y-110000000D01*
X98000000Y-102000000D01*
X81598000Y-106100000D02*
G75*
G03*
X81598000Y-106100000I-1200000J0D01*
G01*
X103000000Y-98000000D02*
X130000000Y-98000000D01*
X130000000Y-100000000D01*
X103000000Y-100000000D01*
X103000000Y-98000000D01*
X118802000Y-106100000D02*
G75*
G03*
X118802000Y-106100000I-1200000J0D01*
G01*
M02*
